<ttFont>
    <TTGlyph name="" xMin="-742" yMin="1250" xMax="-292" yMax="2066">
      <contour>
        <pt x="-529" y="1534" on="0"/>
        <pt x="-553" y="1513" on="0"/>
        <pt x="-567" y="1475" on="0"/>
        <pt x="-567" y="1453" on="1"/>
        <pt x="-567" y="1431" on="0"/>
        <pt x="-553" y="1393" on="0"/>
        <pt x="-529" y="1372" on="0"/>
        <pt x="-517" y="1372" on="1"/>
        <pt x="-504" y="1372" on="0"/>
        <pt x="-480" y="1393" on="0"/>
        <pt x="-467" y="1431" on="0"/>
        <pt x="-467" y="1453" on="1"/>
        <pt x="-467" y="1475" on="0"/>
        <pt x="-480" y="1513" on="0"/>
        <pt x="-504" y="1534" on="0"/>
        <pt x="-517" y="1534" on="1"/>
      </contour>
      <contour>
        <pt x="-517" y="1656" on="1"/>
        <pt x="-460" y="1656" on="0"/>
        <pt x="-353" y="1604" on="0"/>
        <pt x="-292" y="1507" on="0"/>
        <pt x="-292" y="1453" on="1"/>
        <pt x="-292" y="1399" on="0"/>
        <pt x="-350" y="1304" on="0"/>
        <pt x="-458" y="1250" on="0"/>
        <pt x="-517" y="1250" on="1"/>
        <pt x="-574" y="1250" on="0"/>
        <pt x="-682" y="1304" on="0"/>
        <pt x="-742" y="1399" on="0"/>
        <pt x="-742" y="1453" on="1"/>
        <pt x="-742" y="1507" on="0"/>
        <pt x="-681" y="1604" on="0"/>
        <pt x="-573" y="1656" on="0"/>
      </contour>
      <contour>
        <pt x="-609" y="2066" on="1"/>
        <pt x="-415" y="2066" on="1"/>
        <pt x="-415" y="1686" on="1"/>
        <pt x="-609" y="1686" on="1"/>
      </contour>
    </TTGlyph>
    <TTGlyph name="#1" xMin="-747" yMin="1280" xMax="-292" yMax="2071">
      <contour>
        <pt x="-613" y="1699" on="1"/>
        <pt x="-613" y="1825" on="1"/>
        <pt x="-747" y="1825" on="1"/>
        <pt x="-747" y="1943" on="1"/>
        <pt x="-613" y="1943" on="1"/>
        <pt x="-613" y="2071" on="1"/>
        <pt x="-430" y="2071" on="1"/>
        <pt x="-430" y="1943" on="1"/>
        <pt x="-297" y="1943" on="1"/>
        <pt x="-297" y="1825" on="1"/>
        <pt x="-430" y="1825" on="1"/>
        <pt x="-430" y="1699" on="1"/>
      </contour>
      <contour>
        <pt x="-529" y="1555" on="0"/>
        <pt x="-553" y="1534" on="0"/>
        <pt x="-567" y="1498" on="0"/>
        <pt x="-567" y="1476" on="1"/>
        <pt x="-567" y="1455" on="0"/>
        <pt x="-553" y="1418" on="0"/>
        <pt x="-529" y="1398" on="0"/>
        <pt x="-517" y="1398" on="1"/>
        <pt x="-504" y="1398" on="0"/>
        <pt x="-480" y="1418" on="0"/>
        <pt x="-467" y="1455" on="0"/>
        <pt x="-467" y="1476" on="1"/>
        <pt x="-467" y="1498" on="0"/>
        <pt x="-480" y="1534" on="0"/>
        <pt x="-504" y="1555" on="0"/>
        <pt x="-517" y="1555" on="1"/>
      </contour>
      <contour>
        <pt x="-517" y="1672" on="1"/>
        <pt x="-460" y="1672" on="0"/>
        <pt x="-353" y="1622" on="0"/>
        <pt x="-292" y="1528" on="0"/>
        <pt x="-292" y="1476" on="1"/>
        <pt x="-292" y="1424" on="0"/>
        <pt x="-350" y="1332" on="0"/>
        <pt x="-458" y="1280" on="0"/>
        <pt x="-517" y="1280" on="1"/>
        <pt x="-574" y="1280" on="0"/>
        <pt x="-682" y="1332" on="0"/>
        <pt x="-742" y="1424" on="0"/>
        <pt x="-742" y="1476" on="1"/>
        <pt x="-742" y="1528" on="0"/>
        <pt x="-681" y="1622" on="0"/>
        <pt x="-573" y="1672" on="0"/>
      </contour>
    </TTGlyph>
    <TTGlyph name="#10" xMin="-469" yMin="1240" xMax="469" yMax="1674">
      <contour>
        <pt x="-259" y="1334" on="1"/>
        <pt x="-243" y="1334" on="0"/>
        <pt x="-212" y="1352" on="0"/>
        <pt x="-193" y="1383" on="0"/>
        <pt x="-193" y="1400" on="1"/>
        <pt x="-193" y="1417" on="0"/>
        <pt x="-211" y="1448" on="0"/>
        <pt x="-242" y="1464" on="0"/>
        <pt x="-259" y="1464" on="1"/>
        <pt x="-276" y="1464" on="0"/>
        <pt x="-307" y="1448" on="0"/>
        <pt x="-323" y="1417" on="0"/>
        <pt x="-323" y="1400" on="1"/>
        <pt x="-323" y="1383" on="0"/>
        <pt x="-306" y="1352" on="0"/>
        <pt x="-275" y="1334" on="0"/>
      </contour>
      <contour>
        <pt x="-120" y="1480" on="1"/>
        <pt x="-99" y="1442" on="0"/>
        <pt x="-99" y="1400" on="1"/>
        <pt x="-99" y="1358" on="0"/>
        <pt x="-142" y="1281" on="0"/>
        <pt x="-219" y="1240" on="0"/>
        <pt x="-259" y="1240" on="1"/>
        <pt x="-350" y="1240" on="0"/>
        <pt x="-426" y="1281" on="0"/>
        <pt x="-469" y="1358" on="0"/>
        <pt x="-469" y="1400" on="1"/>
        <pt x="-469" y="1537" on="0"/>
        <pt x="-239" y="1674" on="0"/>
        <pt x="-69" y="1674" on="1"/>
        <pt x="136" y="1674" on="0"/>
        <pt x="442" y="1481" on="0"/>
        <pt x="469" y="1260" on="1"/>
        <pt x="181" y="1260" on="1"/>
        <pt x="165" y="1409" on="0"/>
        <pt x="57" y="1540" on="0"/>
        <pt x="-19" y="1540" on="1"/>
        <pt x="-103" y="1540" on="0"/>
      </contour>
    </TTGlyph>
    <TTGlyph name="#11" xMin="82" yMin="-790" xMax="842" yMax="1150">
      <contour>
        <pt x="387" y="-510" on="0"/>
        <pt x="387" y="-541" on="1"/>
        <pt x="387" y="-573" on="0"/>
        <pt x="416" y="-573" on="1"/>
        <pt x="444" y="-573" on="0"/>
        <pt x="444" y="-541" on="1"/>
        <pt x="444" y="-510" on="0"/>
        <pt x="416" y="-510" on="1"/>
      </contour>
      <contour>
        <pt x="399" y="-644" on="1"/>
        <pt x="385" y="-641" on="0"/>
        <pt x="342" y="-618" on="0"/>
        <pt x="309" y="-569" on="0"/>
        <pt x="309" y="-541" on="1"/>
        <pt x="309" y="-513" on="0"/>
        <pt x="344" y="-463" on="0"/>
        <pt x="404" y="-437" on="0"/>
        <pt x="466" y="-437" on="1"/>
        <pt x="518" y="-437" on="0"/>
        <pt x="578" y="-463" on="0"/>
        <pt x="612" y="-513" on="0"/>
        <pt x="612" y="-541" on="1"/>
        <pt x="612" y="-717" on="0"/>
        <pt x="427" y="-790" on="1"/>
        <pt x="322" y="-690" on="1"/>
        <pt x="379" y="-681" on="0"/>
      </contour>
      <contour>
        <pt x="198" y="890" on="1"/>
        <pt x="198" y="816" on="0"/>
        <pt x="273" y="816" on="1"/>
        <pt x="349" y="816" on="0"/>
        <pt x="349" y="891" on="1"/>
        <pt x="349" y="967" on="0"/>
        <pt x="273" y="967" on="1"/>
        <pt x="198" y="967" on="0"/>
      </contour>
      <contour>
        <pt x="609" y="-400" on="0"/>
        <pt x="300" y="-400" on="1"/>
        <pt x="191" y="-400" on="0"/>
        <pt x="82" y="-380" on="1"/>
        <pt x="82" y="-236" on="1"/>
        <pt x="191" y="-256" on="0"/>
        <pt x="300" y="-256" on="1"/>
        <pt x="413" y="-256" on="0"/>
        <pt x="475" y="-205" on="1"/>
        <pt x="554" y="-142" on="0"/>
        <pt x="554" y="0" on="1"/>
        <pt x="554" y="770" on="1"/>
        <pt x="554" y="987" on="0"/>
        <pt x="413" y="1013" on="1"/>
        <pt x="464" y="967" on="0"/>
        <pt x="464" y="890" on="1"/>
        <pt x="464" y="700" on="0"/>
        <pt x="272" y="700" on="1"/>
        <pt x="82" y="700" on="0"/>
        <pt x="82" y="890" on="1"/>
        <pt x="82" y="1150" on="0"/>
        <pt x="417" y="1150" on="1"/>
        <pt x="842" y="1150" on="0"/>
        <pt x="842" y="770" on="1"/>
        <pt x="842" y="0" on="1"/>
        <pt x="842" y="-210" on="0"/>
      </contour>
    </TTGlyph>
    <TTGlyph name="#12" xMin="82" yMin="-790" xMax="842" yMax="1150">
      <contour>
        <pt x="305" y="-523" on="0"/>
        <pt x="296" y="-539" on="0"/>
        <pt x="296" y="-549" on="1"/>
        <pt x="296" y="-558" on="0"/>
        <pt x="305" y="-574" on="0"/>
        <pt x="319" y="-583" on="0"/>
        <pt x="345" y="-585" on="1"/>
        <pt x="358" y="-565" on="0"/>
        <pt x="358" y="-549" on="1"/>
        <pt x="358" y="-539" on="0"/>
        <pt x="349" y="-523" on="0"/>
        <pt x="335" y="-513" on="0"/>
        <pt x="327" y="-513" on="1"/>
        <pt x="320" y="-513" on="0"/>
      </contour>
      <contour>
        <pt x="480" y="-611" on="1"/>
        <pt x="469" y="-640" on="0"/>
        <pt x="469" y="-667" on="1"/>
        <pt x="469" y="-679" on="0"/>
        <pt x="471" y="-690" on="1"/>
        <pt x="478" y="-709" on="0"/>
        <pt x="515" y="-709" on="1"/>
        <pt x="562" y="-709" on="0"/>
        <pt x="562" y="-599" on="1"/>
        <pt x="562" y="-445" on="1"/>
        <pt x="724" y="-445" on="1"/>
        <pt x="724" y="-604" on="1"/>
        <pt x="724" y="-790" on="0"/>
        <pt x="515" y="-790" on="1"/>
        <pt x="359" y="-790" on="0"/>
        <pt x="333" y="-740" on="1"/>
        <pt x="317" y="-711" on="0"/>
        <pt x="317" y="-685" on="1"/>
        <pt x="317" y="-665" on="0"/>
        <pt x="326" y="-647" on="1"/>
        <pt x="298" y="-647" on="0"/>
        <pt x="272" y="-633" on="1"/>
        <pt x="244" y="-620" on="0"/>
        <pt x="217" y="-572" on="0"/>
        <pt x="217" y="-546" on="1"/>
        <pt x="217" y="-519" on="0"/>
        <pt x="244" y="-470" on="0"/>
        <pt x="300" y="-445" on="0"/>
        <pt x="369" y="-445" on="1"/>
        <pt x="409" y="-445" on="0"/>
        <pt x="464" y="-470" on="0"/>
        <pt x="495" y="-519" on="0"/>
        <pt x="495" y="-546" on="1"/>
        <pt x="495" y="-570" on="0"/>
      </contour>
      <contour>
        <pt x="198" y="890" on="1"/>
        <pt x="198" y="816" on="0"/>
        <pt x="273" y="816" on="1"/>
        <pt x="349" y="816" on="0"/>
        <pt x="349" y="891" on="1"/>
        <pt x="349" y="967" on="0"/>
        <pt x="273" y="967" on="1"/>
        <pt x="198" y="967" on="0"/>
      </contour>
      <contour>
        <pt x="609" y="-400" on="0"/>
        <pt x="300" y="-400" on="1"/>
        <pt x="191" y="-400" on="0"/>
        <pt x="82" y="-380" on="1"/>
        <pt x="82" y="-236" on="1"/>
        <pt x="191" y="-256" on="0"/>
        <pt x="300" y="-256" on="1"/>
        <pt x="413" y="-256" on="0"/>
        <pt x="475" y="-205" on="1"/>
        <pt x="554" y="-142" on="0"/>
        <pt x="554" y="0" on="1"/>
        <pt x="554" y="770" on="1"/>
        <pt x="554" y="987" on="0"/>
        <pt x="413" y="1013" on="1"/>
        <pt x="464" y="967" on="0"/>
        <pt x="464" y="890" on="1"/>
        <pt x="464" y="700" on="0"/>
        <pt x="272" y="700" on="1"/>
        <pt x="82" y="700" on="0"/>
        <pt x="82" y="890" on="1"/>
        <pt x="82" y="1150" on="0"/>
        <pt x="417" y="1150" on="1"/>
        <pt x="842" y="1150" on="0"/>
        <pt x="842" y="770" on="1"/>
        <pt x="842" y="0" on="1"/>
        <pt x="842" y="-210" on="0"/>
      </contour>
    </TTGlyph>
    <TTGlyph name="#13" xMin="-948" yMin="-790" xMax="-176" yMax="-61">
      <contour>
        <pt x="-797" y="-221" on="1"/>
        <pt x="-797" y="-227" on="1"/>
        <pt x="-797" y="-244" on="0"/>
        <pt x="-788" y="-252" on="1"/>
        <pt x="-777" y="-263" on="0"/>
        <pt x="-758" y="-264" on="1"/>
        <pt x="-740" y="-264" on="0"/>
        <pt x="-728" y="-253" on="1"/>
        <pt x="-718" y="-245" on="0"/>
        <pt x="-718" y="-230" on="1"/>
        <pt x="-718" y="-226" on="0"/>
        <pt x="-719" y="-222" on="1"/>
        <pt x="-721" y="-201" on="0"/>
        <pt x="-747" y="-176" on="1"/>
        <pt x="-772" y="-180" on="0"/>
        <pt x="-794" y="-200" on="0"/>
      </contour>
      <contour>
        <pt x="-645" y="-181" on="1"/>
        <pt x="-629" y="-217" on="0"/>
        <pt x="-629" y="-248" on="1"/>
        <pt x="-629" y="-262" on="0"/>
        <pt x="-632" y="-275" on="1"/>
        <pt x="-643" y="-317" on="0"/>
        <pt x="-705" y="-367" on="0"/>
        <pt x="-755" y="-367" on="1"/>
        <pt x="-865" y="-367" on="0"/>
        <pt x="-908" y="-326" on="1"/>
        <pt x="-948" y="-286" on="0"/>
        <pt x="-948" y="-211" on="1"/>
        <pt x="-948" y="-136" on="0"/>
        <pt x="-842" y="-61" on="0"/>
        <pt x="-740" y="-61" on="1"/>
        <pt x="-628" y="-61" on="0"/>
        <pt x="-509" y="-131" on="0"/>
        <pt x="-444" y="-214" on="0"/>
        <pt x="-413" y="-214" on="1"/>
        <pt x="-382" y="-214" on="0"/>
        <pt x="-365" y="-71" on="1"/>
        <pt x="-176" y="-71" on="1"/>
        <pt x="-214" y="-339" on="0"/>
        <pt x="-400" y="-339" on="1"/>
        <pt x="-487" y="-339" on="0"/>
        <pt x="-594" y="-189" on="0"/>
      </contour>
      <contour>
        <pt x="-614" y="-481" on="0"/>
        <pt x="-614" y="-516" on="1"/>
        <pt x="-614" y="-551" on="0"/>
        <pt x="-585" y="-551" on="1"/>
        <pt x="-557" y="-551" on="0"/>
        <pt x="-557" y="-516" on="1"/>
        <pt x="-557" y="-481" on="0"/>
        <pt x="-585" y="-481" on="1"/>
      </contour>
      <contour>
        <pt x="-602" y="-629" on="1"/>
        <pt x="-616" y="-626" on="0"/>
        <pt x="-659" y="-600" on="0"/>
        <pt x="-692" y="-546" on="0"/>
        <pt x="-692" y="-516" on="1"/>
        <pt x="-692" y="-485" on="0"/>
        <pt x="-657" y="-430" on="0"/>
        <pt x="-597" y="-401" on="0"/>
        <pt x="-535" y="-401" on="1"/>
        <pt x="-483" y="-401" on="0"/>
        <pt x="-423" y="-430" on="0"/>
        <pt x="-389" y="-485" on="0"/>
        <pt x="-389" y="-516" on="1"/>
        <pt x="-389" y="-710" on="0"/>
        <pt x="-574" y="-790" on="1"/>
        <pt x="-679" y="-680" on="1"/>
        <pt x="-622" y="-670" on="0"/>
      </contour>
    </TTGlyph>
    <TTGlyph name="#14" xMin="-948" yMin="-770" xMax="-176" yMax="-61">
      <contour>
        <pt x="-797" y="-221" on="1"/>
        <pt x="-797" y="-227" on="1"/>
        <pt x="-797" y="-244" on="0"/>
        <pt x="-788" y="-252" on="1"/>
        <pt x="-777" y="-263" on="0"/>
        <pt x="-758" y="-264" on="1"/>
        <pt x="-740" y="-264" on="0"/>
        <pt x="-728" y="-253" on="1"/>
        <pt x="-718" y="-245" on="0"/>
        <pt x="-718" y="-230" on="1"/>
        <pt x="-718" y="-226" on="0"/>
        <pt x="-719" y="-222" on="1"/>
        <pt x="-721" y="-201" on="0"/>
        <pt x="-747" y="-176" on="1"/>
        <pt x="-772" y="-180" on="0"/>
        <pt x="-794" y="-200" on="0"/>
      </contour>
      <contour>
        <pt x="-645" y="-181" on="1"/>
        <pt x="-629" y="-217" on="0"/>
        <pt x="-629" y="-248" on="1"/>
        <pt x="-629" y="-262" on="0"/>
        <pt x="-632" y="-275" on="1"/>
        <pt x="-643" y="-317" on="0"/>
        <pt x="-705" y="-367" on="0"/>
        <pt x="-755" y="-367" on="1"/>
        <pt x="-865" y="-367" on="0"/>
        <pt x="-908" y="-326" on="1"/>
        <pt x="-948" y="-286" on="0"/>
        <pt x="-948" y="-211" on="1"/>
        <pt x="-948" y="-136" on="0"/>
        <pt x="-842" y="-61" on="0"/>
        <pt x="-740" y="-61" on="1"/>
        <pt x="-628" y="-61" on="0"/>
        <pt x="-509" y="-131" on="0"/>
        <pt x="-444" y="-214" on="0"/>
        <pt x="-413" y="-214" on="1"/>
        <pt x="-382" y="-214" on="0"/>
        <pt x="-365" y="-71" on="1"/>
        <pt x="-176" y="-71" on="1"/>
        <pt x="-214" y="-339" on="0"/>
        <pt x="-400" y="-339" on="1"/>
        <pt x="-487" y="-339" on="0"/>
        <pt x="-594" y="-189" on="0"/>
      </contour>
      <contour>
        <pt x="-726" y="-492" on="0"/>
        <pt x="-735" y="-509" on="0"/>
        <pt x="-735" y="-519" on="1"/>
        <pt x="-735" y="-529" on="0"/>
        <pt x="-726" y="-545" on="0"/>
        <pt x="-712" y="-555" on="0"/>
        <pt x="-686" y="-557" on="1"/>
        <pt x="-673" y="-536" on="0"/>
        <pt x="-673" y="-519" on="1"/>
        <pt x="-673" y="-509" on="0"/>
        <pt x="-682" y="-492" on="0"/>
        <pt x="-696" y="-482" on="0"/>
        <pt x="-704" y="-482" on="1"/>
        <pt x="-711" y="-482" on="0"/>
      </contour>
      <contour>
        <pt x="-551" y="-584" on="1"/>
        <pt x="-562" y="-614" on="0"/>
        <pt x="-562" y="-642" on="1"/>
        <pt x="-562" y="-654" on="0"/>
        <pt x="-560" y="-666" on="1"/>
        <pt x="-553" y="-686" on="0"/>
        <pt x="-516" y="-686" on="1"/>
        <pt x="-469" y="-686" on="0"/>
        <pt x="-469" y="-571" on="1"/>
        <pt x="-469" y="-411" on="1"/>
        <pt x="-307" y="-411" on="1"/>
        <pt x="-307" y="-576" on="1"/>
        <pt x="-307" y="-770" on="0"/>
        <pt x="-516" y="-770" on="1"/>
        <pt x="-672" y="-770" on="0"/>
        <pt x="-698" y="-718" on="1"/>
        <pt x="-714" y="-688" on="0"/>
        <pt x="-714" y="-661" on="1"/>
        <pt x="-714" y="-640" on="0"/>
        <pt x="-705" y="-621" on="1"/>
        <pt x="-733" y="-621" on="0"/>
        <pt x="-759" y="-607" on="1"/>
        <pt x="-787" y="-593" on="0"/>
        <pt x="-814" y="-543" on="0"/>
        <pt x="-814" y="-516" on="1"/>
        <pt x="-814" y="-488" on="0"/>
        <pt x="-787" y="-437" on="0"/>
        <pt x="-731" y="-411" on="0"/>
        <pt x="-662" y="-411" on="1"/>
        <pt x="-622" y="-411" on="0"/>
        <pt x="-567" y="-437" on="0"/>
        <pt x="-536" y="-488" on="0"/>
        <pt x="-536" y="-516" on="1"/>
        <pt x="-536" y="-541" on="0"/>
      </contour>
    </TTGlyph>
    <TTGlyph name="#15" xMin="-97" yMin="1600" xMax="97" yMax="1905">
      <contour>
        <pt x="-97" y="1905" on="1"/>
        <pt x="97" y="1905" on="1"/>
        <pt x="97" y="1600" on="1"/>
        <pt x="-97" y="1600" on="1"/>
      </contour>
    </TTGlyph>
    <TTGlyph name="#16" xMin="-384" yMin="1610" xMax="385" yMax="1900">
      <contour>
        <pt x="-141" y="1790" on="1"/>
        <pt x="-134" y="1803" on="0"/>
        <pt x="-134" y="1812" on="1"/>
        <pt x="-134" y="1818" on="0"/>
        <pt x="-137" y="1823" on="1"/>
        <pt x="-149" y="1841" on="0"/>
        <pt x="-171" y="1841" on="1"/>
        <pt x="-180" y="1841" on="1"/>
        <pt x="-199" y="1836" on="0"/>
        <pt x="-200" y="1815" on="1"/>
        <pt x="-201" y="1814" on="0"/>
        <pt x="-201" y="1813" on="1"/>
        <pt x="-201" y="1794" on="0"/>
        <pt x="-185" y="1791" on="1"/>
        <pt x="-171" y="1789" on="0"/>
        <pt x="-156" y="1789" on="1"/>
        <pt x="-149" y="1789" on="0"/>
      </contour>
      <contour>
        <pt x="-246" y="1744" on="0"/>
        <pt x="-276" y="1762" on="1"/>
        <pt x="-308" y="1782" on="0"/>
        <pt x="-308" y="1815" on="1"/>
        <pt x="-308" y="1822" on="1"/>
        <pt x="-304" y="1860" on="0"/>
        <pt x="-260" y="1883" on="1"/>
        <pt x="-224" y="1900" on="0"/>
        <pt x="-177" y="1900" on="1"/>
        <pt x="-167" y="1900" on="0"/>
        <pt x="-156" y="1899" on="1"/>
        <pt x="-35" y="1894" on="0"/>
        <pt x="-13" y="1865" on="1"/>
        <pt x="7" y="1838" on="0"/>
        <pt x="7" y="1799" on="1"/>
        <pt x="7" y="1792" on="1"/>
        <pt x="5" y="1748" on="0"/>
        <pt x="-72" y="1687" on="1"/>
        <pt x="6" y="1695" on="0"/>
        <pt x="134" y="1793" on="0"/>
        <pt x="175" y="1875" on="1"/>
        <pt x="385" y="1832" on="1"/>
        <pt x="324" y="1744" on="0"/>
        <pt x="202" y="1663" on="0"/>
        <pt x="20" y="1610" on="0"/>
        <pt x="-170" y="1610" on="1"/>
        <pt x="-384" y="1610" on="1"/>
        <pt x="-384" y="1675" on="1"/>
        <pt x="-248" y="1695" on="0"/>
        <pt x="-194" y="1739" on="1"/>
      </contour>
    </TTGlyph>
    <TTGlyph name="#17" xMin="-476" yMin="1600" xMax="477" yMax="1900">
      <contour>
        <pt x="-288" y="1602" on="0"/>
        <pt x="-296" y="1600" on="1"/>
        <pt x="-392" y="1628" on="0"/>
        <pt x="-476" y="1703" on="0"/>
        <pt x="-476" y="1750" on="1"/>
        <pt x="-476" y="1785" on="0"/>
        <pt x="-427" y="1839" on="0"/>
        <pt x="-374" y="1878" on="0"/>
        <pt x="-302" y="1900" on="0"/>
        <pt x="-250" y="1900" on="1"/>
        <pt x="-223" y="1900" on="0"/>
        <pt x="-165" y="1884" on="0"/>
        <pt x="-91" y="1836" on="0"/>
        <pt x="-76" y="1825" on="1"/>
        <pt x="-38" y="1846" on="0"/>
        <pt x="40" y="1893" on="0"/>
        <pt x="99" y="1900" on="1"/>
        <pt x="146" y="1900" on="0"/>
        <pt x="229" y="1874" on="0"/>
        <pt x="276" y="1836" on="0"/>
        <pt x="289" y="1817" on="1"/>
        <pt x="300" y="1800" on="0"/>
        <pt x="300" y="1776" on="1"/>
        <pt x="300" y="1770" on="1"/>
        <pt x="335" y="1804" on="0"/>
        <pt x="355" y="1847" on="0"/>
        <pt x="372" y="1890" on="1"/>
        <pt x="413" y="1889" on="0"/>
        <pt x="459" y="1869" on="0"/>
        <pt x="476" y="1849" on="1"/>
        <pt x="477" y="1845" on="0"/>
        <pt x="477" y="1841" on="1"/>
        <pt x="477" y="1798" on="0"/>
        <pt x="449" y="1763" on="1"/>
        <pt x="418" y="1723" on="0"/>
        <pt x="329" y="1669" on="0"/>
        <pt x="214" y="1616" on="0"/>
        <pt x="149" y="1606" on="1"/>
        <pt x="143" y="1607" on="0"/>
        <pt x="138" y="1608" on="1"/>
        <pt x="80" y="1663" on="1"/>
        <pt x="115" y="1678" on="0"/>
        <pt x="150" y="1725" on="0"/>
        <pt x="151" y="1747" on="1"/>
        <pt x="151" y="1771" on="0"/>
        <pt x="116" y="1814" on="0"/>
        <pt x="88" y="1814" on="1"/>
        <pt x="60" y="1814" on="0"/>
        <pt x="-53" y="1709" on="0"/>
        <pt x="-79" y="1709" on="1"/>
        <pt x="-103" y="1709" on="0"/>
        <pt x="-216" y="1812" on="0"/>
        <pt x="-240" y="1812" on="1"/>
        <pt x="-265" y="1812" on="0"/>
        <pt x="-302" y="1764" on="0"/>
        <pt x="-302" y="1737" on="1"/>
        <pt x="-302" y="1716" on="0"/>
        <pt x="-262" y="1675" on="0"/>
        <pt x="-234" y="1664" on="1"/>
        <pt x="-280" y="1604" on="1"/>
      </contour>
    </TTGlyph>
    <TTGlyph name="#18" xMin="-225" yMin="1600" xMax="225" yMax="1905">
      <contour>
        <pt x="-91" y="1600" on="1"/>
        <pt x="-91" y="1704" on="1"/>
        <pt x="-225" y="1704" on="1"/>
        <pt x="-225" y="1801" on="1"/>
        <pt x="-91" y="1801" on="1"/>
        <pt x="-91" y="1905" on="1"/>
        <pt x="92" y="1905" on="1"/>
        <pt x="92" y="1801" on="1"/>
        <pt x="225" y="1801" on="1"/>
        <pt x="225" y="1704" on="1"/>
        <pt x="92" y="1704" on="1"/>
        <pt x="92" y="1600" on="1"/>
      </contour>
    </TTGlyph>
    <TTGlyph name="#19" xMin="-639" yMin="1250" xMax="-445" yMax="1555">
      <contour>
        <pt x="-639" y="1555" on="1"/>
        <pt x="-445" y="1555" on="1"/>
        <pt x="-445" y="1250" on="1"/>
        <pt x="-639" y="1250" on="1"/>
      </contour>
    </TTGlyph>
    <TTGlyph name="#2" xMin="-892" yMin="1290" xMax="-19" yMax="2075">
      <contour>
        <pt x="-529" y="1570" on="0"/>
        <pt x="-553" y="1549" on="0"/>
        <pt x="-567" y="1512" on="0"/>
        <pt x="-567" y="1490" on="1"/>
        <pt x="-567" y="1468" on="0"/>
        <pt x="-553" y="1431" on="0"/>
        <pt x="-529" y="1410" on="0"/>
        <pt x="-517" y="1410" on="1"/>
        <pt x="-504" y="1410" on="0"/>
        <pt x="-480" y="1431" on="0"/>
        <pt x="-467" y="1468" on="0"/>
        <pt x="-467" y="1490" on="1"/>
        <pt x="-467" y="1512" on="0"/>
        <pt x="-480" y="1549" on="0"/>
        <pt x="-504" y="1570" on="0"/>
        <pt x="-517" y="1570" on="1"/>
      </contour>
      <contour>
        <pt x="-517" y="1690" on="1"/>
        <pt x="-460" y="1690" on="0"/>
        <pt x="-353" y="1638" on="0"/>
        <pt x="-292" y="1543" on="0"/>
        <pt x="-292" y="1490" on="1"/>
        <pt x="-292" y="1437" on="0"/>
        <pt x="-350" y="1343" on="0"/>
        <pt x="-458" y="1290" on="0"/>
        <pt x="-517" y="1290" on="1"/>
        <pt x="-574" y="1290" on="0"/>
        <pt x="-682" y="1343" on="0"/>
        <pt x="-742" y="1437" on="0"/>
        <pt x="-742" y="1490" on="1"/>
        <pt x="-742" y="1543" on="0"/>
        <pt x="-681" y="1638" on="0"/>
        <pt x="-573" y="1690" on="0"/>
      </contour>
      <contour>
        <pt x="-704" y="1709" on="0"/>
        <pt x="-712" y="1707" on="1"/>
        <pt x="-808" y="1741" on="0"/>
        <pt x="-892" y="1833" on="0"/>
        <pt x="-892" y="1891" on="1"/>
        <pt x="-892" y="1934" on="0"/>
        <pt x="-843" y="2000" on="0"/>
        <pt x="-790" y="2048" on="0"/>
        <pt x="-718" y="2075" on="0"/>
        <pt x="-666" y="2075" on="1"/>
        <pt x="-639" y="2075" on="0"/>
        <pt x="-532" y="1983" on="1"/>
        <pt x="-456" y="2066" on="0"/>
        <pt x="-397" y="2075" on="1"/>
        <pt x="-350" y="2075" on="0"/>
        <pt x="-267" y="2043" on="0"/>
        <pt x="-220" y="1997" on="0"/>
        <pt x="-207" y="1973" on="1"/>
        <pt x="-196" y="1952" on="0"/>
        <pt x="-196" y="1923" on="1"/>
        <pt x="-196" y="1916" on="1"/>
        <pt x="-161" y="1957" on="0"/>
        <pt x="-141" y="2010" on="0"/>
        <pt x="-124" y="2063" on="1"/>
        <pt x="-83" y="2062" on="0"/>
        <pt x="-37" y="2037" on="0"/>
        <pt x="-20" y="2012" on="1"/>
        <pt x="-19" y="2008" on="0"/>
        <pt x="-19" y="2003" on="1"/>
        <pt x="-19" y="1950" on="0"/>
        <pt x="-47" y="1907" on="1"/>
        <pt x="-78" y="1858" on="0"/>
        <pt x="-167" y="1792" on="0"/>
        <pt x="-282" y="1727" on="0"/>
        <pt x="-347" y="1714" on="1"/>
        <pt x="-353" y="1716" on="0"/>
        <pt x="-358" y="1717" on="1"/>
        <pt x="-416" y="1784" on="1"/>
        <pt x="-381" y="1803" on="0"/>
        <pt x="-346" y="1860" on="0"/>
        <pt x="-345" y="1887" on="1"/>
        <pt x="-345" y="1917" on="0"/>
        <pt x="-380" y="1970" on="0"/>
        <pt x="-408" y="1970" on="1"/>
        <pt x="-436" y="1970" on="0"/>
        <pt x="-509" y="1841" on="0"/>
        <pt x="-535" y="1841" on="1"/>
        <pt x="-559" y="1841" on="0"/>
        <pt x="-632" y="1967" on="0"/>
        <pt x="-656" y="1967" on="1"/>
        <pt x="-681" y="1967" on="0"/>
        <pt x="-718" y="1908" on="0"/>
        <pt x="-718" y="1875" on="1"/>
        <pt x="-718" y="1849" on="0"/>
        <pt x="-678" y="1799" on="0"/>
        <pt x="-650" y="1786" on="1"/>
        <pt x="-696" y="1712" on="1"/>
      </contour>
    </TTGlyph>
    <TTGlyph name="#20" xMin="-910" yMin="1250" xMax="-141" yMax="1540">
      <contour>
        <pt x="-667" y="1430" on="1"/>
        <pt x="-660" y="1443" on="0"/>
        <pt x="-660" y="1452" on="1"/>
        <pt x="-660" y="1458" on="0"/>
        <pt x="-663" y="1463" on="1"/>
        <pt x="-675" y="1481" on="0"/>
        <pt x="-697" y="1481" on="1"/>
        <pt x="-706" y="1481" on="1"/>
        <pt x="-725" y="1476" on="0"/>
        <pt x="-726" y="1455" on="1"/>
        <pt x="-727" y="1454" on="0"/>
        <pt x="-727" y="1453" on="1"/>
        <pt x="-727" y="1434" on="0"/>
        <pt x="-711" y="1431" on="1"/>
        <pt x="-697" y="1429" on="0"/>
        <pt x="-682" y="1429" on="1"/>
        <pt x="-675" y="1429" on="0"/>
      </contour>
      <contour>
        <pt x="-772" y="1384" on="0"/>
        <pt x="-802" y="1402" on="1"/>
        <pt x="-834" y="1422" on="0"/>
        <pt x="-834" y="1455" on="1"/>
        <pt x="-834" y="1462" on="1"/>
        <pt x="-830" y="1500" on="0"/>
        <pt x="-786" y="1523" on="1"/>
        <pt x="-750" y="1540" on="0"/>
        <pt x="-703" y="1540" on="1"/>
        <pt x="-693" y="1540" on="0"/>
        <pt x="-682" y="1539" on="1"/>
        <pt x="-561" y="1534" on="0"/>
        <pt x="-539" y="1505" on="1"/>
        <pt x="-519" y="1478" on="0"/>
        <pt x="-519" y="1439" on="1"/>
        <pt x="-519" y="1432" on="1"/>
        <pt x="-521" y="1388" on="0"/>
        <pt x="-598" y="1327" on="1"/>
        <pt x="-520" y="1335" on="0"/>
        <pt x="-392" y="1433" on="0"/>
        <pt x="-351" y="1515" on="1"/>
        <pt x="-141" y="1472" on="1"/>
        <pt x="-202" y="1384" on="0"/>
        <pt x="-324" y="1303" on="0"/>
        <pt x="-506" y="1250" on="0"/>
        <pt x="-696" y="1250" on="1"/>
        <pt x="-910" y="1250" on="1"/>
        <pt x="-910" y="1315" on="1"/>
        <pt x="-774" y="1335" on="0"/>
        <pt x="-720" y="1379" on="1"/>
      </contour>
    </TTGlyph>
    <TTGlyph name="#21" xMin="-942" yMin="1250" xMax="11" yMax="1550">
      <contour>
        <pt x="-754" y="1252" on="0"/>
        <pt x="-762" y="1250" on="1"/>
        <pt x="-858" y="1278" on="0"/>
        <pt x="-942" y="1353" on="0"/>
        <pt x="-942" y="1400" on="1"/>
        <pt x="-942" y="1435" on="0"/>
        <pt x="-893" y="1489" on="0"/>
        <pt x="-840" y="1528" on="0"/>
        <pt x="-768" y="1550" on="0"/>
        <pt x="-716" y="1550" on="1"/>
        <pt x="-689" y="1550" on="0"/>
        <pt x="-631" y="1534" on="0"/>
        <pt x="-557" y="1486" on="0"/>
        <pt x="-542" y="1475" on="1"/>
        <pt x="-504" y="1496" on="0"/>
        <pt x="-426" y="1543" on="0"/>
        <pt x="-367" y="1550" on="1"/>
        <pt x="-320" y="1550" on="0"/>
        <pt x="-237" y="1524" on="0"/>
        <pt x="-190" y="1486" on="0"/>
        <pt x="-177" y="1467" on="1"/>
        <pt x="-166" y="1450" on="0"/>
        <pt x="-166" y="1426" on="1"/>
        <pt x="-166" y="1420" on="1"/>
        <pt x="-131" y="1454" on="0"/>
        <pt x="-111" y="1497" on="0"/>
        <pt x="-94" y="1540" on="1"/>
        <pt x="-53" y="1539" on="0"/>
        <pt x="-7" y="1519" on="0"/>
        <pt x="10" y="1499" on="1"/>
        <pt x="11" y="1495" on="0"/>
        <pt x="11" y="1491" on="1"/>
        <pt x="11" y="1448" on="0"/>
        <pt x="-17" y="1413" on="1"/>
        <pt x="-48" y="1373" on="0"/>
        <pt x="-137" y="1319" on="0"/>
        <pt x="-252" y="1266" on="0"/>
        <pt x="-317" y="1256" on="1"/>
        <pt x="-323" y="1257" on="0"/>
        <pt x="-328" y="1258" on="1"/>
        <pt x="-386" y="1313" on="1"/>
        <pt x="-351" y="1328" on="0"/>
        <pt x="-316" y="1375" on="0"/>
        <pt x="-315" y="1397" on="1"/>
        <pt x="-315" y="1421" on="0"/>
        <pt x="-350" y="1464" on="0"/>
        <pt x="-378" y="1464" on="1"/>
        <pt x="-406" y="1464" on="0"/>
        <pt x="-519" y="1359" on="0"/>
        <pt x="-545" y="1359" on="1"/>
        <pt x="-569" y="1359" on="0"/>
        <pt x="-682" y="1462" on="0"/>
        <pt x="-706" y="1462" on="1"/>
        <pt x="-731" y="1462" on="0"/>
        <pt x="-768" y="1414" on="0"/>
        <pt x="-768" y="1387" on="1"/>
        <pt x="-768" y="1366" on="0"/>
        <pt x="-728" y="1325" on="0"/>
        <pt x="-700" y="1314" on="1"/>
        <pt x="-746" y="1254" on="1"/>
      </contour>
    </TTGlyph>
    <TTGlyph name="#22" xMin="-707" yMin="1250" xMax="-257" yMax="1555">
      <contour>
        <pt x="-573" y="1250" on="1"/>
        <pt x="-573" y="1354" on="1"/>
        <pt x="-707" y="1354" on="1"/>
        <pt x="-707" y="1451" on="1"/>
        <pt x="-573" y="1451" on="1"/>
        <pt x="-573" y="1555" on="1"/>
        <pt x="-390" y="1555" on="1"/>
        <pt x="-390" y="1451" on="1"/>
        <pt x="-257" y="1451" on="1"/>
        <pt x="-257" y="1354" on="1"/>
        <pt x="-390" y="1354" on="1"/>
        <pt x="-390" y="1250" on="1"/>
      </contour>
    </TTGlyph>
    <TTGlyph name="#23" xMin="-528" yMin="-770" xMax="244" yMax="-61">
      <contour>
        <pt x="-377" y="-221" on="1"/>
        <pt x="-377" y="-227" on="1"/>
        <pt x="-377" y="-244" on="0"/>
        <pt x="-368" y="-252" on="1"/>
        <pt x="-357" y="-263" on="0"/>
        <pt x="-338" y="-264" on="1"/>
        <pt x="-320" y="-264" on="0"/>
        <pt x="-308" y="-253" on="1"/>
        <pt x="-298" y="-245" on="0"/>
        <pt x="-298" y="-230" on="1"/>
        <pt x="-298" y="-226" on="0"/>
        <pt x="-299" y="-222" on="1"/>
        <pt x="-301" y="-201" on="0"/>
        <pt x="-327" y="-176" on="1"/>
        <pt x="-352" y="-180" on="0"/>
        <pt x="-374" y="-200" on="0"/>
      </contour>
      <contour>
        <pt x="-225" y="-181" on="1"/>
        <pt x="-209" y="-217" on="0"/>
        <pt x="-209" y="-248" on="1"/>
        <pt x="-209" y="-262" on="0"/>
        <pt x="-212" y="-275" on="1"/>
        <pt x="-223" y="-317" on="0"/>
        <pt x="-285" y="-367" on="0"/>
        <pt x="-335" y="-367" on="1"/>
        <pt x="-445" y="-367" on="0"/>
        <pt x="-488" y="-326" on="1"/>
        <pt x="-528" y="-286" on="0"/>
        <pt x="-528" y="-211" on="1"/>
        <pt x="-528" y="-136" on="0"/>
        <pt x="-422" y="-61" on="0"/>
        <pt x="-320" y="-61" on="1"/>
        <pt x="-208" y="-61" on="0"/>
        <pt x="-89" y="-131" on="0"/>
        <pt x="-24" y="-214" on="0"/>
        <pt x="7" y="-214" on="1"/>
        <pt x="38" y="-214" on="0"/>
        <pt x="55" y="-71" on="1"/>
        <pt x="244" y="-71" on="1"/>
        <pt x="206" y="-339" on="0"/>
        <pt x="20" y="-339" on="1"/>
        <pt x="-67" y="-339" on="0"/>
        <pt x="-174" y="-189" on="0"/>
      </contour>
      <contour>
        <pt x="-214" y="-461" on="0"/>
        <pt x="-214" y="-496" on="1"/>
        <pt x="-214" y="-531" on="0"/>
        <pt x="-185" y="-531" on="1"/>
        <pt x="-157" y="-531" on="0"/>
        <pt x="-157" y="-496" on="1"/>
        <pt x="-157" y="-461" on="0"/>
        <pt x="-185" y="-461" on="1"/>
      </contour>
      <contour>
        <pt x="-202" y="-609" on="1"/>
        <pt x="-216" y="-606" on="0"/>
        <pt x="-259" y="-580" on="0"/>
        <pt x="-292" y="-526" on="0"/>
        <pt x="-292" y="-496" on="1"/>
        <pt x="-292" y="-465" on="0"/>
        <pt x="-257" y="-410" on="0"/>
        <pt x="-197" y="-381" on="0"/>
        <pt x="-135" y="-381" on="1"/>
        <pt x="-83" y="-381" on="0"/>
        <pt x="-23" y="-410" on="0"/>
        <pt x="11" y="-465" on="0"/>
        <pt x="11" y="-496" on="1"/>
        <pt x="11" y="-690" on="0"/>
        <pt x="-174" y="-770" on="1"/>
        <pt x="-279" y="-660" on="1"/>
        <pt x="-222" y="-650" on="0"/>
      </contour>
    </TTGlyph>
    <TTGlyph name="#24" xMin="-528" yMin="-750" xMax="244" yMax="-61">
      <contour>
        <pt x="-377" y="-221" on="1"/>
        <pt x="-377" y="-227" on="1"/>
        <pt x="-377" y="-244" on="0"/>
        <pt x="-368" y="-252" on="1"/>
        <pt x="-357" y="-263" on="0"/>
        <pt x="-338" y="-264" on="1"/>
        <pt x="-320" y="-264" on="0"/>
        <pt x="-308" y="-253" on="1"/>
        <pt x="-298" y="-245" on="0"/>
        <pt x="-298" y="-230" on="1"/>
        <pt x="-298" y="-226" on="0"/>
        <pt x="-299" y="-222" on="1"/>
        <pt x="-301" y="-201" on="0"/>
        <pt x="-327" y="-176" on="1"/>
        <pt x="-352" y="-180" on="0"/>
        <pt x="-374" y="-200" on="0"/>
      </contour>
      <contour>
        <pt x="-225" y="-181" on="1"/>
        <pt x="-209" y="-217" on="0"/>
        <pt x="-209" y="-248" on="1"/>
        <pt x="-209" y="-262" on="0"/>
        <pt x="-212" y="-275" on="1"/>
        <pt x="-223" y="-317" on="0"/>
        <pt x="-285" y="-367" on="0"/>
        <pt x="-335" y="-367" on="1"/>
        <pt x="-445" y="-367" on="0"/>
        <pt x="-488" y="-326" on="1"/>
        <pt x="-528" y="-286" on="0"/>
        <pt x="-528" y="-211" on="1"/>
        <pt x="-528" y="-136" on="0"/>
        <pt x="-422" y="-61" on="0"/>
        <pt x="-320" y="-61" on="1"/>
        <pt x="-208" y="-61" on="0"/>
        <pt x="-89" y="-131" on="0"/>
        <pt x="-24" y="-214" on="0"/>
        <pt x="7" y="-214" on="1"/>
        <pt x="38" y="-214" on="0"/>
        <pt x="55" y="-71" on="1"/>
        <pt x="244" y="-71" on="1"/>
        <pt x="206" y="-339" on="0"/>
        <pt x="20" y="-339" on="1"/>
        <pt x="-67" y="-339" on="0"/>
        <pt x="-174" y="-189" on="0"/>
      </contour>
      <contour>
        <pt x="-296" y="-472" on="0"/>
        <pt x="-305" y="-489" on="0"/>
        <pt x="-305" y="-499" on="1"/>
        <pt x="-305" y="-509" on="0"/>
        <pt x="-296" y="-525" on="0"/>
        <pt x="-282" y="-535" on="0"/>
        <pt x="-256" y="-537" on="1"/>
        <pt x="-243" y="-516" on="0"/>
        <pt x="-243" y="-499" on="1"/>
        <pt x="-243" y="-489" on="0"/>
        <pt x="-252" y="-472" on="0"/>
        <pt x="-266" y="-462" on="0"/>
        <pt x="-274" y="-462" on="1"/>
        <pt x="-281" y="-462" on="0"/>
      </contour>
      <contour>
        <pt x="-121" y="-564" on="1"/>
        <pt x="-132" y="-594" on="0"/>
        <pt x="-132" y="-622" on="1"/>
        <pt x="-132" y="-634" on="0"/>
        <pt x="-130" y="-646" on="1"/>
        <pt x="-123" y="-666" on="0"/>
        <pt x="-86" y="-666" on="1"/>
        <pt x="-39" y="-666" on="0"/>
        <pt x="-39" y="-551" on="1"/>
        <pt x="-39" y="-391" on="1"/>
        <pt x="123" y="-391" on="1"/>
        <pt x="123" y="-556" on="1"/>
        <pt x="123" y="-750" on="0"/>
        <pt x="-86" y="-750" on="1"/>
        <pt x="-242" y="-750" on="0"/>
        <pt x="-268" y="-698" on="1"/>
        <pt x="-284" y="-668" on="0"/>
        <pt x="-284" y="-641" on="1"/>
        <pt x="-284" y="-620" on="0"/>
        <pt x="-275" y="-601" on="1"/>
        <pt x="-303" y="-601" on="0"/>
        <pt x="-329" y="-587" on="1"/>
        <pt x="-357" y="-573" on="0"/>
        <pt x="-384" y="-523" on="0"/>
        <pt x="-384" y="-496" on="1"/>
        <pt x="-384" y="-468" on="0"/>
        <pt x="-357" y="-417" on="0"/>
        <pt x="-301" y="-391" on="0"/>
        <pt x="-232" y="-391" on="1"/>
        <pt x="-192" y="-391" on="0"/>
        <pt x="-137" y="-417" on="0"/>
        <pt x="-106" y="-468" on="0"/>
        <pt x="-106" y="-496" on="1"/>
        <pt x="-106" y="-521" on="0"/>
      </contour>
    </TTGlyph>
    <TTGlyph name="#3" xMin="-157" yMin="-450" xMax="146" yMax="-61">
      <contour>
        <pt x="-79" y="-141" on="0"/>
        <pt x="-79" y="-176" on="1"/>
        <pt x="-79" y="-211" on="0"/>
        <pt x="-50" y="-211" on="1"/>
        <pt x="-22" y="-211" on="0"/>
        <pt x="-22" y="-176" on="1"/>
        <pt x="-22" y="-141" on="0"/>
        <pt x="-50" y="-141" on="1"/>
      </contour>
      <contour>
        <pt x="-67" y="-289" on="1"/>
        <pt x="-81" y="-286" on="0"/>
        <pt x="-124" y="-260" on="0"/>
        <pt x="-157" y="-206" on="0"/>
        <pt x="-157" y="-176" on="1"/>
        <pt x="-157" y="-145" on="0"/>
        <pt x="-122" y="-90" on="0"/>
        <pt x="-62" y="-61" on="0"/>
        <pt x="0" y="-61" on="1"/>
        <pt x="52" y="-61" on="0"/>
        <pt x="112" y="-90" on="0"/>
        <pt x="146" y="-145" on="0"/>
        <pt x="146" y="-176" on="1"/>
        <pt x="146" y="-370" on="0"/>
        <pt x="-39" y="-450" on="1"/>
        <pt x="-144" y="-340" on="1"/>
        <pt x="-87" y="-330" on="0"/>
      </contour>
    </TTGlyph>
    <TTGlyph name="#4" xMin="-303" yMin="-420" xMax="204" yMax="-61">
      <contour>
        <pt x="-215" y="-142" on="0"/>
        <pt x="-224" y="-159" on="0"/>
        <pt x="-224" y="-169" on="1"/>
        <pt x="-224" y="-179" on="0"/>
        <pt x="-215" y="-195" on="0"/>
        <pt x="-201" y="-205" on="0"/>
        <pt x="-175" y="-207" on="1"/>
        <pt x="-162" y="-186" on="0"/>
        <pt x="-162" y="-169" on="1"/>
        <pt x="-162" y="-159" on="0"/>
        <pt x="-171" y="-142" on="0"/>
        <pt x="-185" y="-132" on="0"/>
        <pt x="-193" y="-132" on="1"/>
        <pt x="-200" y="-132" on="0"/>
      </contour>
      <contour>
        <pt x="-40" y="-234" on="1"/>
        <pt x="-51" y="-264" on="0"/>
        <pt x="-51" y="-292" on="1"/>
        <pt x="-51" y="-304" on="0"/>
        <pt x="-49" y="-316" on="1"/>
        <pt x="-42" y="-336" on="0"/>
        <pt x="-5" y="-336" on="1"/>
        <pt x="42" y="-336" on="0"/>
        <pt x="42" y="-221" on="1"/>
        <pt x="42" y="-61" on="1"/>
        <pt x="204" y="-61" on="1"/>
        <pt x="204" y="-226" on="1"/>
        <pt x="204" y="-420" on="0"/>
        <pt x="-5" y="-420" on="1"/>
        <pt x="-161" y="-420" on="0"/>
        <pt x="-187" y="-368" on="1"/>
        <pt x="-203" y="-338" on="0"/>
        <pt x="-203" y="-311" on="1"/>
        <pt x="-203" y="-290" on="0"/>
        <pt x="-194" y="-271" on="1"/>
        <pt x="-222" y="-271" on="0"/>
        <pt x="-248" y="-257" on="1"/>
        <pt x="-276" y="-243" on="0"/>
        <pt x="-303" y="-193" on="0"/>
        <pt x="-303" y="-166" on="1"/>
        <pt x="-303" y="-138" on="0"/>
        <pt x="-276" y="-87" on="0"/>
        <pt x="-220" y="-61" on="0"/>
        <pt x="-151" y="-61" on="1"/>
        <pt x="-111" y="-61" on="0"/>
        <pt x="-56" y="-87" on="0"/>
        <pt x="-25" y="-138" on="0"/>
        <pt x="-25" y="-166" on="1"/>
        <pt x="-25" y="-191" on="0"/>
      </contour>
    </TTGlyph>
    <TTGlyph name="#5" xMin="-450" yMin="1202" xMax="450" yMax="1549">
      <contour>
        <pt x="-22" y="1457" on="1"/>
        <pt x="-152" y="1457" on="0"/>
        <pt x="-228" y="1425" on="0"/>
        <pt x="-244" y="1396" on="1"/>
        <pt x="-251" y="1385" on="0"/>
        <pt x="-251" y="1376" on="1"/>
        <pt x="-251" y="1360" on="0"/>
        <pt x="-234" y="1346" on="1"/>
        <pt x="-207" y="1326" on="0"/>
        <pt x="-145" y="1282" on="1"/>
        <pt x="-205" y="1202" on="1"/>
        <pt x="-211" y="1203" on="0"/>
        <pt x="-219" y="1203" on="1"/>
        <pt x="-273" y="1224" on="0"/>
        <pt x="-347" y="1259" on="0"/>
        <pt x="-420" y="1310" on="0"/>
        <pt x="-444" y="1346" on="0"/>
        <pt x="-450" y="1380" on="1"/>
        <pt x="-450" y="1419" on="0"/>
        <pt x="-343" y="1512" on="0"/>
        <pt x="-159" y="1549" on="0"/>
        <pt x="0" y="1549" on="1"/>
        <pt x="160" y="1549" on="0"/>
        <pt x="344" y="1512" on="0"/>
        <pt x="450" y="1419" on="0"/>
        <pt x="450" y="1380" on="1"/>
        <pt x="445" y="1346" on="0"/>
        <pt x="421" y="1310" on="0"/>
        <pt x="348" y="1251" on="0"/>
        <pt x="274" y="1217" on="0"/>
        <pt x="220" y="1203" on="1"/>
        <pt x="213" y="1202" on="0"/>
        <pt x="207" y="1202" on="1"/>
        <pt x="148" y="1282" on="1"/>
        <pt x="208" y="1326" on="0"/>
        <pt x="235" y="1346" on="1"/>
        <pt x="252" y="1360" on="0"/>
        <pt x="252" y="1376" on="1"/>
        <pt x="252" y="1385" on="0"/>
        <pt x="246" y="1396" on="1"/>
        <pt x="229" y="1425" on="0"/>
        <pt x="153" y="1457" on="0"/>
        <pt x="22" y="1457" on="1"/>
      </contour>
    </TTGlyph>
    <TTGlyph name="#6" xMin="-450" yMin="1202" xMax="450" yMax="1557">
      <contour>
        <pt x="88" y="1284" on="1"/>
        <pt x="137" y="1328" on="0"/>
        <pt x="161" y="1350" on="1"/>
        <pt x="176" y="1362" on="0"/>
        <pt x="176" y="1379" on="1"/>
        <pt x="176" y="1389" on="0"/>
        <pt x="170" y="1400" on="1"/>
        <pt x="155" y="1429" on="0"/>
        <pt x="90" y="1464" on="0"/>
        <pt x="-35" y="1464" on="1"/>
        <pt x="-55" y="1464" on="1"/>
        <pt x="-179" y="1464" on="0"/>
        <pt x="-244" y="1429" on="0"/>
        <pt x="-259" y="1400" on="1"/>
        <pt x="-265" y="1389" on="0"/>
        <pt x="-265" y="1379" on="1"/>
        <pt x="-265" y="1362" on="0"/>
        <pt x="-250" y="1350" on="1"/>
        <pt x="-226" y="1328" on="0"/>
        <pt x="-176" y="1284" on="1"/>
        <pt x="-228" y="1202" on="1"/>
        <pt x="-235" y="1203" on="0"/>
        <pt x="-242" y="1203" on="1"/>
        <pt x="-290" y="1217" on="0"/>
        <pt x="-357" y="1252" on="0"/>
        <pt x="-422" y="1304" on="0"/>
        <pt x="-444" y="1342" on="0"/>
        <pt x="-450" y="1384" on="1"/>
        <pt x="-450" y="1424" on="0"/>
        <pt x="-353" y="1511" on="0"/>
        <pt x="-188" y="1557" on="0"/>
        <pt x="-45" y="1557" on="1"/>
        <pt x="98" y="1557" on="0"/>
        <pt x="264" y="1511" on="0"/>
        <pt x="359" y="1424" on="0"/>
        <pt x="359" y="1384" on="1"/>
        <pt x="354" y="1350" on="0"/>
        <pt x="343" y="1331" on="1"/>
        <pt x="338" y="1319" on="0"/>
        <pt x="324" y="1299" on="1"/>
        <pt x="450" y="1299" on="1"/>
        <pt x="450" y="1202" on="1"/>
        <pt x="88" y="1202" on="1"/>
      </contour>
    </TTGlyph>
    <TTGlyph name="#7" xMin="-450" yMin="1202" xMax="450" yMax="1549">
      <contour>
        <pt x="0" y="1400" on="1"/>
        <pt x="25" y="1400" on="0"/>
        <pt x="69" y="1386" on="0"/>
        <pt x="94" y="1359" on="0"/>
        <pt x="94" y="1345" on="1"/>
        <pt x="94" y="1331" on="0"/>
        <pt x="70" y="1304" on="0"/>
        <pt x="26" y="1290" on="0"/>
        <pt x="0" y="1290" on="1"/>
        <pt x="-24" y="1290" on="0"/>
        <pt x="-68" y="1304" on="0"/>
        <pt x="-93" y="1331" on="0"/>
        <pt x="-93" y="1345" on="1"/>
        <pt x="-93" y="1359" on="0"/>
        <pt x="-68" y="1386" on="0"/>
        <pt x="-23" y="1400" on="0"/>
      </contour>
      <contour>
        <pt x="-22" y="1457" on="1"/>
        <pt x="-152" y="1457" on="0"/>
        <pt x="-228" y="1425" on="0"/>
        <pt x="-244" y="1396" on="1"/>
        <pt x="-251" y="1385" on="0"/>
        <pt x="-251" y="1376" on="1"/>
        <pt x="-251" y="1360" on="0"/>
        <pt x="-234" y="1346" on="1"/>
        <pt x="-207" y="1326" on="0"/>
        <pt x="-145" y="1282" on="1"/>
        <pt x="-205" y="1202" on="1"/>
        <pt x="-211" y="1203" on="0"/>
        <pt x="-219" y="1203" on="1"/>
        <pt x="-273" y="1224" on="0"/>
        <pt x="-347" y="1259" on="0"/>
        <pt x="-420" y="1310" on="0"/>
        <pt x="-444" y="1346" on="0"/>
        <pt x="-450" y="1380" on="1"/>
        <pt x="-450" y="1419" on="0"/>
        <pt x="-343" y="1512" on="0"/>
        <pt x="-159" y="1549" on="0"/>
        <pt x="0" y="1549" on="1"/>
        <pt x="160" y="1549" on="0"/>
        <pt x="344" y="1512" on="0"/>
        <pt x="450" y="1419" on="0"/>
        <pt x="450" y="1380" on="1"/>
        <pt x="445" y="1346" on="0"/>
        <pt x="421" y="1310" on="0"/>
        <pt x="348" y="1251" on="0"/>
        <pt x="274" y="1217" on="0"/>
        <pt x="220" y="1203" on="1"/>
        <pt x="213" y="1202" on="0"/>
        <pt x="207" y="1202" on="1"/>
        <pt x="148" y="1282" on="1"/>
        <pt x="208" y="1326" on="0"/>
        <pt x="235" y="1346" on="1"/>
        <pt x="252" y="1360" on="0"/>
        <pt x="252" y="1376" on="1"/>
        <pt x="252" y="1385" on="0"/>
        <pt x="246" y="1396" on="1"/>
        <pt x="229" y="1425" on="0"/>
        <pt x="153" y="1457" on="0"/>
        <pt x="22" y="1457" on="1"/>
      </contour>
    </TTGlyph>
    <TTGlyph name="#8" xMin="-450" yMin="1202" xMax="450" yMax="1557">
      <contour>
        <pt x="-40" y="1410" on="1"/>
        <pt x="-19" y="1410" on="0"/>
        <pt x="20" y="1396" on="0"/>
        <pt x="43" y="1370" on="0"/>
        <pt x="43" y="1357" on="1"/>
        <pt x="43" y="1344" on="0"/>
        <pt x="21" y="1317" on="0"/>
        <pt x="-18" y="1303" on="0"/>
        <pt x="-40" y="1303" on="1"/>
        <pt x="-62" y="1303" on="0"/>
        <pt x="-101" y="1317" on="0"/>
        <pt x="-123" y="1344" on="0"/>
        <pt x="-123" y="1357" on="1"/>
        <pt x="-123" y="1370" on="0"/>
        <pt x="-101" y="1396" on="0"/>
        <pt x="-61" y="1410" on="0"/>
      </contour>
      <contour>
        <pt x="88" y="1284" on="1"/>
        <pt x="137" y="1328" on="0"/>
        <pt x="161" y="1350" on="1"/>
        <pt x="176" y="1362" on="0"/>
        <pt x="176" y="1379" on="1"/>
        <pt x="176" y="1389" on="0"/>
        <pt x="170" y="1400" on="1"/>
        <pt x="155" y="1429" on="0"/>
        <pt x="90" y="1464" on="0"/>
        <pt x="-35" y="1464" on="1"/>
        <pt x="-55" y="1464" on="1"/>
        <pt x="-179" y="1464" on="0"/>
        <pt x="-244" y="1429" on="0"/>
        <pt x="-259" y="1400" on="1"/>
        <pt x="-265" y="1389" on="0"/>
        <pt x="-265" y="1379" on="1"/>
        <pt x="-265" y="1362" on="0"/>
        <pt x="-250" y="1350" on="1"/>
        <pt x="-226" y="1328" on="0"/>
        <pt x="-176" y="1284" on="1"/>
        <pt x="-228" y="1202" on="1"/>
        <pt x="-235" y="1203" on="0"/>
        <pt x="-242" y="1203" on="1"/>
        <pt x="-290" y="1217" on="0"/>
        <pt x="-357" y="1252" on="0"/>
        <pt x="-422" y="1304" on="0"/>
        <pt x="-444" y="1342" on="0"/>
        <pt x="-450" y="1384" on="1"/>
        <pt x="-450" y="1424" on="0"/>
        <pt x="-353" y="1511" on="0"/>
        <pt x="-188" y="1557" on="0"/>
        <pt x="-45" y="1557" on="1"/>
        <pt x="98" y="1557" on="0"/>
        <pt x="264" y="1511" on="0"/>
        <pt x="359" y="1424" on="0"/>
        <pt x="359" y="1384" on="1"/>
        <pt x="354" y="1350" on="0"/>
        <pt x="343" y="1331" on="1"/>
        <pt x="338" y="1319" on="0"/>
        <pt x="324" y="1299" on="1"/>
        <pt x="450" y="1299" on="1"/>
        <pt x="450" y="1202" on="1"/>
        <pt x="88" y="1202" on="1"/>
      </contour>
    </TTGlyph>
    <TTGlyph name="#9" xMin="-469" yMin="1240" xMax="469" yMax="1674">
      <contour>
        <pt x="-275" y="1580" on="0"/>
        <pt x="-306" y="1562" on="0"/>
        <pt x="-323" y="1531" on="0"/>
        <pt x="-323" y="1514" on="1"/>
        <pt x="-323" y="1497" on="0"/>
        <pt x="-307" y="1466" on="0"/>
        <pt x="-276" y="1450" on="0"/>
        <pt x="-259" y="1450" on="1"/>
        <pt x="-242" y="1450" on="0"/>
        <pt x="-211" y="1466" on="0"/>
        <pt x="-193" y="1497" on="0"/>
        <pt x="-193" y="1514" on="1"/>
        <pt x="-193" y="1531" on="0"/>
        <pt x="-212" y="1562" on="0"/>
        <pt x="-243" y="1580" on="0"/>
        <pt x="-259" y="1580" on="1"/>
      </contour>
      <contour>
        <pt x="-103" y="1374" on="0"/>
        <pt x="-19" y="1374" on="1"/>
        <pt x="57" y="1374" on="0"/>
        <pt x="165" y="1505" on="0"/>
        <pt x="181" y="1654" on="1"/>
        <pt x="469" y="1654" on="1"/>
        <pt x="442" y="1433" on="0"/>
        <pt x="136" y="1240" on="0"/>
        <pt x="-69" y="1240" on="1"/>
        <pt x="-239" y="1240" on="0"/>
        <pt x="-469" y="1377" on="0"/>
        <pt x="-469" y="1514" on="1"/>
        <pt x="-469" y="1556" on="0"/>
        <pt x="-426" y="1633" on="0"/>
        <pt x="-350" y="1674" on="0"/>
        <pt x="-259" y="1674" on="1"/>
        <pt x="-219" y="1674" on="0"/>
        <pt x="-142" y="1633" on="0"/>
        <pt x="-99" y="1556" on="0"/>
        <pt x="-99" y="1514" on="1"/>
        <pt x="-99" y="1472" on="0"/>
        <pt x="-120" y="1434" on="1"/>
      </contour>
    </TTGlyph>
    <TTGlyph name="ampersand" xMin="133" yMin="934" xMax="412" yMax="1462">
      <contour>
        <pt x="412" y="1462" on="1"/>
        <pt x="371" y="934" on="1"/>
        <pt x="174" y="934" on="1"/>
        <pt x="133" y="1462" on="1"/>
      </contour>
    </TTGlyph>
    <TTGlyph name="asterisk" xMin="88" yMin="248" xMax="1040" yMax="1200">
      <contour>
        <pt x="455" y="612" on="1"/>
        <pt x="88" y="612" on="1"/>
        <pt x="88" y="831" on="1"/>
        <pt x="455" y="831" on="1"/>
        <pt x="455" y="1200" on="1"/>
        <pt x="674" y="1200" on="1"/>
        <pt x="674" y="831" on="1"/>
        <pt x="1040" y="831" on="1"/>
        <pt x="1040" y="612" on="1"/>
        <pt x="674" y="612" on="1"/>
        <pt x="674" y="248" on="1"/>
        <pt x="455" y="248" on="1"/>
      </contour>
    </TTGlyph>
    <TTGlyph name="at" xMin="102" yMin="-154" xMax="1673" yMax="1481">
      <contour>
        <pt x="1673" y="752" on="1"/>
        <pt x="1673" y="657" on="0"/>
        <pt x="1628" y="471" on="0"/>
        <pt x="1536" y="324" on="0"/>
        <pt x="1397" y="233" on="0"/>
        <pt x="1303" y="233" on="1"/>
        <pt x="1265" y="233" on="0"/>
        <pt x="1198" y="252" on="0"/>
        <pt x="1142" y="287" on="0"/>
        <pt x="1101" y="334" on="0"/>
        <pt x="1090" y="362" on="1"/>
        <pt x="1075" y="362" on="1"/>
        <pt x="1056" y="337" on="0"/>
        <pt x="1006" y="290" on="0"/>
        <pt x="944" y="254" on="0"/>
        <pt x="869" y="233" on="0"/>
        <pt x="825" y="233" on="1"/>
        <pt x="742" y="233" on="0"/>
        <pt x="613" y="290" on="0"/>
        <pt x="525" y="395" on="0"/>
        <pt x="479" y="542" on="0"/>
        <pt x="479" y="631" on="1"/>
        <pt x="479" y="734" on="0"/>
        <pt x="541" y="906" on="0"/>
        <pt x="657" y="1031" on="0"/>
        <pt x="823" y="1100" on="0"/>
        <pt x="926" y="1100" on="1"/>
        <pt x="971" y="1100" on="0"/>
        <pt x="1067" y="1090" on="0"/>
        <pt x="1156" y="1074" on="0"/>
        <pt x="1234" y="1054" on="0"/>
        <pt x="1262" y="1044" on="1"/>
        <pt x="1241" y="625" on="1"/>
        <pt x="1239" y="603" on="0"/>
        <pt x="1239" y="582" on="1"/>
        <pt x="1239" y="555" on="1"/>
        <pt x="1239" y="513" on="0"/>
        <pt x="1252" y="459" on="0"/>
        <pt x="1273" y="428" on="0"/>
        <pt x="1300" y="416" on="0"/>
        <pt x="1315" y="416" on="1"/>
        <pt x="1350" y="416" on="0"/>
        <pt x="1402" y="470" on="0"/>
        <pt x="1436" y="562" on="0"/>
        <pt x="1454" y="685" on="0"/>
        <pt x="1454" y="754" on="1"/>
        <pt x="1454" y="882" on="0"/>
        <pt x="1378" y="1082" on="0"/>
        <pt x="1243" y="1220" on="0"/>
        <pt x="1057" y="1292" on="0"/>
        <pt x="948" y="1292" on="1"/>
        <pt x="795" y="1292" on="0"/>
        <pt x="562" y="1190" on="0"/>
        <pt x="405" y="1007" on="0"/>
        <pt x="324" y="757" on="0"/>
        <pt x="324" y="608" on="1"/>
        <pt x="324" y="470" on="0"/>
        <pt x="394" y="257" on="0"/>
        <pt x="532" y="112" on="0"/>
        <pt x="734" y="37" on="0"/>
        <pt x="866" y="37" on="1"/>
        <pt x="922" y="37" on="0"/>
        <pt x="1040" y="51" on="0"/>
        <pt x="1157" y="75" on="0"/>
        <pt x="1270" y="109" on="0"/>
        <pt x="1321" y="129" on="1"/>
        <pt x="1321" y="-63" on="1"/>
        <pt x="1227" y="-105" on="0"/>
        <pt x="998" y="-154" on="0"/>
        <pt x="868" y="-154" on="1"/>
        <pt x="687" y="-154" on="0"/>
        <pt x="402" y="-51" on="0"/>
        <pt x="206" y="143" on="0"/>
        <pt x="102" y="424" on="0"/>
        <pt x="102" y="602" on="1"/>
        <pt x="102" y="726" on="0"/>
        <pt x="156" y="953" on="0"/>
        <pt x="258" y="1148" on="0"/>
        <pt x="405" y="1307" on="0"/>
        <pt x="593" y="1420" on="0"/>
        <pt x="819" y="1481" on="0"/>
        <pt x="948" y="1481" on="1"/>
        <pt x="1106" y="1481" on="0"/>
        <pt x="1372" y="1380" on="0"/>
        <pt x="1565" y="1191" on="0"/>
        <pt x="1673" y="921" on="0"/>
      </contour>
      <contour>
        <pt x="711" y="627" on="1"/>
        <pt x="711" y="515" on="0"/>
        <pt x="787" y="416" on="0"/>
        <pt x="850" y="416" on="1"/>
        <pt x="892" y="416" on="0"/>
        <pt x="953" y="455" on="0"/>
        <pt x="992" y="526" on="0"/>
        <pt x="1013" y="625" on="0"/>
        <pt x="1016" y="686" on="1"/>
        <pt x="1028" y="907" on="1"/>
        <pt x="1008" y="912" on="0"/>
        <pt x="954" y="918" on="0"/>
        <pt x="926" y="918" on="1"/>
        <pt x="867" y="918" on="0"/>
        <pt x="785" y="868" on="0"/>
        <pt x="734" y="786" on="0"/>
        <pt x="711" y="681" on="0"/>
      </contour>
    </TTGlyph>
    <TTGlyph name="colon" xMin="63" yMin="-264" xMax="467" yMax="1139">
      <contour>
        <pt x="444" y="238" on="1"/>
        <pt x="459" y="215" on="1"/>
        <pt x="445" y="161" on="0"/>
        <pt x="406" y="39" on="0"/>
        <pt x="359" y="-85" on="0"/>
        <pt x="308" y="-208" on="0"/>
        <pt x="283" y="-264" on="1"/>
        <pt x="63" y="-264" on="1"/>
        <pt x="78" y="-203" on="0"/>
        <pt x="107" y="-71" on="0"/>
        <pt x="134" y="60" on="0"/>
        <pt x="156" y="185" on="0"/>
        <pt x="164" y="238" on="1"/>
      </contour>
      <contour>
        <pt x="117" y="969" on="1"/>
        <pt x="117" y="1016" on="0"/>
        <pt x="144" y="1081" on="0"/>
        <pt x="192" y="1121" on="0"/>
        <pt x="256" y="1139" on="0"/>
        <pt x="293" y="1139" on="1"/>
        <pt x="328" y="1139" on="0"/>
        <pt x="391" y="1121" on="0"/>
        <pt x="439" y="1081" on="0"/>
        <pt x="467" y="1016" on="0"/>
        <pt x="467" y="969" on="1"/>
        <pt x="467" y="924" on="0"/>
        <pt x="439" y="859" on="0"/>
        <pt x="391" y="818" on="0"/>
        <pt x="328" y="799" on="0"/>
        <pt x="293" y="799" on="1"/>
        <pt x="256" y="799" on="0"/>
        <pt x="192" y="818" on="0"/>
        <pt x="144" y="859" on="0"/>
        <pt x="117" y="924" on="0"/>
      </contour>
    </TTGlyph>
    <TTGlyph name="comma" xMin="61" yMin="424" xMax="598" yMax="674">
      <contour>
        <pt x="61" y="424" on="1"/>
        <pt x="61" y="674" on="1"/>
        <pt x="598" y="674" on="1"/>
        <pt x="598" y="424" on="1"/>
      </contour>
    </TTGlyph>
    <TTGlyph name="dollar" xMin="63" yMin="-18" xMax="1741" yMax="1483">
      <contour>
        <pt x="315" y="1024" on="1"/>
        <pt x="315" y="897" on="0"/>
        <pt x="360" y="772" on="0"/>
        <pt x="410" y="772" on="1"/>
        <pt x="459" y="772" on="0"/>
        <pt x="506" y="896" on="0"/>
        <pt x="506" y="1024" on="1"/>
        <pt x="506" y="1274" on="0"/>
        <pt x="410" y="1274" on="1"/>
        <pt x="360" y="1274" on="0"/>
        <pt x="315" y="1151" on="0"/>
      </contour>
      <contour>
        <pt x="758" y="1026" on="1"/>
        <pt x="758" y="918" on="0"/>
        <pt x="717" y="746" on="0"/>
        <pt x="631" y="628" on="0"/>
        <pt x="499" y="565" on="0"/>
        <pt x="408" y="565" on="1"/>
        <pt x="323" y="565" on="0"/>
        <pt x="194" y="628" on="0"/>
        <pt x="107" y="746" on="0"/>
        <pt x="63" y="918" on="0"/>
        <pt x="63" y="1026" on="1"/>
        <pt x="63" y="1134" on="0"/>
        <pt x="103" y="1304" on="0"/>
        <pt x="188" y="1421" on="0"/>
        <pt x="318" y="1483" on="0"/>
        <pt x="408" y="1483" on="1"/>
        <pt x="494" y="1483" on="0"/>
        <pt x="625" y="1421" on="0"/>
        <pt x="713" y="1304" on="0"/>
        <pt x="758" y="1134" on="0"/>
      </contour>
      <contour>
        <pt x="1425" y="1462" on="1"/>
        <pt x="614" y="0" on="1"/>
        <pt x="375" y="0" on="1"/>
        <pt x="1186" y="1462" on="1"/>
      </contour>
      <contour>
        <pt x="1298" y="440" on="1"/>
        <pt x="1298" y="313" on="0"/>
        <pt x="1343" y="188" on="0"/>
        <pt x="1393" y="188" on="1"/>
        <pt x="1442" y="188" on="0"/>
        <pt x="1489" y="312" on="0"/>
        <pt x="1489" y="440" on="1"/>
        <pt x="1489" y="690" on="0"/>
        <pt x="1393" y="690" on="1"/>
        <pt x="1343" y="690" on="0"/>
        <pt x="1298" y="567" on="0"/>
      </contour>
      <contour>
        <pt x="1741" y="442" on="1"/>
        <pt x="1741" y="334" on="0"/>
        <pt x="1700" y="163" on="0"/>
        <pt x="1614" y="45" on="0"/>
        <pt x="1482" y="-18" on="0"/>
        <pt x="1391" y="-18" on="1"/>
        <pt x="1306" y="-18" on="0"/>
        <pt x="1178" y="45" on="0"/>
        <pt x="1091" y="163" on="0"/>
        <pt x="1047" y="334" on="0"/>
        <pt x="1047" y="442" on="1"/>
        <pt x="1047" y="550" on="0"/>
        <pt x="1087" y="720" on="0"/>
        <pt x="1171" y="837" on="0"/>
        <pt x="1301" y="899" on="0"/>
        <pt x="1391" y="899" on="1"/>
        <pt x="1477" y="899" on="0"/>
        <pt x="1608" y="837" on="0"/>
        <pt x="1696" y="720" on="0"/>
        <pt x="1741" y="550" on="0"/>
      </contour>
    </TTGlyph>
    <TTGlyph name="eight" xMin="63" yMin="-20" xMax="1055" yMax="1479">
      <contour>
        <pt x="1055" y="838" on="1"/>
        <pt x="1055" y="733" on="0"/>
        <pt x="1032" y="524" on="0"/>
        <pt x="973" y="334" on="0"/>
        <pt x="872" y="169" on="0"/>
        <pt x="717" y="49" on="0"/>
        <pt x="500" y="-20" on="0"/>
        <pt x="354" y="-20" on="1"/>
        <pt x="333" y="-20" on="0"/>
        <pt x="283" y="-18" on="0"/>
        <pt x="232" y="-15" on="0"/>
        <pt x="184" y="-10" on="0"/>
        <pt x="166" y="-6" on="1"/>
        <pt x="166" y="242" on="1"/>
        <pt x="203" y="232" on="0"/>
        <pt x="288" y="221" on="0"/>
        <pt x="332" y="221" on="1"/>
        <pt x="467" y="221" on="0"/>
        <pt x="641" y="288" on="0"/>
        <pt x="743" y="409" on="0"/>
        <pt x="786" y="577" on="0"/>
        <pt x="791" y="678" on="1"/>
        <pt x="778" y="678" on="1"/>
        <pt x="758" y="642" on="0"/>
        <pt x="702" y="580" on="0"/>
        <pt x="626" y="534" on="0"/>
        <pt x="530" y="508" on="0"/>
        <pt x="471" y="508" on="1"/>
        <pt x="376" y="508" on="0"/>
        <pt x="224" y="570" on="0"/>
        <pt x="119" y="688" on="0"/>
        <pt x="63" y="860" on="0"/>
        <pt x="63" y="971" on="1"/>
        <pt x="63" y="1090" on="0"/>
        <pt x="130" y="1278" on="0"/>
        <pt x="254" y="1409" on="0"/>
        <pt x="431" y="1479" on="0"/>
        <pt x="541" y="1479" on="1"/>
        <pt x="649" y="1479" on="0"/>
        <pt x="837" y="1402" on="0"/>
        <pt x="975" y="1244" on="0"/>
        <pt x="1055" y="1002" on="0"/>
      </contour>
      <contour>
        <pt x="547" y="1231" on="1"/>
        <pt x="506" y="1231" on="0"/>
        <pt x="438" y="1201" on="0"/>
        <pt x="389" y="1138" on="0"/>
        <pt x="362" y="1041" on="0"/>
        <pt x="362" y="975" on="1"/>
        <pt x="362" y="869" on="0"/>
        <pt x="452" y="745" on="0"/>
        <pt x="543" y="745" on="1"/>
        <pt x="589" y="745" on="0"/>
        <pt x="665" y="781" on="0"/>
        <pt x="719" y="839" on="0"/>
        <pt x="748" y="911" on="0"/>
        <pt x="748" y="948" on="1"/>
        <pt x="748" y="999" on="0"/>
        <pt x="723" y="1100" on="0"/>
        <pt x="672" y="1181" on="0"/>
        <pt x="597" y="1231" on="0"/>
      </contour>
    </TTGlyph>
    <TTGlyph name="equal" xMin="88" yMin="418" xMax="1040" yMax="1024">
      <contour>
        <pt x="88" y="807" on="1"/>
        <pt x="88" y="1024" on="1"/>
        <pt x="1040" y="1024" on="1"/>
        <pt x="1040" y="807" on="1"/>
      </contour>
      <contour>
        <pt x="88" y="418" on="1"/>
        <pt x="88" y="637" on="1"/>
        <pt x="1040" y="637" on="1"/>
        <pt x="1040" y="418" on="1"/>
      </contour>
    </TTGlyph>
    <TTGlyph name="exclam" xMin="133" yMin="934" xMax="834" yMax="1462">
      <contour>
        <pt x="412" y="1462" on="1"/>
        <pt x="371" y="934" on="1"/>
        <pt x="174" y="934" on="1"/>
        <pt x="133" y="1462" on="1"/>
      </contour>
      <contour>
        <pt x="834" y="1462" on="1"/>
        <pt x="793" y="934" on="1"/>
        <pt x="596" y="934" on="1"/>
        <pt x="555" y="1462" on="1"/>
      </contour>
    </TTGlyph>
    <TTGlyph name="five" xMin="76" yMin="-20" xMax="1067" yMax="1479">
      <contour>
        <pt x="76" y="621" on="1"/>
        <pt x="76" y="726" on="0"/>
        <pt x="99" y="934" on="0"/>
        <pt x="158" y="1125" on="0"/>
        <pt x="259" y="1289" on="0"/>
        <pt x="414" y="1410" on="0"/>
        <pt x="631" y="1479" on="0"/>
        <pt x="776" y="1479" on="1"/>
        <pt x="797" y="1479" on="0"/>
        <pt x="847" y="1477" on="0"/>
        <pt x="898" y="1474" on="0"/>
        <pt x="946" y="1468" on="0"/>
        <pt x="965" y="1464" on="1"/>
        <pt x="965" y="1217" on="1"/>
        <pt x="927" y="1226" on="0"/>
        <pt x="842" y="1237" on="0"/>
        <pt x="799" y="1237" on="1"/>
        <pt x="664" y="1237" on="0"/>
        <pt x="490" y="1170" on="0"/>
        <pt x="388" y="1050" on="0"/>
        <pt x="345" y="882" on="0"/>
        <pt x="340" y="780" on="1"/>
        <pt x="352" y="780" on="1"/>
        <pt x="372" y="816" on="0"/>
        <pt x="429" y="879" on="0"/>
        <pt x="505" y="924" on="0"/>
        <pt x="600" y="950" on="0"/>
        <pt x="659" y="950" on="1"/>
        <pt x="754" y="950" on="0"/>
        <pt x="906" y="888" on="0"/>
        <pt x="1011" y="770" on="0"/>
        <pt x="1067" y="598" on="0"/>
        <pt x="1067" y="487" on="1"/>
        <pt x="1067" y="368" on="0"/>
        <pt x="1000" y="180" on="0"/>
        <pt x="876" y="49" on="0"/>
        <pt x="700" y="-20" on="0"/>
        <pt x="590" y="-20" on="1"/>
        <pt x="482" y="-20" on="0"/>
        <pt x="294" y="57" on="0"/>
        <pt x="155" y="215" on="0"/>
        <pt x="76" y="456" on="0"/>
      </contour>
      <contour>
        <pt x="584" y="227" on="1"/>
        <pt x="625" y="227" on="0"/>
        <pt x="692" y="258" on="0"/>
        <pt x="741" y="321" on="0"/>
        <pt x="768" y="417" on="0"/>
        <pt x="768" y="483" on="1"/>
        <pt x="768" y="590" on="0"/>
        <pt x="679" y="713" on="0"/>
        <pt x="588" y="713" on="1"/>
        <pt x="542" y="713" on="0"/>
        <pt x="466" y="677" on="0"/>
        <pt x="412" y="619" on="0"/>
        <pt x="383" y="547" on="0"/>
        <pt x="383" y="510" on="1"/>
        <pt x="383" y="459" on="0"/>
        <pt x="408" y="358" on="0"/>
        <pt x="459" y="277" on="0"/>
        <pt x="534" y="227" on="0"/>
      </contour>
    </TTGlyph>
    <TTGlyph name="four" xMin="86" yMin="-20" xMax="1042" yMax="1462">
      <contour>
        <pt x="598" y="934" on="1"/>
        <pt x="692" y="934" on="0"/>
        <pt x="854" y="876" on="0"/>
        <pt x="974" y="764" on="0"/>
        <pt x="1042" y="597" on="0"/>
        <pt x="1042" y="489" on="1"/>
        <pt x="1042" y="370" on="0"/>
        <pt x="968" y="181" on="0"/>
        <pt x="824" y="50" on="0"/>
        <pt x="611" y="-20" on="0"/>
        <pt x="473" y="-20" on="1"/>
        <pt x="418" y="-20" on="0"/>
        <pt x="310" y="-10" on="0"/>
        <pt x="211" y="9" on="0"/>
        <pt x="122" y="39" on="0"/>
        <pt x="86" y="59" on="1"/>
        <pt x="86" y="326" on="1"/>
        <pt x="121" y="306" on="0"/>
        <pt x="213" y="271" on="0"/>
        <pt x="312" y="246" on="0"/>
        <pt x="412" y="231" on="0"/>
        <pt x="457" y="231" on="1"/>
        <pt x="591" y="231" on="0"/>
        <pt x="731" y="342" on="0"/>
        <pt x="731" y="463" on="1"/>
        <pt x="731" y="571" on="0"/>
        <pt x="594" y="684" on="0"/>
        <pt x="451" y="684" on="1"/>
        <pt x="425" y="684" on="0"/>
        <pt x="366" y="678" on="0"/>
        <pt x="309" y="668" on="0"/>
        <pt x="257" y="657" on="0"/>
        <pt x="238" y="651" on="1"/>
        <pt x="115" y="717" on="1"/>
        <pt x="170" y="1462" on="1"/>
        <pt x="942" y="1462" on="1"/>
        <pt x="942" y="1200" on="1"/>
        <pt x="438" y="1200" on="1"/>
        <pt x="414" y="913" on="1"/>
        <pt x="446" y="920" on="0"/>
        <pt x="531" y="934" on="0"/>
      </contour>
    </TTGlyph>
    <TTGlyph name="greater" xMin="88" yMin="203" xMax="1040" yMax="1280">
      <contour>
        <pt x="88" y="442" on="1"/>
        <pt x="731" y="723" on="1"/>
        <pt x="88" y="1040" on="1"/>
        <pt x="88" y="1280" on="1"/>
        <pt x="1040" y="784" on="1"/>
        <pt x="1040" y="641" on="1"/>
        <pt x="88" y="203" on="1"/>
      </contour>
    </TTGlyph>
    <TTGlyph name="hyphen" xMin="117" yMin="-27" xMax="467" yMax="313">
      <contour>
        <pt x="117" y="143" on="1"/>
        <pt x="117" y="190" on="0"/>
        <pt x="144" y="255" on="0"/>
        <pt x="192" y="295" on="0"/>
        <pt x="256" y="313" on="0"/>
        <pt x="293" y="313" on="1"/>
        <pt x="328" y="313" on="0"/>
        <pt x="391" y="295" on="0"/>
        <pt x="439" y="255" on="0"/>
        <pt x="467" y="190" on="0"/>
        <pt x="467" y="143" on="1"/>
        <pt x="467" y="98" on="0"/>
        <pt x="439" y="34" on="0"/>
        <pt x="391" y="-8" on="0"/>
        <pt x="328" y="-27" on="0"/>
        <pt x="293" y="-27" on="1"/>
        <pt x="256" y="-27" on="0"/>
        <pt x="192" y="-8" on="0"/>
        <pt x="144" y="34" on="0"/>
        <pt x="117" y="98" on="0"/>
      </contour>
    </TTGlyph>
    <TTGlyph name="less" xMin="88" yMin="203" xMax="1040" yMax="1280">
      <contour>
        <pt x="1040" y="203" on="1"/>
        <pt x="88" y="641" on="1"/>
        <pt x="88" y="784" on="1"/>
        <pt x="1040" y="1280" on="1"/>
        <pt x="1040" y="1040" on="1"/>
        <pt x="397" y="723" on="1"/>
        <pt x="1040" y="442" on="1"/>
      </contour>
    </TTGlyph>
    <TTGlyph name="nine" xMin="117" yMin="-27" xMax="467" yMax="1139">
      <contour>
        <pt x="117" y="143" on="1"/>
        <pt x="117" y="190" on="0"/>
        <pt x="144" y="255" on="0"/>
        <pt x="192" y="295" on="0"/>
        <pt x="256" y="313" on="0"/>
        <pt x="293" y="313" on="1"/>
        <pt x="328" y="313" on="0"/>
        <pt x="391" y="295" on="0"/>
        <pt x="439" y="255" on="0"/>
        <pt x="467" y="190" on="0"/>
        <pt x="467" y="143" on="1"/>
        <pt x="467" y="98" on="0"/>
        <pt x="439" y="34" on="0"/>
        <pt x="391" y="-8" on="0"/>
        <pt x="328" y="-27" on="0"/>
        <pt x="293" y="-27" on="1"/>
        <pt x="256" y="-27" on="0"/>
        <pt x="192" y="-8" on="0"/>
        <pt x="144" y="34" on="0"/>
        <pt x="117" y="98" on="0"/>
      </contour>
      <contour>
        <pt x="117" y="969" on="1"/>
        <pt x="117" y="1016" on="0"/>
        <pt x="144" y="1081" on="0"/>
        <pt x="192" y="1121" on="0"/>
        <pt x="256" y="1139" on="0"/>
        <pt x="293" y="1139" on="1"/>
        <pt x="328" y="1139" on="0"/>
        <pt x="391" y="1121" on="0"/>
        <pt x="439" y="1081" on="0"/>
        <pt x="467" y="1016" on="0"/>
        <pt x="467" y="969" on="1"/>
        <pt x="467" y="924" on="0"/>
        <pt x="439" y="859" on="0"/>
        <pt x="391" y="818" on="0"/>
        <pt x="328" y="799" on="0"/>
        <pt x="293" y="799" on="1"/>
        <pt x="256" y="799" on="0"/>
        <pt x="192" y="818" on="0"/>
        <pt x="144" y="859" on="0"/>
        <pt x="117" y="924" on="0"/>
      </contour>
    </TTGlyph>
    <TTGlyph name="numbersign" xMin="98" yMin="-119" xMax="1061" yMax="1556">
      <contour>
        <pt x="1061" y="457" on="1"/>
        <pt x="1061" y="382" on="0"/>
        <pt x="1008" y="254" on="0"/>
        <pt x="903" y="158" on="0"/>
        <pt x="747" y="96" on="0"/>
        <pt x="645" y="86" on="1"/>
        <pt x="645" y="-119" on="1"/>
        <pt x="508" y="-119" on="1"/>
        <pt x="508" y="82" on="1"/>
        <pt x="442" y="84" on="0"/>
        <pt x="330" y="96" on="0"/>
        <pt x="232" y="118" on="0"/>
        <pt x="143" y="149" on="0"/>
        <pt x="100" y="168" on="1"/>
        <pt x="100" y="432" on="1"/>
        <pt x="142" y="411" on="0"/>
        <pt x="241" y="373" on="0"/>
        <pt x="347" y="342" on="0"/>
        <pt x="456" y="320" on="0"/>
        <pt x="508" y="317" on="1"/>
        <pt x="508" y="635" on="1"/>
        <pt x="500" y="638" on="0"/>
        <pt x="491" y="642" on="1"/>
        <pt x="483" y="645" on="0"/>
        <pt x="467" y="651" on="0"/>
        <pt x="461" y="653" on="1"/>
        <pt x="370" y="688" on="0"/>
        <pt x="234" y="764" on="0"/>
        <pt x="143" y="858" on="0"/>
        <pt x="98" y="972" on="0"/>
        <pt x="98" y="1044" on="1"/>
        <pt x="98" y="1119" on="0"/>
        <pt x="155" y="1242" on="0"/>
        <pt x="261" y="1333" on="0"/>
        <pt x="413" y="1390" on="0"/>
        <pt x="508" y="1399" on="1"/>
        <pt x="508" y="1556" on="1"/>
        <pt x="645" y="1556" on="1"/>
        <pt x="645" y="1405" on="1"/>
        <pt x="732" y="1400" on="0"/>
        <pt x="914" y="1360" on="0"/>
        <pt x="1014" y="1317" on="1"/>
        <pt x="913" y="1083" on="1"/>
        <pt x="848" y="1109" on="0"/>
        <pt x="707" y="1150" on="0"/>
        <pt x="645" y="1155" on="1"/>
        <pt x="645" y="862" on="1"/>
        <pt x="684" y="848" on="1"/>
        <pt x="779" y="813" on="0"/>
        <pt x="921" y="739" on="0"/>
        <pt x="1015" y="647" on="0"/>
        <pt x="1061" y="533" on="0"/>
      </contour>
      <contour>
        <pt x="760" y="451" on="1"/>
        <pt x="760" y="475" on="0"/>
        <pt x="747" y="511" on="0"/>
        <pt x="719" y="541" on="0"/>
        <pt x="676" y="566" on="0"/>
        <pt x="645" y="580" on="1"/>
        <pt x="645" y="328" on="1"/>
        <pt x="704" y="337" on="0"/>
        <pt x="760" y="397" on="0"/>
      </contour>
      <contour>
        <pt x="399" y="1051" on="1"/>
        <pt x="399" y="1004" on="0"/>
        <pt x="451" y="941" on="0"/>
        <pt x="508" y="920" on="1"/>
        <pt x="508" y="1153" on="1"/>
        <pt x="454" y="1147" on="0"/>
        <pt x="399" y="1099" on="0"/>
      </contour>
    </TTGlyph>
    <TTGlyph name="one" xMin="78" yMin="0" xMax="1063" yMax="1483">
      <contour>
        <pt x="1063" y="0" on="1"/>
        <pt x="82" y="0" on="1"/>
        <pt x="82" y="215" on="1"/>
        <pt x="426" y="586" on="1"/>
        <pt x="491" y="656" on="0"/>
        <pt x="597" y="774" on="0"/>
        <pt x="673" y="886" on="0"/>
        <pt x="715" y="1002" on="0"/>
        <pt x="715" y="1069" on="1"/>
        <pt x="715" y="1143" on="0"/>
        <pt x="626" y="1225" on="0"/>
        <pt x="551" y="1225" on="1"/>
        <pt x="472" y="1225" on="0"/>
        <pt x="326" y="1147" on="0"/>
        <pt x="246" y="1075" on="1"/>
        <pt x="78" y="1274" on="1"/>
        <pt x="123" y="1315" on="0"/>
        <pt x="221" y="1390" on="0"/>
        <pt x="339" y="1448" on="0"/>
        <pt x="481" y="1483" on="0"/>
        <pt x="569" y="1483" on="1"/>
        <pt x="674" y="1483" on="0"/>
        <pt x="841" y="1425" on="0"/>
        <pt x="959" y="1318" on="0"/>
        <pt x="1022" y="1166" on="0"/>
        <pt x="1022" y="1071" on="1"/>
        <pt x="1022" y="985" on="0"/>
        <pt x="962" y="828" on="0"/>
        <pt x="858" y="677" on="0"/>
        <pt x="721" y="528" on="0"/>
        <pt x="643" y="451" on="1"/>
        <pt x="467" y="274" on="1"/>
        <pt x="467" y="260" on="1"/>
        <pt x="1063" y="260" on="1"/>
      </contour>
    </TTGlyph>
    <TTGlyph name="parenleft" xMin="61" yMin="-324" xMax="612" yMax="1462">
      <contour>
        <pt x="612" y="561" on="1"/>
        <pt x="612" y="437" on="0"/>
        <pt x="576" y="197" on="0"/>
        <pt x="502" y="-28" on="0"/>
        <pt x="389" y="-234" on="0"/>
        <pt x="311" y="-324" on="1"/>
        <pt x="63" y="-324" on="1"/>
        <pt x="132" y="-230" on="0"/>
        <pt x="238" y="-18" on="0"/>
        <pt x="310" y="208" on="0"/>
        <pt x="346" y="444" on="0"/>
        <pt x="346" y="563" on="1"/>
        <pt x="346" y="807" on="0"/>
        <pt x="202" y="1269" on="0"/>
        <pt x="61" y="1462" on="1"/>
        <pt x="311" y="1462" on="1"/>
        <pt x="389" y="1369" on="0"/>
        <pt x="502" y="1158" on="0"/>
        <pt x="576" y="929" on="0"/>
        <pt x="612" y="686" on="0"/>
      </contour>
    </TTGlyph>
    <TTGlyph name="parenright" xMin="63" yMin="598" xMax="1053" yMax="1556">
      <contour>
        <pt x="688" y="1556" on="1"/>
        <pt x="647" y="1188" on="1"/>
        <pt x="1020" y="1292" on="1"/>
        <pt x="1053" y="1040" on="1"/>
        <pt x="713" y="1016" on="1"/>
        <pt x="936" y="719" on="1"/>
        <pt x="709" y="598" on="1"/>
        <pt x="553" y="911" on="1"/>
        <pt x="416" y="600" on="1"/>
        <pt x="180" y="719" on="1"/>
        <pt x="401" y="1016" on="1"/>
        <pt x="63" y="1042" on="1"/>
        <pt x="102" y="1292" on="1"/>
        <pt x="467" y="1188" on="1"/>
        <pt x="426" y="1556" on="1"/>
      </contour>
    </TTGlyph>
    <TTGlyph name="percent" xMin="82" yMin="-20" xMax="1475" yMax="1483">
      <contour>
        <pt x="1475" y="0" on="1"/>
        <pt x="1098" y="0" on="1"/>
        <pt x="1001" y="100" on="1"/>
        <pt x="921" y="45" on="0"/>
        <pt x="728" y="-20" on="0"/>
        <pt x="612" y="-20" on="1"/>
        <pt x="492" y="-20" on="0"/>
        <pt x="297" y="40" on="0"/>
        <pt x="158" y="149" on="0"/>
        <pt x="82" y="302" on="0"/>
        <pt x="82" y="395" on="1"/>
        <pt x="82" y="472" on="0"/>
        <pt x="119" y="593" on="0"/>
        <pt x="187" y="691" on="0"/>
        <pt x="284" y="771" on="0"/>
        <pt x="344" y="807" on="1"/>
        <pt x="306" y="853" on="0"/>
        <pt x="253" y="938" on="0"/>
        <pt x="221" y="1021" on="0"/>
        <pt x="207" y="1104" on="0"/>
        <pt x="207" y="1149" on="1"/>
        <pt x="207" y="1227" on="0"/>
        <pt x="268" y="1350" on="0"/>
        <pt x="377" y="1437" on="0"/>
        <pt x="528" y="1483" on="0"/>
        <pt x="618" y="1483" on="1"/>
        <pt x="704" y="1483" on="0"/>
        <pt x="849" y="1441" on="0"/>
        <pt x="954" y="1360" on="0"/>
        <pt x="1014" y="1241" on="0"/>
        <pt x="1014" y="1165" on="1"/>
        <pt x="1014" y="1096" on="0"/>
        <pt x="969" y="981" on="0"/>
        <pt x="893" y="883" on="0"/>
        <pt x="790" y="801" on="0"/>
        <pt x="731" y="766" on="1"/>
        <pt x="991" y="498" on="1"/>
        <pt x="1026" y="564" on="0"/>
        <pt x="1079" y="710" on="0"/>
        <pt x="1098" y="784" on="1"/>
        <pt x="1415" y="784" on="1"/>
        <pt x="1400" y="727" on="0"/>
        <pt x="1359" y="601" on="0"/>
        <pt x="1305" y="474" on="0"/>
        <pt x="1235" y="348" on="0"/>
        <pt x="1192" y="291" on="1"/>
      </contour>
      <contour>
        <pt x="403" y="424" on="1"/>
        <pt x="403" y="380" on="0"/>
        <pt x="435" y="310" on="0"/>
        <pt x="492" y="262" on="0"/>
        <pt x="569" y="236" on="0"/>
        <pt x="614" y="236" on="1"/>
        <pt x="674" y="236" on="0"/>
        <pt x="776" y="267" on="0"/>
        <pt x="819" y="295" on="1"/>
        <pt x="510" y="625" on="1"/>
        <pt x="459" y="583" on="0"/>
        <pt x="403" y="487" on="0"/>
      </contour>
      <contour>
        <pt x="731" y="1124" on="1"/>
        <pt x="731" y="1155" on="0"/>
        <pt x="711" y="1198" on="0"/>
        <pt x="678" y="1226" on="0"/>
        <pt x="637" y="1239" on="0"/>
        <pt x="616" y="1239" on="1"/>
        <pt x="594" y="1239" on="0"/>
        <pt x="549" y="1227" on="0"/>
        <pt x="512" y="1200" on="0"/>
        <pt x="489" y="1155" on="0"/>
        <pt x="489" y="1122" on="1"/>
        <pt x="489" y="1070" on="0"/>
        <pt x="535" y="978" on="0"/>
        <pt x="575" y="932" on="1"/>
        <pt x="652" y="976" on="0"/>
        <pt x="731" y="1064" on="0"/>
      </contour>
    </TTGlyph>
    <TTGlyph name="period" xMin="14" yMin="0" xMax="836" yMax="1462">
      <contour>
        <pt x="836" y="1462" on="1"/>
        <pt x="291" y="0" on="1"/>
        <pt x="14" y="0" on="1"/>
        <pt x="559" y="1462" on="1"/>
      </contour>
    </TTGlyph>
    <TTGlyph name="plus" xMin="63" yMin="-264" xMax="459" yMax="238">
      <contour>
        <pt x="459" y="215" on="1"/>
        <pt x="445" y="161" on="0"/>
        <pt x="406" y="39" on="0"/>
        <pt x="359" y="-85" on="0"/>
        <pt x="308" y="-208" on="0"/>
        <pt x="283" y="-264" on="1"/>
        <pt x="63" y="-264" on="1"/>
        <pt x="78" y="-203" on="0"/>
        <pt x="107" y="-71" on="0"/>
        <pt x="134" y="60" on="0"/>
        <pt x="156" y="185" on="0"/>
        <pt x="164" y="238" on="1"/>
        <pt x="444" y="238" on="1"/>
      </contour>
    </TTGlyph>
    <TTGlyph name="question" xMin="25" yMin="-27" xMax="885" yMax="1483">
      <contour>
        <pt x="264" y="485" on="1"/>
        <pt x="264" y="559" on="1"/>
        <pt x="264" y="610" on="0"/>
        <pt x="285" y="693" on="0"/>
        <pt x="328" y="768" on="0"/>
        <pt x="396" y="839" on="0"/>
        <pt x="444" y="877" on="1"/>
        <pt x="486" y="910" on="0"/>
        <pt x="544" y="962" on="0"/>
        <pt x="580" y="1013" on="0"/>
        <pt x="596" y="1069" on="0"/>
        <pt x="596" y="1106" on="1"/>
        <pt x="596" y="1163" on="0"/>
        <pt x="519" y="1237" on="0"/>
        <pt x="440" y="1237" on="1"/>
        <pt x="371" y="1237" on="0"/>
        <pt x="212" y="1179" on="0"/>
        <pt x="127" y="1137" on="1"/>
        <pt x="25" y="1358" on="1"/>
        <pt x="68" y="1383" on="0"/>
        <pt x="169" y="1428" on="0"/>
        <pt x="278" y="1463" on="0"/>
        <pt x="390" y="1483" on="0"/>
        <pt x="444" y="1483" on="1"/>
        <pt x="546" y="1483" on="0"/>
        <pt x="710" y="1434" on="0"/>
        <pt x="824" y="1340" on="0"/>
        <pt x="885" y="1206" on="0"/>
        <pt x="885" y="1120" on="1"/>
        <pt x="885" y="1057" on="0"/>
        <pt x="857" y="958" on="0"/>
        <pt x="802" y="873" on="0"/>
        <pt x="719" y="794" on="0"/>
        <pt x="664" y="750" on="1"/>
        <pt x="622" y="717" on="0"/>
        <pt x="569" y="668" on="0"/>
        <pt x="539" y="624" on="0"/>
        <pt x="528" y="577" on="0"/>
        <pt x="528" y="545" on="1"/>
        <pt x="528" y="485" on="1"/>
      </contour>
      <contour>
        <pt x="231" y="143" on="1"/>
        <pt x="231" y="190" on="0"/>
        <pt x="258" y="255" on="0"/>
        <pt x="306" y="295" on="0"/>
        <pt x="371" y="313" on="0"/>
        <pt x="408" y="313" on="1"/>
        <pt x="443" y="313" on="0"/>
        <pt x="506" y="295" on="0"/>
        <pt x="554" y="255" on="0"/>
        <pt x="582" y="190" on="0"/>
        <pt x="582" y="143" on="1"/>
        <pt x="582" y="98" on="0"/>
        <pt x="554" y="34" on="0"/>
        <pt x="506" y="-8" on="0"/>
        <pt x="443" y="-27" on="0"/>
        <pt x="408" y="-27" on="1"/>
        <pt x="371" y="-27" on="0"/>
        <pt x="306" y="-8" on="0"/>
        <pt x="258" y="34" on="0"/>
        <pt x="231" y="98" on="0"/>
      </contour>
    </TTGlyph>
    <TTGlyph name="quotedbl" xMin="45" yMin="0" xMax="1278" yMax="1460">
      <contour>
        <pt x="999" y="844" on="1"/>
        <pt x="952" y="612" on="1"/>
        <pt x="1210" y="612" on="1"/>
        <pt x="1210" y="406" on="1"/>
        <pt x="913" y="406" on="1"/>
        <pt x="836" y="0" on="1"/>
        <pt x="616" y="0" on="1"/>
        <pt x="694" y="406" on="1"/>
        <pt x="500" y="406" on="1"/>
        <pt x="424" y="0" on="1"/>
        <pt x="209" y="0" on="1"/>
        <pt x="283" y="406" on="1"/>
        <pt x="45" y="406" on="1"/>
        <pt x="45" y="612" on="1"/>
        <pt x="322" y="612" on="1"/>
        <pt x="369" y="844" on="1"/>
        <pt x="117" y="844" on="1"/>
        <pt x="117" y="1053" on="1"/>
        <pt x="406" y="1053" on="1"/>
        <pt x="483" y="1460" on="1"/>
        <pt x="702" y="1460" on="1"/>
        <pt x="625" y="1053" on="1"/>
        <pt x="823" y="1053" on="1"/>
        <pt x="901" y="1460" on="1"/>
        <pt x="1116" y="1460" on="1"/>
        <pt x="1038" y="1053" on="1"/>
        <pt x="1278" y="1053" on="1"/>
        <pt x="1278" y="844" on="1"/>
      </contour>
      <contour>
        <pt x="539" y="612" on="1"/>
        <pt x="735" y="612" on="1"/>
        <pt x="782" y="844" on="1"/>
        <pt x="586" y="844" on="1"/>
      </contour>
    </TTGlyph>
    <TTGlyph name="quotesingle" xMin="82" yMin="-324" xMax="633" yMax="1462">
      <contour>
        <pt x="82" y="561" on="1"/>
        <pt x="82" y="686" on="0"/>
        <pt x="118" y="929" on="0"/>
        <pt x="192" y="1158" on="0"/>
        <pt x="305" y="1369" on="0"/>
        <pt x="383" y="1462" on="1"/>
        <pt x="633" y="1462" on="1"/>
        <pt x="492" y="1269" on="0"/>
        <pt x="348" y="807" on="0"/>
        <pt x="348" y="563" on="1"/>
        <pt x="348" y="444" on="0"/>
        <pt x="384" y="208" on="0"/>
        <pt x="456" y="-18" on="0"/>
        <pt x="562" y="-230" on="0"/>
        <pt x="631" y="-324" on="1"/>
        <pt x="383" y="-324" on="1"/>
        <pt x="305" y="-234" on="0"/>
        <pt x="192" y="-28" on="0"/>
        <pt x="118" y="197" on="0"/>
        <pt x="82" y="437" on="0"/>
      </contour>
    </TTGlyph>
    <TTGlyph name="seven" xMin="72" yMin="-20" xMax="1057" yMax="1481">
      <contour>
        <pt x="565" y="1481" on="1"/>
        <pt x="656" y="1481" on="0"/>
        <pt x="818" y="1437" on="0"/>
        <pt x="940" y="1349" on="0"/>
        <pt x="1012" y="1217" on="0"/>
        <pt x="1012" y="1128" on="1"/>
        <pt x="1012" y="1062" on="0"/>
        <pt x="972" y="955" on="0"/>
        <pt x="902" y="868" on="0"/>
        <pt x="806" y="800" on="0"/>
        <pt x="750" y="772" on="1"/>
        <pt x="808" y="741" on="0"/>
        <pt x="919" y="665" on="0"/>
        <pt x="1005" y="570" on="0"/>
        <pt x="1057" y="452" on="0"/>
        <pt x="1057" y="379" on="1"/>
        <pt x="1057" y="288" on="0"/>
        <pt x="985" y="140" on="0"/>
        <pt x="855" y="36" on="0"/>
        <pt x="674" y="-20" on="0"/>
        <pt x="565" y="-20" on="1"/>
        <pt x="447" y="-20" on="0"/>
        <pt x="263" y="34" on="0"/>
        <pt x="137" y="134" on="0"/>
        <pt x="72" y="280" on="0"/>
        <pt x="72" y="371" on="1"/>
        <pt x="72" y="446" on="0"/>
        <pt x="116" y="566" on="0"/>
        <pt x="192" y="662" on="0"/>
        <pt x="294" y="736" on="0"/>
        <pt x="352" y="764" on="1"/>
        <pt x="303" y="795" on="0"/>
        <pt x="217" y="868" on="0"/>
        <pt x="154" y="957" on="0"/>
        <pt x="117" y="1065" on="0"/>
        <pt x="117" y="1130" on="1"/>
        <pt x="117" y="1217" on="0"/>
        <pt x="190" y="1348" on="0"/>
        <pt x="314" y="1437" on="0"/>
        <pt x="476" y="1481" on="0"/>
      </contour>
      <contour>
        <pt x="358" y="389" on="1"/>
        <pt x="358" y="349" on="0"/>
        <pt x="384" y="282" on="0"/>
        <pt x="435" y="234" on="0"/>
        <pt x="511" y="207" on="0"/>
        <pt x="561" y="207" on="1"/>
        <pt x="666" y="207" on="0"/>
        <pt x="770" y="306" on="0"/>
        <pt x="770" y="387" on="1"/>
        <pt x="770" y="429" on="0"/>
        <pt x="735" y="496" on="0"/>
        <pt x="680" y="553" on="0"/>
        <pt x="610" y="601" on="0"/>
        <pt x="575" y="623" on="1"/>
        <pt x="553" y="637" on="1"/>
        <pt x="509" y="615" on="0"/>
        <pt x="437" y="564" on="0"/>
        <pt x="386" y="503" on="0"/>
        <pt x="358" y="431" on="0"/>
      </contour>
      <contour>
        <pt x="563" y="1255" on="1"/>
        <pt x="530" y="1255" on="0"/>
        <pt x="473" y="1235" on="0"/>
        <pt x="432" y="1197" on="0"/>
        <pt x="408" y="1141" on="0"/>
        <pt x="408" y="1106" on="1"/>
        <pt x="408" y="1064" on="0"/>
        <pt x="433" y="1003" on="0"/>
        <pt x="476" y="956" on="0"/>
        <pt x="533" y="919" on="0"/>
        <pt x="565" y="901" on="1"/>
        <pt x="596" y="917" on="0"/>
        <pt x="652" y="955" on="0"/>
        <pt x="695" y="1004" on="0"/>
        <pt x="721" y="1066" on="0"/>
        <pt x="721" y="1106" on="1"/>
        <pt x="721" y="1141" on="0"/>
        <pt x="697" y="1197" on="0"/>
        <pt x="655" y="1235" on="0"/>
        <pt x="597" y="1255" on="0"/>
      </contour>
    </TTGlyph>
    <TTGlyph name="six" xMin="55" yMin="0" xMax="1063" yMax="1460">
      <contour>
        <pt x="207" y="0" on="1"/>
        <pt x="727" y="1200" on="1"/>
        <pt x="55" y="1200" on="1"/>
        <pt x="55" y="1460" on="1"/>
        <pt x="1063" y="1460" on="1"/>
        <pt x="1063" y="1266" on="1"/>
        <pt x="530" y="0" on="1"/>
      </contour>
    </TTGlyph>
    <TTGlyph name="slash" xMin="63" yMin="-20" xMax="1065" yMax="1485">
      <contour>
        <pt x="1065" y="731" on="1"/>
        <pt x="1065" y="554" on="0"/>
        <pt x="1010" y="276" on="0"/>
        <pt x="889" y="82" on="0"/>
        <pt x="698" y="-20" on="0"/>
        <pt x="563" y="-20" on="1"/>
        <pt x="436" y="-20" on="0"/>
        <pt x="248" y="82" on="0"/>
        <pt x="124" y="276" on="0"/>
        <pt x="63" y="554" on="0"/>
        <pt x="63" y="731" on="1"/>
        <pt x="63" y="908" on="0"/>
        <pt x="118" y="1188" on="0"/>
        <pt x="238" y="1382" on="0"/>
        <pt x="428" y="1485" on="0"/>
        <pt x="563" y="1485" on="1"/>
        <pt x="689" y="1485" on="0"/>
        <pt x="877" y="1383" on="0"/>
        <pt x="1003" y="1189" on="0"/>
        <pt x="1065" y="909" on="0"/>
      </contour>
      <contour>
        <pt x="371" y="731" on="1"/>
        <pt x="371" y="481" on="0"/>
        <pt x="457" y="229" on="0"/>
        <pt x="563" y="229" on="1"/>
        <pt x="667" y="229" on="0"/>
        <pt x="758" y="479" on="0"/>
        <pt x="758" y="731" on="1"/>
        <pt x="758" y="982" on="0"/>
        <pt x="667" y="1235" on="0"/>
        <pt x="563" y="1235" on="1"/>
        <pt x="510" y="1235" on="0"/>
        <pt x="437" y="1171" on="0"/>
        <pt x="391" y="1045" on="0"/>
        <pt x="371" y="856" on="0"/>
      </contour>
    </TTGlyph>
    <TTGlyph name="space" xMin="117" yMin="-27" xMax="467" yMax="1462">
      <contour>
        <pt x="416" y="485" on="1"/>
        <pt x="172" y="485" on="1"/>
        <pt x="121" y="1462" on="1"/>
        <pt x="467" y="1462" on="1"/>
      </contour>
      <contour>
        <pt x="117" y="143" on="1"/>
        <pt x="117" y="190" on="0"/>
        <pt x="144" y="255" on="0"/>
        <pt x="192" y="295" on="0"/>
        <pt x="256" y="313" on="0"/>
        <pt x="293" y="313" on="1"/>
        <pt x="328" y="313" on="0"/>
        <pt x="391" y="295" on="0"/>
        <pt x="439" y="255" on="0"/>
        <pt x="467" y="190" on="0"/>
        <pt x="467" y="143" on="1"/>
        <pt x="467" y="98" on="0"/>
        <pt x="439" y="34" on="0"/>
        <pt x="391" y="-8" on="0"/>
        <pt x="328" y="-27" on="0"/>
        <pt x="293" y="-27" on="1"/>
        <pt x="256" y="-27" on="0"/>
        <pt x="192" y="-8" on="0"/>
        <pt x="144" y="34" on="0"/>
        <pt x="117" y="98" on="0"/>
      </contour>
    </TTGlyph>
    <TTGlyph name="three" xMin="4" yMin="0" xMax="1085" yMax="1462">
      <contour>
        <pt x="1085" y="303" on="1"/>
        <pt x="909" y="303" on="1"/>
        <pt x="909" y="0" on="1"/>
        <pt x="608" y="0" on="1"/>
        <pt x="608" y="303" on="1"/>
        <pt x="4" y="303" on="1"/>
        <pt x="4" y="518" on="1"/>
        <pt x="625" y="1462" on="1"/>
        <pt x="909" y="1462" on="1"/>
        <pt x="909" y="543" on="1"/>
        <pt x="1085" y="543" on="1"/>
      </contour>
      <contour>
        <pt x="608" y="543" on="1"/>
        <pt x="608" y="791" on="1"/>
        <pt x="608" y="804" on="0"/>
        <pt x="609" y="853" on="0"/>
        <pt x="611" y="915" on="0"/>
        <pt x="614" y="981" on="0"/>
        <pt x="617" y="1041" on="0"/>
        <pt x="620" y="1086" on="0"/>
        <pt x="621" y="1096" on="1"/>
        <pt x="612" y="1096" on="1"/>
        <pt x="594" y="1054" on="0"/>
        <pt x="549" y="960" on="0"/>
        <pt x="520" y="913" on="1"/>
        <pt x="276" y="543" on="1"/>
      </contour>
    </TTGlyph>
    <TTGlyph name="two" xMin="57" yMin="-20" xMax="1049" yMax="1483">
      <contour>
        <pt x="1006" y="1135" on="1"/>
        <pt x="1006" y="1059" on="0"/>
        <pt x="957" y="938" on="0"/>
        <pt x="872" y="847" on="0"/>
        <pt x="757" y="786" on="0"/>
        <pt x="690" y="770" on="1"/>
        <pt x="690" y="764" on="1"/>
        <pt x="867" y="742" on="0"/>
        <pt x="1049" y="571" on="0"/>
        <pt x="1049" y="426" on="1"/>
        <pt x="1049" y="330" on="0"/>
        <pt x="980" y="167" on="0"/>
        <pt x="837" y="47" on="0"/>
        <pt x="620" y="-20" on="0"/>
        <pt x="473" y="-20" on="1"/>
        <pt x="355" y="-20" on="0"/>
        <pt x="147" y="19" on="0"/>
        <pt x="57" y="59" on="1"/>
        <pt x="57" y="322" on="1"/>
        <pt x="102" y="298" on="0"/>
        <pt x="202" y="262" on="0"/>
        <pt x="302" y="237" on="0"/>
        <pt x="399" y="225" on="0"/>
        <pt x="442" y="225" on="1"/>
        <pt x="528" y="225" on="0"/>
        <pt x="642" y="257" on="0"/>
        <pt x="710" y="315" on="0"/>
        <pt x="739" y="396" on="0"/>
        <pt x="739" y="444" on="1"/>
        <pt x="739" y="489" on="0"/>
        <pt x="702" y="562" on="0"/>
        <pt x="619" y="613" on="0"/>
        <pt x="485" y="641" on="0"/>
        <pt x="387" y="641" on="1"/>
        <pt x="283" y="641" on="1"/>
        <pt x="283" y="858" on="1"/>
        <pt x="385" y="858" on="1"/>
        <pt x="477" y="858" on="0"/>
        <pt x="599" y="891" on="0"/>
        <pt x="672" y="948" on="0"/>
        <pt x="702" y="1024" on="0"/>
        <pt x="702" y="1067" on="1"/>
        <pt x="702" y="1145" on="0"/>
        <pt x="605" y="1233" on="0"/>
        <pt x="500" y="1233" on="1"/>
        <pt x="452" y="1233" on="0"/>
        <pt x="369" y="1214" on="0"/>
        <pt x="298" y="1185" on="0"/>
        <pt x="239" y="1150" on="0"/>
        <pt x="215" y="1133" on="1"/>
        <pt x="59" y="1339" on="1"/>
        <pt x="101" y="1370" on="0"/>
        <pt x="200" y="1422" on="0"/>
        <pt x="316" y="1461" on="0"/>
        <pt x="450" y="1483" on="0"/>
        <pt x="526" y="1483" on="1"/>
        <pt x="634" y="1483" on="0"/>
        <pt x="811" y="1436" on="0"/>
        <pt x="937" y="1347" on="0"/>
        <pt x="1006" y="1218" on="0"/>
      </contour>
    </TTGlyph>
    <TTGlyph name="uni0E81" xMin="82" yMin="0" xMax="1278" yMax="1150">
      <contour>
        <pt x="198" y="191" on="1"/>
        <pt x="198" y="116" on="0"/>
        <pt x="273" y="116" on="1"/>
        <pt x="349" y="116" on="0"/>
        <pt x="349" y="191" on="1"/>
        <pt x="349" y="267" on="0"/>
        <pt x="273" y="267" on="1"/>
        <pt x="198" y="267" on="0"/>
      </contour>
      <contour>
        <pt x="340" y="895" on="1"/>
        <pt x="340" y="918" on="1"/>
        <pt x="340" y="1036" on="0"/>
        <pt x="268" y="1036" on="1"/>
        <pt x="198" y="1036" on="0"/>
        <pt x="198" y="965" on="1"/>
        <pt x="198" y="894" on="0"/>
        <pt x="311" y="894" on="1"/>
        <pt x="326" y="894" on="0"/>
      </contour>
      <contour>
        <pt x="494" y="0" on="0"/>
        <pt x="273" y="0" on="1"/>
        <pt x="171" y="0" on="0"/>
        <pt x="124" y="54" on="1"/>
        <pt x="82" y="102" on="0"/>
        <pt x="82" y="191" on="1"/>
        <pt x="82" y="281" on="0"/>
        <pt x="124" y="328" on="1"/>
        <pt x="172" y="382" on="0"/>
        <pt x="273" y="382" on="1"/>
        <pt x="310" y="382" on="0"/>
        <pt x="340" y="375" on="1"/>
        <pt x="340" y="780" on="1"/>
        <pt x="313" y="780" on="1"/>
        <pt x="189" y="780" on="0"/>
        <pt x="132" y="833" on="1"/>
        <pt x="82" y="879" on="0"/>
        <pt x="82" y="965" on="1"/>
        <pt x="82" y="1059" on="0"/>
        <pt x="131" y="1105" on="1"/>
        <pt x="179" y="1150" on="0"/>
        <pt x="273" y="1150" on="1"/>
        <pt x="575" y="1150" on="0"/>
        <pt x="617" y="1009" on="1"/>
        <pt x="728" y="1150" on="0"/>
        <pt x="919" y="1150" on="1"/>
        <pt x="1083" y="1150" on="0"/>
        <pt x="1172" y="1083" on="1"/>
        <pt x="1278" y="1004" on="0"/>
        <pt x="1278" y="830" on="1"/>
        <pt x="1278" y="0" on="1"/>
        <pt x="990" y="0" on="1"/>
        <pt x="990" y="830" on="1"/>
        <pt x="990" y="919" on="0"/>
        <pt x="938" y="963" on="1"/>
        <pt x="888" y="1006" on="0"/>
        <pt x="823" y="1006" on="1"/>
        <pt x="758" y="1006" on="0"/>
        <pt x="661" y="883" on="1"/>
        <pt x="628" y="835" on="1"/>
        <pt x="628" y="260" on="1"/>
        <pt x="628" y="123" on="0"/>
        <pt x="557" y="58" on="1"/>
      </contour>
    </TTGlyph>
    <TTGlyph name="uni0E81.am" xMin="82" yMin="0" xMax="1278" yMax="1653">
      <contour>
        <pt x="198" y="191" on="1"/>
        <pt x="198" y="116" on="0"/>
        <pt x="273" y="116" on="1"/>
        <pt x="349" y="116" on="0"/>
        <pt x="349" y="191" on="1"/>
        <pt x="349" y="267" on="0"/>
        <pt x="273" y="267" on="1"/>
        <pt x="198" y="267" on="0"/>
      </contour>
      <contour>
        <pt x="340" y="895" on="1"/>
        <pt x="340" y="918" on="1"/>
        <pt x="340" y="1036" on="0"/>
        <pt x="268" y="1036" on="1"/>
        <pt x="198" y="1036" on="0"/>
        <pt x="198" y="965" on="1"/>
        <pt x="198" y="894" on="0"/>
        <pt x="311" y="894" on="1"/>
        <pt x="326" y="894" on="0"/>
      </contour>
      <contour>
        <pt x="494" y="0" on="0"/>
        <pt x="273" y="0" on="1"/>
        <pt x="171" y="0" on="0"/>
        <pt x="124" y="54" on="1"/>
        <pt x="82" y="102" on="0"/>
        <pt x="82" y="191" on="1"/>
        <pt x="82" y="281" on="0"/>
        <pt x="124" y="328" on="1"/>
        <pt x="172" y="382" on="0"/>
        <pt x="273" y="382" on="1"/>
        <pt x="310" y="382" on="0"/>
        <pt x="340" y="375" on="1"/>
        <pt x="340" y="780" on="1"/>
        <pt x="313" y="780" on="1"/>
        <pt x="189" y="780" on="0"/>
        <pt x="132" y="833" on="1"/>
        <pt x="82" y="879" on="0"/>
        <pt x="82" y="965" on="1"/>
        <pt x="82" y="1059" on="0"/>
        <pt x="131" y="1105" on="1"/>
        <pt x="179" y="1150" on="0"/>
        <pt x="273" y="1150" on="1"/>
        <pt x="575" y="1150" on="0"/>
        <pt x="617" y="1009" on="1"/>
        <pt x="728" y="1150" on="0"/>
        <pt x="919" y="1150" on="1"/>
        <pt x="1083" y="1150" on="0"/>
        <pt x="1172" y="1083" on="1"/>
        <pt x="1278" y="1004" on="0"/>
        <pt x="1278" y="830" on="1"/>
        <pt x="1278" y="0" on="1"/>
        <pt x="990" y="0" on="1"/>
        <pt x="990" y="830" on="1"/>
        <pt x="990" y="919" on="0"/>
        <pt x="938" y="963" on="1"/>
        <pt x="888" y="1006" on="0"/>
        <pt x="823" y="1006" on="1"/>
        <pt x="758" y="1006" on="0"/>
        <pt x="661" y="883" on="1"/>
        <pt x="628" y="835" on="1"/>
        <pt x="628" y="260" on="1"/>
        <pt x="628" y="123" on="0"/>
        <pt x="557" y="58" on="1"/>
      </contour>
      <contour>
        <pt x="815" y="1544" on="0"/>
        <pt x="791" y="1525" on="0"/>
        <pt x="777" y="1491" on="0"/>
        <pt x="777" y="1472" on="1"/>
        <pt x="777" y="1452" on="0"/>
        <pt x="791" y="1418" on="0"/>
        <pt x="815" y="1399" on="0"/>
        <pt x="827" y="1399" on="1"/>
        <pt x="840" y="1399" on="0"/>
        <pt x="864" y="1418" on="0"/>
        <pt x="877" y="1452" on="0"/>
        <pt x="877" y="1472" on="1"/>
        <pt x="877" y="1491" on="0"/>
        <pt x="864" y="1525" on="0"/>
        <pt x="840" y="1544" on="0"/>
        <pt x="827" y="1544" on="1"/>
      </contour>
      <contour>
        <pt x="827" y="1653" on="1"/>
        <pt x="884" y="1653" on="0"/>
        <pt x="991" y="1606" on="0"/>
        <pt x="1052" y="1519" on="0"/>
        <pt x="1052" y="1472" on="1"/>
        <pt x="1052" y="1424" on="0"/>
        <pt x="994" y="1338" on="0"/>
        <pt x="886" y="1290" on="0"/>
        <pt x="827" y="1290" on="1"/>
        <pt x="770" y="1290" on="0"/>
        <pt x="662" y="1338" on="0"/>
        <pt x="602" y="1424" on="0"/>
        <pt x="602" y="1472" on="1"/>
        <pt x="602" y="1519" on="0"/>
        <pt x="663" y="1606" on="0"/>
        <pt x="771" y="1653" on="0"/>
      </contour>
    </TTGlyph>
    <TTGlyph name="uni0E82" xMin="147" yMin="-10" xMax="1147" yMax="1150">
      <contour>
        <pt x="417" y="600" on="1"/>
        <pt x="147" y="600" on="0"/>
        <pt x="147" y="861" on="1"/>
        <pt x="147" y="1150" on="0"/>
        <pt x="647" y="1150" on="1"/>
        <pt x="897" y="1150" on="0"/>
        <pt x="1147" y="986" on="0"/>
        <pt x="1147" y="821" on="1"/>
        <pt x="1147" y="670" on="0"/>
        <pt x="912" y="462" on="0"/>
        <pt x="435" y="315" on="0"/>
        <pt x="435" y="230" on="1"/>
        <pt x="435" y="144" on="0"/>
        <pt x="489" y="144" on="1"/>
        <pt x="543" y="144" on="0"/>
        <pt x="770" y="264" on="0"/>
        <pt x="872" y="264" on="1"/>
        <pt x="1023" y="264" on="0"/>
        <pt x="1147" y="77" on="1"/>
        <pt x="938" y="-10" on="1"/>
        <pt x="840" y="120" on="0"/>
        <pt x="802" y="120" on="1"/>
        <pt x="763" y="120" on="0"/>
        <pt x="593" y="0" on="0"/>
        <pt x="443" y="0" on="1"/>
        <pt x="293" y="0" on="0"/>
        <pt x="147" y="115" on="0"/>
        <pt x="147" y="230" on="1"/>
        <pt x="147" y="415" on="0"/>
        <pt x="762" y="582" on="0"/>
        <pt x="859" y="722" on="0"/>
        <pt x="859" y="821" on="1"/>
        <pt x="859" y="914" on="0"/>
        <pt x="703" y="1006" on="0"/>
        <pt x="647" y="1006" on="1"/>
        <pt x="391" y="1006" on="0"/>
        <pt x="391" y="861" on="1"/>
        <pt x="391" y="860" on="1"/>
        <pt x="410" y="884" on="0"/>
        <pt x="438" y="900" on="1"/>
        <pt x="476" y="920" on="0"/>
        <pt x="517" y="920" on="1"/>
        <pt x="627" y="920" on="0"/>
        <pt x="627" y="760" on="1"/>
        <pt x="627" y="718" on="0"/>
        <pt x="585" y="642" on="0"/>
        <pt x="509" y="600" on="0"/>
      </contour>
      <contour>
        <pt x="479" y="828" on="0"/>
        <pt x="454" y="810" on="0"/>
        <pt x="440" y="778" on="0"/>
        <pt x="440" y="760" on="1"/>
        <pt x="440" y="742" on="0"/>
        <pt x="453" y="710" on="0"/>
        <pt x="478" y="693" on="0"/>
        <pt x="492" y="693" on="1"/>
        <pt x="506" y="693" on="0"/>
        <pt x="531" y="710" on="0"/>
        <pt x="545" y="742" on="0"/>
        <pt x="545" y="760" on="1"/>
        <pt x="545" y="778" on="0"/>
        <pt x="530" y="810" on="0"/>
        <pt x="505" y="828" on="0"/>
        <pt x="492" y="828" on="1"/>
      </contour>
    </TTGlyph>
    <TTGlyph name="uni0E82.am" xMin="147" yMin="-10" xMax="1147" yMax="1663">
      <contour>
        <pt x="417" y="600" on="1"/>
        <pt x="147" y="600" on="0"/>
        <pt x="147" y="861" on="1"/>
        <pt x="147" y="1150" on="0"/>
        <pt x="647" y="1150" on="1"/>
        <pt x="897" y="1150" on="0"/>
        <pt x="1147" y="986" on="0"/>
        <pt x="1147" y="821" on="1"/>
        <pt x="1147" y="670" on="0"/>
        <pt x="912" y="462" on="0"/>
        <pt x="435" y="315" on="0"/>
        <pt x="435" y="230" on="1"/>
        <pt x="435" y="144" on="0"/>
        <pt x="489" y="144" on="1"/>
        <pt x="543" y="144" on="0"/>
        <pt x="770" y="264" on="0"/>
        <pt x="872" y="264" on="1"/>
        <pt x="1023" y="264" on="0"/>
        <pt x="1147" y="77" on="1"/>
        <pt x="938" y="-10" on="1"/>
        <pt x="840" y="120" on="0"/>
        <pt x="802" y="120" on="1"/>
        <pt x="763" y="120" on="0"/>
        <pt x="593" y="0" on="0"/>
        <pt x="443" y="0" on="1"/>
        <pt x="293" y="0" on="0"/>
        <pt x="147" y="115" on="0"/>
        <pt x="147" y="230" on="1"/>
        <pt x="147" y="415" on="0"/>
        <pt x="762" y="582" on="0"/>
        <pt x="859" y="722" on="0"/>
        <pt x="859" y="821" on="1"/>
        <pt x="859" y="914" on="0"/>
        <pt x="703" y="1006" on="0"/>
        <pt x="647" y="1006" on="1"/>
        <pt x="391" y="1006" on="0"/>
        <pt x="391" y="861" on="1"/>
        <pt x="391" y="860" on="1"/>
        <pt x="410" y="884" on="0"/>
        <pt x="438" y="900" on="1"/>
        <pt x="476" y="920" on="0"/>
        <pt x="517" y="920" on="1"/>
        <pt x="627" y="920" on="0"/>
        <pt x="627" y="760" on="1"/>
        <pt x="627" y="718" on="0"/>
        <pt x="585" y="642" on="0"/>
        <pt x="509" y="600" on="0"/>
      </contour>
      <contour>
        <pt x="479" y="828" on="0"/>
        <pt x="454" y="810" on="0"/>
        <pt x="440" y="778" on="0"/>
        <pt x="440" y="760" on="1"/>
        <pt x="440" y="742" on="0"/>
        <pt x="453" y="710" on="0"/>
        <pt x="478" y="693" on="0"/>
        <pt x="492" y="693" on="1"/>
        <pt x="506" y="693" on="0"/>
        <pt x="531" y="710" on="0"/>
        <pt x="545" y="742" on="0"/>
        <pt x="545" y="760" on="1"/>
        <pt x="545" y="778" on="0"/>
        <pt x="530" y="810" on="0"/>
        <pt x="505" y="828" on="0"/>
        <pt x="492" y="828" on="1"/>
      </contour>
      <contour>
        <pt x="635" y="1554" on="0"/>
        <pt x="611" y="1535" on="0"/>
        <pt x="597" y="1501" on="0"/>
        <pt x="597" y="1482" on="1"/>
        <pt x="597" y="1462" on="0"/>
        <pt x="611" y="1428" on="0"/>
        <pt x="635" y="1409" on="0"/>
        <pt x="647" y="1409" on="1"/>
        <pt x="660" y="1409" on="0"/>
        <pt x="684" y="1428" on="0"/>
        <pt x="697" y="1462" on="0"/>
        <pt x="697" y="1482" on="1"/>
        <pt x="697" y="1501" on="0"/>
        <pt x="684" y="1535" on="0"/>
        <pt x="660" y="1554" on="0"/>
        <pt x="647" y="1554" on="1"/>
      </contour>
      <contour>
        <pt x="647" y="1663" on="1"/>
        <pt x="704" y="1663" on="0"/>
        <pt x="811" y="1616" on="0"/>
        <pt x="872" y="1529" on="0"/>
        <pt x="872" y="1482" on="1"/>
        <pt x="872" y="1434" on="0"/>
        <pt x="814" y="1348" on="0"/>
        <pt x="706" y="1300" on="0"/>
        <pt x="647" y="1300" on="1"/>
        <pt x="590" y="1300" on="0"/>
        <pt x="482" y="1348" on="0"/>
        <pt x="422" y="1434" on="0"/>
        <pt x="422" y="1482" on="1"/>
        <pt x="422" y="1529" on="0"/>
        <pt x="483" y="1616" on="0"/>
        <pt x="591" y="1663" on="0"/>
      </contour>
    </TTGlyph>
    <TTGlyph name="uni0E84" xMin="147" yMin="0" xMax="1147" yMax="1150">
      <contour>
        <pt x="650" y="334" on="1"/>
        <pt x="697" y="286" on="0"/>
        <pt x="697" y="190" on="1"/>
        <pt x="697" y="95" on="0"/>
        <pt x="649" y="47" on="1"/>
        <pt x="602" y="0" on="0"/>
        <pt x="475" y="0" on="1"/>
        <pt x="347" y="0" on="0"/>
        <pt x="147" y="123" on="0"/>
        <pt x="147" y="295" on="1"/>
        <pt x="147" y="400" on="1"/>
        <pt x="147" y="547" on="0"/>
        <pt x="360" y="620" on="1"/>
        <pt x="147" y="686" on="0"/>
        <pt x="147" y="830" on="1"/>
        <pt x="147" y="987" on="0"/>
        <pt x="267" y="1067" on="1"/>
        <pt x="392" y="1150" on="0"/>
        <pt x="647" y="1150" on="1"/>
        <pt x="893" y="1150" on="0"/>
        <pt x="1017" y="1058" on="1"/>
        <pt x="1147" y="963" on="0"/>
        <pt x="1147" y="770" on="1"/>
        <pt x="1147" y="0" on="1"/>
        <pt x="859" y="0" on="1"/>
        <pt x="859" y="770" on="1"/>
        <pt x="859" y="897" on="0"/>
        <pt x="758" y="1006" on="0"/>
        <pt x="647" y="1006" on="1"/>
        <pt x="538" y="1006" on="0"/>
        <pt x="435" y="921" on="0"/>
        <pt x="435" y="830" on="1"/>
        <pt x="435" y="690" on="0"/>
        <pt x="597" y="690" on="1"/>
        <pt x="627" y="690" on="1"/>
        <pt x="677" y="690" on="0"/>
        <pt x="677" y="623" on="1"/>
        <pt x="677" y="556" on="0"/>
        <pt x="627" y="556" on="1"/>
        <pt x="597" y="556" on="1"/>
        <pt x="435" y="556" on="0"/>
        <pt x="435" y="400" on="1"/>
        <pt x="435" y="352" on="1"/>
        <pt x="481" y="382" on="0"/>
        <pt x="542" y="382" on="1"/>
        <pt x="602" y="382" on="0"/>
      </contour>
      <contour>
        <pt x="570" y="131" on="1"/>
        <pt x="592" y="150" on="0"/>
        <pt x="592" y="191" on="1"/>
        <pt x="592" y="227" on="0"/>
        <pt x="575" y="246" on="1"/>
        <pt x="556" y="267" on="0"/>
        <pt x="517" y="267" on="1"/>
        <pt x="441" y="267" on="0"/>
        <pt x="441" y="191" on="1"/>
        <pt x="441" y="146" on="0"/>
        <pt x="468" y="128" on="1"/>
        <pt x="486" y="116" on="0"/>
        <pt x="517" y="116" on="1"/>
        <pt x="551" y="116" on="0"/>
      </contour>
    </TTGlyph>
    <TTGlyph name="uni0E84.am" xMin="147" yMin="0" xMax="1147" yMax="1663">
      <contour>
        <pt x="650" y="334" on="1"/>
        <pt x="697" y="286" on="0"/>
        <pt x="697" y="190" on="1"/>
        <pt x="697" y="95" on="0"/>
        <pt x="649" y="47" on="1"/>
        <pt x="602" y="0" on="0"/>
        <pt x="475" y="0" on="1"/>
        <pt x="347" y="0" on="0"/>
        <pt x="147" y="123" on="0"/>
        <pt x="147" y="295" on="1"/>
        <pt x="147" y="400" on="1"/>
        <pt x="147" y="547" on="0"/>
        <pt x="360" y="620" on="1"/>
        <pt x="147" y="686" on="0"/>
        <pt x="147" y="830" on="1"/>
        <pt x="147" y="987" on="0"/>
        <pt x="267" y="1067" on="1"/>
        <pt x="392" y="1150" on="0"/>
        <pt x="647" y="1150" on="1"/>
        <pt x="893" y="1150" on="0"/>
        <pt x="1017" y="1058" on="1"/>
        <pt x="1147" y="963" on="0"/>
        <pt x="1147" y="770" on="1"/>
        <pt x="1147" y="0" on="1"/>
        <pt x="859" y="0" on="1"/>
        <pt x="859" y="770" on="1"/>
        <pt x="859" y="897" on="0"/>
        <pt x="758" y="1006" on="0"/>
        <pt x="647" y="1006" on="1"/>
        <pt x="538" y="1006" on="0"/>
        <pt x="435" y="921" on="0"/>
        <pt x="435" y="830" on="1"/>
        <pt x="435" y="690" on="0"/>
        <pt x="597" y="690" on="1"/>
        <pt x="627" y="690" on="1"/>
        <pt x="677" y="690" on="0"/>
        <pt x="677" y="623" on="1"/>
        <pt x="677" y="556" on="0"/>
        <pt x="627" y="556" on="1"/>
        <pt x="597" y="556" on="1"/>
        <pt x="435" y="556" on="0"/>
        <pt x="435" y="400" on="1"/>
        <pt x="435" y="352" on="1"/>
        <pt x="481" y="382" on="0"/>
        <pt x="542" y="382" on="1"/>
        <pt x="602" y="382" on="0"/>
      </contour>
      <contour>
        <pt x="570" y="131" on="1"/>
        <pt x="592" y="150" on="0"/>
        <pt x="592" y="191" on="1"/>
        <pt x="592" y="227" on="0"/>
        <pt x="575" y="246" on="1"/>
        <pt x="556" y="267" on="0"/>
        <pt x="517" y="267" on="1"/>
        <pt x="441" y="267" on="0"/>
        <pt x="441" y="191" on="1"/>
        <pt x="441" y="146" on="0"/>
        <pt x="468" y="128" on="1"/>
        <pt x="486" y="116" on="0"/>
        <pt x="517" y="116" on="1"/>
        <pt x="551" y="116" on="0"/>
      </contour>
      <contour>
        <pt x="635" y="1554" on="0"/>
        <pt x="611" y="1535" on="0"/>
        <pt x="597" y="1501" on="0"/>
        <pt x="597" y="1482" on="1"/>
        <pt x="597" y="1462" on="0"/>
        <pt x="611" y="1428" on="0"/>
        <pt x="635" y="1409" on="0"/>
        <pt x="647" y="1409" on="1"/>
        <pt x="660" y="1409" on="0"/>
        <pt x="684" y="1428" on="0"/>
        <pt x="697" y="1462" on="0"/>
        <pt x="697" y="1482" on="1"/>
        <pt x="697" y="1501" on="0"/>
        <pt x="684" y="1535" on="0"/>
        <pt x="660" y="1554" on="0"/>
        <pt x="647" y="1554" on="1"/>
      </contour>
      <contour>
        <pt x="647" y="1663" on="1"/>
        <pt x="704" y="1663" on="0"/>
        <pt x="811" y="1616" on="0"/>
        <pt x="872" y="1529" on="0"/>
        <pt x="872" y="1482" on="1"/>
        <pt x="872" y="1434" on="0"/>
        <pt x="814" y="1348" on="0"/>
        <pt x="706" y="1300" on="0"/>
        <pt x="647" y="1300" on="1"/>
        <pt x="590" y="1300" on="0"/>
        <pt x="482" y="1348" on="0"/>
        <pt x="422" y="1434" on="0"/>
        <pt x="422" y="1482" on="1"/>
        <pt x="422" y="1529" on="0"/>
        <pt x="483" y="1616" on="0"/>
        <pt x="591" y="1663" on="0"/>
      </contour>
    </TTGlyph>
    <TTGlyph name="uni0E87" xMin="82" yMin="-400" xMax="842" yMax="1150">
      <contour>
        <pt x="198" y="890" on="1"/>
        <pt x="198" y="816" on="0"/>
        <pt x="273" y="816" on="1"/>
        <pt x="349" y="816" on="0"/>
        <pt x="349" y="891" on="1"/>
        <pt x="349" y="967" on="0"/>
        <pt x="273" y="967" on="1"/>
        <pt x="198" y="967" on="0"/>
      </contour>
      <contour>
        <pt x="609" y="-400" on="0"/>
        <pt x="300" y="-400" on="1"/>
        <pt x="191" y="-400" on="0"/>
        <pt x="82" y="-380" on="1"/>
        <pt x="82" y="-236" on="1"/>
        <pt x="191" y="-256" on="0"/>
        <pt x="300" y="-256" on="1"/>
        <pt x="413" y="-256" on="0"/>
        <pt x="475" y="-205" on="1"/>
        <pt x="554" y="-142" on="0"/>
        <pt x="554" y="0" on="1"/>
        <pt x="554" y="770" on="1"/>
        <pt x="554" y="987" on="0"/>
        <pt x="413" y="1013" on="1"/>
        <pt x="464" y="967" on="0"/>
        <pt x="464" y="890" on="1"/>
        <pt x="464" y="700" on="0"/>
        <pt x="272" y="700" on="1"/>
        <pt x="82" y="700" on="0"/>
        <pt x="82" y="890" on="1"/>
        <pt x="82" y="1150" on="0"/>
        <pt x="417" y="1150" on="1"/>
        <pt x="842" y="1150" on="0"/>
        <pt x="842" y="770" on="1"/>
        <pt x="842" y="0" on="1"/>
        <pt x="842" y="-210" on="0"/>
      </contour>
    </TTGlyph>
    <TTGlyph name="uni0E87.am" xMin="82" yMin="-400" xMax="842" yMax="1663">
      <contour>
        <pt x="198" y="890" on="1"/>
        <pt x="198" y="816" on="0"/>
        <pt x="273" y="816" on="1"/>
        <pt x="349" y="816" on="0"/>
        <pt x="349" y="891" on="1"/>
        <pt x="349" y="967" on="0"/>
        <pt x="273" y="967" on="1"/>
        <pt x="198" y="967" on="0"/>
      </contour>
      <contour>
        <pt x="609" y="-400" on="0"/>
        <pt x="300" y="-400" on="1"/>
        <pt x="191" y="-400" on="0"/>
        <pt x="82" y="-380" on="1"/>
        <pt x="82" y="-236" on="1"/>
        <pt x="191" y="-256" on="0"/>
        <pt x="300" y="-256" on="1"/>
        <pt x="413" y="-256" on="0"/>
        <pt x="475" y="-205" on="1"/>
        <pt x="554" y="-142" on="0"/>
        <pt x="554" y="0" on="1"/>
        <pt x="554" y="770" on="1"/>
        <pt x="554" y="987" on="0"/>
        <pt x="413" y="1013" on="1"/>
        <pt x="464" y="967" on="0"/>
        <pt x="464" y="890" on="1"/>
        <pt x="464" y="700" on="0"/>
        <pt x="272" y="700" on="1"/>
        <pt x="82" y="700" on="0"/>
        <pt x="82" y="890" on="1"/>
        <pt x="82" y="1150" on="0"/>
        <pt x="417" y="1150" on="1"/>
        <pt x="842" y="1150" on="0"/>
        <pt x="842" y="770" on="1"/>
        <pt x="842" y="0" on="1"/>
        <pt x="842" y="-210" on="0"/>
      </contour>
      <contour>
        <pt x="405" y="1554" on="0"/>
        <pt x="381" y="1535" on="0"/>
        <pt x="367" y="1501" on="0"/>
        <pt x="367" y="1482" on="1"/>
        <pt x="367" y="1462" on="0"/>
        <pt x="381" y="1428" on="0"/>
        <pt x="405" y="1409" on="0"/>
        <pt x="417" y="1409" on="1"/>
        <pt x="430" y="1409" on="0"/>
        <pt x="454" y="1428" on="0"/>
        <pt x="467" y="1462" on="0"/>
        <pt x="467" y="1482" on="1"/>
        <pt x="467" y="1501" on="0"/>
        <pt x="454" y="1535" on="0"/>
        <pt x="430" y="1554" on="0"/>
        <pt x="417" y="1554" on="1"/>
      </contour>
      <contour>
        <pt x="417" y="1663" on="1"/>
        <pt x="474" y="1663" on="0"/>
        <pt x="581" y="1616" on="0"/>
        <pt x="642" y="1529" on="0"/>
        <pt x="642" y="1482" on="1"/>
        <pt x="642" y="1434" on="0"/>
        <pt x="584" y="1348" on="0"/>
        <pt x="476" y="1300" on="0"/>
        <pt x="417" y="1300" on="1"/>
        <pt x="360" y="1300" on="0"/>
        <pt x="252" y="1348" on="0"/>
        <pt x="192" y="1434" on="0"/>
        <pt x="192" y="1482" on="1"/>
        <pt x="192" y="1529" on="0"/>
        <pt x="253" y="1616" on="0"/>
        <pt x="361" y="1663" on="0"/>
      </contour>
    </TTGlyph>
    <TTGlyph name="uni0E88" xMin="82" yMin="0" xMax="1182" yMax="1150">
      <contour>
        <pt x="614" y="521" on="1"/>
        <pt x="689" y="522" on="0"/>
        <pt x="689" y="591" on="1"/>
        <pt x="689" y="658" on="0"/>
        <pt x="617" y="658" on="1"/>
        <pt x="543" y="658" on="0"/>
        <pt x="540" y="590" on="1"/>
        <pt x="540" y="585" on="1"/>
        <pt x="540" y="521" on="0"/>
        <pt x="612" y="521" on="1"/>
      </contour>
      <contour>
        <pt x="1065" y="0" on="0"/>
        <pt x="829" y="0" on="1"/>
        <pt x="653" y="0" on="0"/>
        <pt x="611" y="105" on="1"/>
        <pt x="591" y="151" on="0"/>
        <pt x="591" y="198" on="1"/>
        <pt x="591" y="253" on="0"/>
        <pt x="618" y="308" on="1"/>
        <pt x="669" y="411" on="0"/>
        <pt x="669" y="416" on="1"/>
        <pt x="648" y="397" on="0"/>
        <pt x="584" y="397" on="1"/>
        <pt x="578" y="397" on="1"/>
        <pt x="497" y="409" on="0"/>
        <pt x="455" y="456" on="1"/>
        <pt x="412" y="503" on="0"/>
        <pt x="409" y="587" on="1"/>
        <pt x="409" y="597" on="1"/>
        <pt x="409" y="673" on="0"/>
        <pt x="452" y="720" on="1"/>
        <pt x="498" y="768" on="0"/>
        <pt x="591" y="784" on="1"/>
        <pt x="596" y="784" on="1"/>
        <pt x="694" y="784" on="0"/>
        <pt x="750" y="745" on="1"/>
        <pt x="801" y="709" on="0"/>
        <pt x="814" y="640" on="1"/>
        <pt x="824" y="589" on="0"/>
        <pt x="824" y="542" on="1"/>
        <pt x="824" y="466" on="0"/>
        <pt x="797" y="403" on="1"/>
        <pt x="753" y="300" on="0"/>
        <pt x="753" y="211" on="1"/>
        <pt x="753" y="144" on="0"/>
        <pt x="829" y="144" on="1"/>
        <pt x="894" y="144" on="0"/>
        <pt x="894" y="205" on="1"/>
        <pt x="894" y="802" on="1"/>
        <pt x="894" y="909" on="0"/>
        <pt x="741" y="1006" on="0"/>
        <pt x="637" y="1006" on="1"/>
        <pt x="478" y="1006" on="0"/>
        <pt x="370" y="909" on="0"/>
        <pt x="370" y="803" on="1"/>
        <pt x="82" y="803" on="1"/>
        <pt x="82" y="976" on="0"/>
        <pt x="206" y="1063" on="1"/>
        <pt x="331" y="1150" on="0"/>
        <pt x="632" y="1150" on="1"/>
        <pt x="1182" y="1150" on="0"/>
        <pt x="1182" y="802" on="1"/>
        <pt x="1182" y="201" on="1"/>
        <pt x="1182" y="108" on="0"/>
        <pt x="1128" y="58" on="1"/>
      </contour>
    </TTGlyph>
    <TTGlyph name="uni0E88.am" xMin="82" yMin="0" xMax="1182" yMax="1653">
      <contour>
        <pt x="614" y="521" on="1"/>
        <pt x="689" y="522" on="0"/>
        <pt x="689" y="591" on="1"/>
        <pt x="689" y="658" on="0"/>
        <pt x="617" y="658" on="1"/>
        <pt x="543" y="658" on="0"/>
        <pt x="540" y="590" on="1"/>
        <pt x="540" y="585" on="1"/>
        <pt x="540" y="521" on="0"/>
        <pt x="612" y="521" on="1"/>
      </contour>
      <contour>
        <pt x="1065" y="0" on="0"/>
        <pt x="829" y="0" on="1"/>
        <pt x="653" y="0" on="0"/>
        <pt x="611" y="105" on="1"/>
        <pt x="591" y="151" on="0"/>
        <pt x="591" y="198" on="1"/>
        <pt x="591" y="253" on="0"/>
        <pt x="618" y="308" on="1"/>
        <pt x="669" y="411" on="0"/>
        <pt x="669" y="416" on="1"/>
        <pt x="648" y="397" on="0"/>
        <pt x="584" y="397" on="1"/>
        <pt x="578" y="397" on="1"/>
        <pt x="497" y="409" on="0"/>
        <pt x="455" y="456" on="1"/>
        <pt x="412" y="503" on="0"/>
        <pt x="409" y="587" on="1"/>
        <pt x="409" y="597" on="1"/>
        <pt x="409" y="673" on="0"/>
        <pt x="452" y="720" on="1"/>
        <pt x="498" y="768" on="0"/>
        <pt x="591" y="784" on="1"/>
        <pt x="596" y="784" on="1"/>
        <pt x="694" y="784" on="0"/>
        <pt x="750" y="745" on="1"/>
        <pt x="801" y="709" on="0"/>
        <pt x="814" y="640" on="1"/>
        <pt x="824" y="589" on="0"/>
        <pt x="824" y="542" on="1"/>
        <pt x="824" y="466" on="0"/>
        <pt x="797" y="403" on="1"/>
        <pt x="753" y="300" on="0"/>
        <pt x="753" y="211" on="1"/>
        <pt x="753" y="144" on="0"/>
        <pt x="829" y="144" on="1"/>
        <pt x="894" y="144" on="0"/>
        <pt x="894" y="205" on="1"/>
        <pt x="894" y="802" on="1"/>
        <pt x="894" y="909" on="0"/>
        <pt x="741" y="1006" on="0"/>
        <pt x="637" y="1006" on="1"/>
        <pt x="478" y="1006" on="0"/>
        <pt x="370" y="909" on="0"/>
        <pt x="370" y="803" on="1"/>
        <pt x="82" y="803" on="1"/>
        <pt x="82" y="976" on="0"/>
        <pt x="206" y="1063" on="1"/>
        <pt x="331" y="1150" on="0"/>
        <pt x="632" y="1150" on="1"/>
        <pt x="1182" y="1150" on="0"/>
        <pt x="1182" y="802" on="1"/>
        <pt x="1182" y="201" on="1"/>
        <pt x="1182" y="108" on="0"/>
        <pt x="1128" y="58" on="1"/>
      </contour>
      <contour>
        <pt x="635" y="1544" on="0"/>
        <pt x="611" y="1525" on="0"/>
        <pt x="597" y="1491" on="0"/>
        <pt x="597" y="1472" on="1"/>
        <pt x="597" y="1452" on="0"/>
        <pt x="611" y="1418" on="0"/>
        <pt x="635" y="1399" on="0"/>
        <pt x="647" y="1399" on="1"/>
        <pt x="660" y="1399" on="0"/>
        <pt x="684" y="1418" on="0"/>
        <pt x="697" y="1452" on="0"/>
        <pt x="697" y="1472" on="1"/>
        <pt x="697" y="1491" on="0"/>
        <pt x="684" y="1525" on="0"/>
        <pt x="660" y="1544" on="0"/>
        <pt x="647" y="1544" on="1"/>
      </contour>
      <contour>
        <pt x="647" y="1653" on="1"/>
        <pt x="704" y="1653" on="0"/>
        <pt x="811" y="1606" on="0"/>
        <pt x="872" y="1519" on="0"/>
        <pt x="872" y="1472" on="1"/>
        <pt x="872" y="1424" on="0"/>
        <pt x="814" y="1338" on="0"/>
        <pt x="706" y="1290" on="0"/>
        <pt x="647" y="1290" on="1"/>
        <pt x="590" y="1290" on="0"/>
        <pt x="482" y="1338" on="0"/>
        <pt x="422" y="1424" on="0"/>
        <pt x="422" y="1472" on="1"/>
        <pt x="422" y="1519" on="0"/>
        <pt x="483" y="1606" on="0"/>
        <pt x="591" y="1653" on="0"/>
      </contour>
    </TTGlyph>
    <TTGlyph name="uni0E8A" xMin="147" yMin="-400" xMax="1200" yMax="1150">
      <contour>
        <pt x="479" y="828" on="0"/>
        <pt x="454" y="810" on="0"/>
        <pt x="440" y="778" on="0"/>
        <pt x="440" y="760" on="1"/>
        <pt x="440" y="742" on="0"/>
        <pt x="453" y="710" on="0"/>
        <pt x="478" y="693" on="0"/>
        <pt x="492" y="693" on="1"/>
        <pt x="506" y="693" on="0"/>
        <pt x="531" y="710" on="0"/>
        <pt x="545" y="742" on="0"/>
        <pt x="545" y="760" on="1"/>
        <pt x="545" y="778" on="0"/>
        <pt x="530" y="810" on="0"/>
        <pt x="505" y="828" on="0"/>
        <pt x="492" y="828" on="1"/>
      </contour>
      <contour>
        <pt x="417" y="600" on="1"/>
        <pt x="147" y="600" on="0"/>
        <pt x="147" y="861" on="1"/>
        <pt x="147" y="1150" on="0"/>
        <pt x="647" y="1150" on="1"/>
        <pt x="897" y="1150" on="0"/>
        <pt x="1147" y="986" on="0"/>
        <pt x="1147" y="821" on="1"/>
        <pt x="1147" y="670" on="0"/>
        <pt x="912" y="462" on="0"/>
        <pt x="435" y="315" on="0"/>
        <pt x="435" y="230" on="1"/>
        <pt x="435" y="144" on="0"/>
        <pt x="489" y="144" on="1"/>
        <pt x="543" y="144" on="0"/>
        <pt x="770" y="305" on="0"/>
        <pt x="895" y="305" on="1"/>
        <pt x="1020" y="305" on="0"/>
        <pt x="1083" y="243" on="1"/>
        <pt x="1147" y="179" on="0"/>
        <pt x="1147" y="50" on="1"/>
        <pt x="1147" y="-170" on="1"/>
        <pt x="1147" y="-250" on="0"/>
        <pt x="1200" y="-310" on="1"/>
        <pt x="966" y="-400" on="1"/>
        <pt x="859" y="-300" on="0"/>
        <pt x="859" y="-190" on="1"/>
        <pt x="859" y="50" on="1"/>
        <pt x="859" y="161" on="0"/>
        <pt x="811" y="161" on="1"/>
        <pt x="763" y="161" on="0"/>
        <pt x="593" y="0" on="0"/>
        <pt x="443" y="0" on="1"/>
        <pt x="293" y="0" on="0"/>
        <pt x="147" y="115" on="0"/>
        <pt x="147" y="230" on="1"/>
        <pt x="147" y="415" on="0"/>
        <pt x="762" y="582" on="0"/>
        <pt x="859" y="722" on="0"/>
        <pt x="859" y="821" on="1"/>
        <pt x="859" y="914" on="0"/>
        <pt x="703" y="1006" on="0"/>
        <pt x="647" y="1006" on="1"/>
        <pt x="391" y="1006" on="0"/>
        <pt x="391" y="861" on="1"/>
        <pt x="391" y="860" on="1"/>
        <pt x="410" y="884" on="0"/>
        <pt x="438" y="900" on="1"/>
        <pt x="476" y="920" on="0"/>
        <pt x="517" y="920" on="1"/>
        <pt x="627" y="920" on="0"/>
        <pt x="627" y="760" on="1"/>
        <pt x="627" y="718" on="0"/>
        <pt x="585" y="642" on="0"/>
        <pt x="509" y="600" on="0"/>
      </contour>
    </TTGlyph>
    <TTGlyph name="uni0E8A.am" xMin="147" yMin="-400" xMax="1200" yMax="1663">
      <contour>
        <pt x="479" y="828" on="0"/>
        <pt x="454" y="810" on="0"/>
        <pt x="440" y="778" on="0"/>
        <pt x="440" y="760" on="1"/>
        <pt x="440" y="742" on="0"/>
        <pt x="453" y="710" on="0"/>
        <pt x="478" y="693" on="0"/>
        <pt x="492" y="693" on="1"/>
        <pt x="506" y="693" on="0"/>
        <pt x="531" y="710" on="0"/>
        <pt x="545" y="742" on="0"/>
        <pt x="545" y="760" on="1"/>
        <pt x="545" y="778" on="0"/>
        <pt x="530" y="810" on="0"/>
        <pt x="505" y="828" on="0"/>
        <pt x="492" y="828" on="1"/>
      </contour>
      <contour>
        <pt x="417" y="600" on="1"/>
        <pt x="147" y="600" on="0"/>
        <pt x="147" y="861" on="1"/>
        <pt x="147" y="1150" on="0"/>
        <pt x="647" y="1150" on="1"/>
        <pt x="897" y="1150" on="0"/>
        <pt x="1147" y="986" on="0"/>
        <pt x="1147" y="821" on="1"/>
        <pt x="1147" y="670" on="0"/>
        <pt x="912" y="462" on="0"/>
        <pt x="435" y="315" on="0"/>
        <pt x="435" y="230" on="1"/>
        <pt x="435" y="144" on="0"/>
        <pt x="489" y="144" on="1"/>
        <pt x="543" y="144" on="0"/>
        <pt x="770" y="305" on="0"/>
        <pt x="895" y="305" on="1"/>
        <pt x="1020" y="305" on="0"/>
        <pt x="1083" y="243" on="1"/>
        <pt x="1147" y="179" on="0"/>
        <pt x="1147" y="50" on="1"/>
        <pt x="1147" y="-170" on="1"/>
        <pt x="1147" y="-250" on="0"/>
        <pt x="1200" y="-310" on="1"/>
        <pt x="966" y="-400" on="1"/>
        <pt x="859" y="-300" on="0"/>
        <pt x="859" y="-190" on="1"/>
        <pt x="859" y="50" on="1"/>
        <pt x="859" y="161" on="0"/>
        <pt x="811" y="161" on="1"/>
        <pt x="763" y="161" on="0"/>
        <pt x="593" y="0" on="0"/>
        <pt x="443" y="0" on="1"/>
        <pt x="293" y="0" on="0"/>
        <pt x="147" y="115" on="0"/>
        <pt x="147" y="230" on="1"/>
        <pt x="147" y="415" on="0"/>
        <pt x="762" y="582" on="0"/>
        <pt x="859" y="722" on="0"/>
        <pt x="859" y="821" on="1"/>
        <pt x="859" y="914" on="0"/>
        <pt x="703" y="1006" on="0"/>
        <pt x="647" y="1006" on="1"/>
        <pt x="391" y="1006" on="0"/>
        <pt x="391" y="861" on="1"/>
        <pt x="391" y="860" on="1"/>
        <pt x="410" y="884" on="0"/>
        <pt x="438" y="900" on="1"/>
        <pt x="476" y="920" on="0"/>
        <pt x="517" y="920" on="1"/>
        <pt x="627" y="920" on="0"/>
        <pt x="627" y="760" on="1"/>
        <pt x="627" y="718" on="0"/>
        <pt x="585" y="642" on="0"/>
        <pt x="509" y="600" on="0"/>
      </contour>
      <contour>
        <pt x="635" y="1554" on="0"/>
        <pt x="611" y="1535" on="0"/>
        <pt x="597" y="1501" on="0"/>
        <pt x="597" y="1482" on="1"/>
        <pt x="597" y="1462" on="0"/>
        <pt x="611" y="1428" on="0"/>
        <pt x="635" y="1409" on="0"/>
        <pt x="647" y="1409" on="1"/>
        <pt x="660" y="1409" on="0"/>
        <pt x="684" y="1428" on="0"/>
        <pt x="697" y="1462" on="0"/>
        <pt x="697" y="1482" on="1"/>
        <pt x="697" y="1501" on="0"/>
        <pt x="684" y="1535" on="0"/>
        <pt x="660" y="1554" on="0"/>
        <pt x="647" y="1554" on="1"/>
      </contour>
      <contour>
        <pt x="647" y="1663" on="1"/>
        <pt x="704" y="1663" on="0"/>
        <pt x="811" y="1616" on="0"/>
        <pt x="872" y="1529" on="0"/>
        <pt x="872" y="1482" on="1"/>
        <pt x="872" y="1434" on="0"/>
        <pt x="814" y="1348" on="0"/>
        <pt x="706" y="1300" on="0"/>
        <pt x="647" y="1300" on="1"/>
        <pt x="590" y="1300" on="0"/>
        <pt x="482" y="1348" on="0"/>
        <pt x="422" y="1434" on="0"/>
        <pt x="422" y="1482" on="1"/>
        <pt x="422" y="1529" on="0"/>
        <pt x="483" y="1616" on="0"/>
        <pt x="591" y="1663" on="0"/>
      </contour>
    </TTGlyph>
    <TTGlyph name="uni0E8D" xMin="147" yMin="0" xMax="1197" yMax="1150">
      <contour>
        <pt x="602" y="768" on="0"/>
        <pt x="542" y="768" on="1"/>
        <pt x="481" y="768" on="0"/>
        <pt x="435" y="798" on="1"/>
        <pt x="435" y="750" on="1"/>
        <pt x="435" y="624" on="0"/>
        <pt x="597" y="624" on="1"/>
        <pt x="627" y="624" on="1"/>
        <pt x="677" y="624" on="0"/>
        <pt x="677" y="557" on="1"/>
        <pt x="677" y="490" on="0"/>
        <pt x="627" y="490" on="1"/>
        <pt x="597" y="490" on="1"/>
        <pt x="435" y="490" on="0"/>
        <pt x="435" y="320" on="1"/>
        <pt x="435" y="229" on="0"/>
        <pt x="538" y="144" on="0"/>
        <pt x="687" y="144" on="1"/>
        <pt x="798" y="144" on="0"/>
        <pt x="909" y="253" on="0"/>
        <pt x="909" y="380" on="1"/>
        <pt x="909" y="1150" on="1"/>
        <pt x="1197" y="1150" on="1"/>
        <pt x="1197" y="380" on="1"/>
        <pt x="1197" y="187" on="0"/>
        <pt x="943" y="0" on="0"/>
        <pt x="687" y="0" on="1"/>
        <pt x="392" y="0" on="0"/>
        <pt x="267" y="83" on="1"/>
        <pt x="147" y="163" on="0"/>
        <pt x="147" y="320" on="1"/>
        <pt x="147" y="494" on="0"/>
        <pt x="310" y="560" on="1"/>
        <pt x="147" y="633" on="0"/>
        <pt x="147" y="750" on="1"/>
        <pt x="147" y="855" on="1"/>
        <pt x="147" y="1027" on="0"/>
        <pt x="252" y="1098" on="1"/>
        <pt x="327" y="1150" on="0"/>
        <pt x="467" y="1150" on="1"/>
        <pt x="602" y="1150" on="0"/>
        <pt x="649" y="1103" on="1"/>
        <pt x="697" y="1055" on="0"/>
        <pt x="697" y="960" on="1"/>
        <pt x="697" y="864" on="0"/>
        <pt x="650" y="816" on="1"/>
      </contour>
      <contour>
        <pt x="551" y="1034" on="0"/>
        <pt x="517" y="1034" on="1"/>
        <pt x="486" y="1034" on="0"/>
        <pt x="468" y="1022" on="1"/>
        <pt x="441" y="1004" on="0"/>
        <pt x="441" y="959" on="1"/>
        <pt x="441" y="883" on="0"/>
        <pt x="517" y="883" on="1"/>
        <pt x="556" y="883" on="0"/>
        <pt x="575" y="904" on="1"/>
        <pt x="592" y="923" on="0"/>
        <pt x="592" y="959" on="1"/>
        <pt x="592" y="1000" on="0"/>
        <pt x="570" y="1019" on="1"/>
      </contour>
    </TTGlyph>
    <TTGlyph name="uni0E8D.am" xMin="147" yMin="0" xMax="1197" yMax="1663">
      <contour>
        <pt x="602" y="768" on="0"/>
        <pt x="542" y="768" on="1"/>
        <pt x="481" y="768" on="0"/>
        <pt x="435" y="798" on="1"/>
        <pt x="435" y="750" on="1"/>
        <pt x="435" y="624" on="0"/>
        <pt x="597" y="624" on="1"/>
        <pt x="627" y="624" on="1"/>
        <pt x="677" y="624" on="0"/>
        <pt x="677" y="557" on="1"/>
        <pt x="677" y="490" on="0"/>
        <pt x="627" y="490" on="1"/>
        <pt x="597" y="490" on="1"/>
        <pt x="435" y="490" on="0"/>
        <pt x="435" y="320" on="1"/>
        <pt x="435" y="229" on="0"/>
        <pt x="538" y="144" on="0"/>
        <pt x="687" y="144" on="1"/>
        <pt x="798" y="144" on="0"/>
        <pt x="909" y="253" on="0"/>
        <pt x="909" y="380" on="1"/>
        <pt x="909" y="1150" on="1"/>
        <pt x="1197" y="1150" on="1"/>
        <pt x="1197" y="380" on="1"/>
        <pt x="1197" y="187" on="0"/>
        <pt x="943" y="0" on="0"/>
        <pt x="687" y="0" on="1"/>
        <pt x="392" y="0" on="0"/>
        <pt x="267" y="83" on="1"/>
        <pt x="147" y="163" on="0"/>
        <pt x="147" y="320" on="1"/>
        <pt x="147" y="494" on="0"/>
        <pt x="310" y="560" on="1"/>
        <pt x="147" y="633" on="0"/>
        <pt x="147" y="750" on="1"/>
        <pt x="147" y="855" on="1"/>
        <pt x="147" y="1027" on="0"/>
        <pt x="252" y="1098" on="1"/>
        <pt x="327" y="1150" on="0"/>
        <pt x="467" y="1150" on="1"/>
        <pt x="602" y="1150" on="0"/>
        <pt x="649" y="1103" on="1"/>
        <pt x="697" y="1055" on="0"/>
        <pt x="697" y="960" on="1"/>
        <pt x="697" y="864" on="0"/>
        <pt x="650" y="816" on="1"/>
      </contour>
      <contour>
        <pt x="551" y="1034" on="0"/>
        <pt x="517" y="1034" on="1"/>
        <pt x="486" y="1034" on="0"/>
        <pt x="468" y="1022" on="1"/>
        <pt x="441" y="1004" on="0"/>
        <pt x="441" y="959" on="1"/>
        <pt x="441" y="883" on="0"/>
        <pt x="517" y="883" on="1"/>
        <pt x="556" y="883" on="0"/>
        <pt x="575" y="904" on="1"/>
        <pt x="592" y="923" on="0"/>
        <pt x="592" y="959" on="1"/>
        <pt x="592" y="1000" on="0"/>
        <pt x="570" y="1019" on="1"/>
      </contour>
      <contour>
        <pt x="635" y="1554" on="0"/>
        <pt x="611" y="1535" on="0"/>
        <pt x="597" y="1501" on="0"/>
        <pt x="597" y="1482" on="1"/>
        <pt x="597" y="1462" on="0"/>
        <pt x="611" y="1428" on="0"/>
        <pt x="635" y="1409" on="0"/>
        <pt x="647" y="1409" on="1"/>
        <pt x="660" y="1409" on="0"/>
        <pt x="684" y="1428" on="0"/>
        <pt x="697" y="1462" on="0"/>
        <pt x="697" y="1482" on="1"/>
        <pt x="697" y="1501" on="0"/>
        <pt x="684" y="1535" on="0"/>
        <pt x="660" y="1554" on="0"/>
        <pt x="647" y="1554" on="1"/>
      </contour>
      <contour>
        <pt x="647" y="1663" on="1"/>
        <pt x="704" y="1663" on="0"/>
        <pt x="811" y="1616" on="0"/>
        <pt x="872" y="1529" on="0"/>
        <pt x="872" y="1482" on="1"/>
        <pt x="872" y="1434" on="0"/>
        <pt x="814" y="1348" on="0"/>
        <pt x="706" y="1300" on="0"/>
        <pt x="647" y="1300" on="1"/>
        <pt x="590" y="1300" on="0"/>
        <pt x="482" y="1348" on="0"/>
        <pt x="422" y="1434" on="0"/>
        <pt x="422" y="1482" on="1"/>
        <pt x="422" y="1529" on="0"/>
        <pt x="483" y="1616" on="0"/>
        <pt x="591" y="1663" on="0"/>
      </contour>
    </TTGlyph>
    <TTGlyph name="uni0E94" xMin="168" yMin="0" xMax="1218" yMax="1150">
      <contour>
        <pt x="671" y="334" on="1"/>
        <pt x="718" y="286" on="0"/>
        <pt x="718" y="190" on="1"/>
        <pt x="718" y="95" on="0"/>
        <pt x="670" y="47" on="1"/>
        <pt x="623" y="0" on="0"/>
        <pt x="488" y="0" on="1"/>
        <pt x="348" y="0" on="0"/>
        <pt x="273" y="52" on="1"/>
        <pt x="168" y="123" on="0"/>
        <pt x="168" y="295" on="1"/>
        <pt x="168" y="770" on="1"/>
        <pt x="168" y="1150" on="0"/>
        <pt x="693" y="1150" on="1"/>
        <pt x="1218" y="1150" on="0"/>
        <pt x="1218" y="770" on="1"/>
        <pt x="1218" y="0" on="1"/>
        <pt x="930" y="0" on="1"/>
        <pt x="930" y="770" on="1"/>
        <pt x="930" y="1006" on="0"/>
        <pt x="693" y="1006" on="1"/>
        <pt x="456" y="1006" on="0"/>
        <pt x="456" y="770" on="1"/>
        <pt x="456" y="352" on="1"/>
        <pt x="502" y="382" on="0"/>
        <pt x="563" y="382" on="1"/>
        <pt x="623" y="382" on="0"/>
      </contour>
      <contour>
        <pt x="591" y="131" on="1"/>
        <pt x="613" y="150" on="0"/>
        <pt x="613" y="191" on="1"/>
        <pt x="613" y="227" on="0"/>
        <pt x="596" y="246" on="1"/>
        <pt x="577" y="267" on="0"/>
        <pt x="538" y="267" on="1"/>
        <pt x="462" y="267" on="0"/>
        <pt x="462" y="191" on="1"/>
        <pt x="462" y="146" on="0"/>
        <pt x="489" y="128" on="1"/>
        <pt x="507" y="116" on="0"/>
        <pt x="538" y="116" on="1"/>
        <pt x="572" y="116" on="0"/>
      </contour>
    </TTGlyph>
    <TTGlyph name="uni0E94.am" xMin="168" yMin="0" xMax="1218" yMax="1663">
      <contour>
        <pt x="671" y="334" on="1"/>
        <pt x="718" y="286" on="0"/>
        <pt x="718" y="190" on="1"/>
        <pt x="718" y="95" on="0"/>
        <pt x="670" y="47" on="1"/>
        <pt x="623" y="0" on="0"/>
        <pt x="488" y="0" on="1"/>
        <pt x="348" y="0" on="0"/>
        <pt x="273" y="52" on="1"/>
        <pt x="168" y="123" on="0"/>
        <pt x="168" y="295" on="1"/>
        <pt x="168" y="770" on="1"/>
        <pt x="168" y="1150" on="0"/>
        <pt x="693" y="1150" on="1"/>
        <pt x="1218" y="1150" on="0"/>
        <pt x="1218" y="770" on="1"/>
        <pt x="1218" y="0" on="1"/>
        <pt x="930" y="0" on="1"/>
        <pt x="930" y="770" on="1"/>
        <pt x="930" y="1006" on="0"/>
        <pt x="693" y="1006" on="1"/>
        <pt x="456" y="1006" on="0"/>
        <pt x="456" y="770" on="1"/>
        <pt x="456" y="352" on="1"/>
        <pt x="502" y="382" on="0"/>
        <pt x="563" y="382" on="1"/>
        <pt x="623" y="382" on="0"/>
      </contour>
      <contour>
        <pt x="591" y="131" on="1"/>
        <pt x="613" y="150" on="0"/>
        <pt x="613" y="191" on="1"/>
        <pt x="613" y="227" on="0"/>
        <pt x="596" y="246" on="1"/>
        <pt x="577" y="267" on="0"/>
        <pt x="538" y="267" on="1"/>
        <pt x="462" y="267" on="0"/>
        <pt x="462" y="191" on="1"/>
        <pt x="462" y="146" on="0"/>
        <pt x="489" y="128" on="1"/>
        <pt x="507" y="116" on="0"/>
        <pt x="538" y="116" on="1"/>
        <pt x="572" y="116" on="0"/>
      </contour>
      <contour>
        <pt x="635" y="1554" on="0"/>
        <pt x="611" y="1535" on="0"/>
        <pt x="597" y="1501" on="0"/>
        <pt x="597" y="1482" on="1"/>
        <pt x="597" y="1462" on="0"/>
        <pt x="611" y="1428" on="0"/>
        <pt x="635" y="1409" on="0"/>
        <pt x="647" y="1409" on="1"/>
        <pt x="660" y="1409" on="0"/>
        <pt x="684" y="1428" on="0"/>
        <pt x="697" y="1462" on="0"/>
        <pt x="697" y="1482" on="1"/>
        <pt x="697" y="1501" on="0"/>
        <pt x="684" y="1535" on="0"/>
        <pt x="660" y="1554" on="0"/>
        <pt x="647" y="1554" on="1"/>
      </contour>
      <contour>
        <pt x="647" y="1663" on="1"/>
        <pt x="704" y="1663" on="0"/>
        <pt x="811" y="1616" on="0"/>
        <pt x="872" y="1529" on="0"/>
        <pt x="872" y="1482" on="1"/>
        <pt x="872" y="1434" on="0"/>
        <pt x="814" y="1348" on="0"/>
        <pt x="706" y="1300" on="0"/>
        <pt x="647" y="1300" on="1"/>
        <pt x="590" y="1300" on="0"/>
        <pt x="482" y="1348" on="0"/>
        <pt x="422" y="1434" on="0"/>
        <pt x="422" y="1482" on="1"/>
        <pt x="422" y="1529" on="0"/>
        <pt x="483" y="1616" on="0"/>
        <pt x="591" y="1663" on="0"/>
      </contour>
    </TTGlyph>
    <TTGlyph name="uni0E95" xMin="168" yMin="0" xMax="1218" yMax="1150">
      <contour>
        <pt x="591" y="131" on="1"/>
        <pt x="613" y="150" on="0"/>
        <pt x="613" y="191" on="1"/>
        <pt x="613" y="227" on="0"/>
        <pt x="596" y="246" on="1"/>
        <pt x="577" y="267" on="0"/>
        <pt x="538" y="267" on="1"/>
        <pt x="462" y="267" on="0"/>
        <pt x="462" y="191" on="1"/>
        <pt x="462" y="146" on="0"/>
        <pt x="489" y="128" on="1"/>
        <pt x="507" y="116" on="0"/>
        <pt x="538" y="116" on="1"/>
        <pt x="572" y="116" on="0"/>
      </contour>
      <contour>
        <pt x="456" y="352" on="1"/>
        <pt x="502" y="382" on="0"/>
        <pt x="563" y="382" on="1"/>
        <pt x="623" y="382" on="0"/>
        <pt x="671" y="334" on="1"/>
        <pt x="718" y="286" on="0"/>
        <pt x="718" y="190" on="1"/>
        <pt x="718" y="95" on="0"/>
        <pt x="670" y="47" on="1"/>
        <pt x="623" y="0" on="0"/>
        <pt x="488" y="0" on="1"/>
        <pt x="348" y="0" on="0"/>
        <pt x="273" y="52" on="1"/>
        <pt x="168" y="123" on="0"/>
        <pt x="168" y="295" on="1"/>
        <pt x="168" y="770" on="1"/>
        <pt x="168" y="985" on="0"/>
        <pt x="352" y="1150" on="0"/>
        <pt x="475" y="1150" on="1"/>
        <pt x="602" y="1150" on="0"/>
        <pt x="693" y="1007" on="1"/>
        <pt x="784" y="1150" on="0"/>
        <pt x="911" y="1150" on="1"/>
        <pt x="1035" y="1150" on="0"/>
        <pt x="1218" y="982" on="0"/>
        <pt x="1218" y="770" on="1"/>
        <pt x="1218" y="0" on="1"/>
        <pt x="930" y="0" on="1"/>
        <pt x="930" y="770" on="1"/>
        <pt x="930" y="1006" on="0"/>
        <pt x="887" y="1006" on="1"/>
        <pt x="844" y="1006" on="0"/>
        <pt x="693" y="823" on="1"/>
        <pt x="542" y="1006" on="0"/>
        <pt x="499" y="1006" on="1"/>
        <pt x="456" y="1006" on="0"/>
        <pt x="456" y="770" on="1"/>
      </contour>
    </TTGlyph>
    <TTGlyph name="uni0E95.am" xMin="168" yMin="0" xMax="1218" yMax="1663">
      <contour>
        <pt x="591" y="131" on="1"/>
        <pt x="613" y="150" on="0"/>
        <pt x="613" y="191" on="1"/>
        <pt x="613" y="227" on="0"/>
        <pt x="596" y="246" on="1"/>
        <pt x="577" y="267" on="0"/>
        <pt x="538" y="267" on="1"/>
        <pt x="462" y="267" on="0"/>
        <pt x="462" y="191" on="1"/>
        <pt x="462" y="146" on="0"/>
        <pt x="489" y="128" on="1"/>
        <pt x="507" y="116" on="0"/>
        <pt x="538" y="116" on="1"/>
        <pt x="572" y="116" on="0"/>
      </contour>
      <contour>
        <pt x="456" y="352" on="1"/>
        <pt x="502" y="382" on="0"/>
        <pt x="563" y="382" on="1"/>
        <pt x="623" y="382" on="0"/>
        <pt x="671" y="334" on="1"/>
        <pt x="718" y="286" on="0"/>
        <pt x="718" y="190" on="1"/>
        <pt x="718" y="95" on="0"/>
        <pt x="670" y="47" on="1"/>
        <pt x="623" y="0" on="0"/>
        <pt x="488" y="0" on="1"/>
        <pt x="348" y="0" on="0"/>
        <pt x="273" y="52" on="1"/>
        <pt x="168" y="123" on="0"/>
        <pt x="168" y="295" on="1"/>
        <pt x="168" y="770" on="1"/>
        <pt x="168" y="985" on="0"/>
        <pt x="352" y="1150" on="0"/>
        <pt x="475" y="1150" on="1"/>
        <pt x="602" y="1150" on="0"/>
        <pt x="693" y="1007" on="1"/>
        <pt x="784" y="1150" on="0"/>
        <pt x="911" y="1150" on="1"/>
        <pt x="1035" y="1150" on="0"/>
        <pt x="1218" y="982" on="0"/>
        <pt x="1218" y="770" on="1"/>
        <pt x="1218" y="0" on="1"/>
        <pt x="930" y="0" on="1"/>
        <pt x="930" y="770" on="1"/>
        <pt x="930" y="1006" on="0"/>
        <pt x="887" y="1006" on="1"/>
        <pt x="844" y="1006" on="0"/>
        <pt x="693" y="823" on="1"/>
        <pt x="542" y="1006" on="0"/>
        <pt x="499" y="1006" on="1"/>
        <pt x="456" y="1006" on="0"/>
        <pt x="456" y="770" on="1"/>
      </contour>
      <contour>
        <pt x="635" y="1554" on="0"/>
        <pt x="611" y="1535" on="0"/>
        <pt x="597" y="1501" on="0"/>
        <pt x="597" y="1482" on="1"/>
        <pt x="597" y="1462" on="0"/>
        <pt x="611" y="1428" on="0"/>
        <pt x="635" y="1409" on="0"/>
        <pt x="647" y="1409" on="1"/>
        <pt x="660" y="1409" on="0"/>
        <pt x="684" y="1428" on="0"/>
        <pt x="697" y="1462" on="0"/>
        <pt x="697" y="1482" on="1"/>
        <pt x="697" y="1501" on="0"/>
        <pt x="684" y="1535" on="0"/>
        <pt x="660" y="1554" on="0"/>
        <pt x="647" y="1554" on="1"/>
      </contour>
      <contour>
        <pt x="647" y="1663" on="1"/>
        <pt x="704" y="1663" on="0"/>
        <pt x="811" y="1616" on="0"/>
        <pt x="872" y="1529" on="0"/>
        <pt x="872" y="1482" on="1"/>
        <pt x="872" y="1434" on="0"/>
        <pt x="814" y="1348" on="0"/>
        <pt x="706" y="1300" on="0"/>
        <pt x="647" y="1300" on="1"/>
        <pt x="590" y="1300" on="0"/>
        <pt x="482" y="1348" on="0"/>
        <pt x="422" y="1434" on="0"/>
        <pt x="422" y="1482" on="1"/>
        <pt x="422" y="1529" on="0"/>
        <pt x="483" y="1616" on="0"/>
        <pt x="591" y="1663" on="0"/>
      </contour>
    </TTGlyph>
    <TTGlyph name="uni0E96" xMin="82" yMin="-400" xMax="1381" yMax="1150">
      <contour>
        <pt x="695" y="267" on="1"/>
        <pt x="619" y="267" on="0"/>
        <pt x="619" y="191" on="1"/>
        <pt x="619" y="116" on="0"/>
        <pt x="695" y="116" on="1"/>
        <pt x="770" y="116" on="0"/>
        <pt x="770" y="191" on="1"/>
        <pt x="770" y="267" on="0"/>
      </contour>
      <contour>
        <pt x="340" y="895" on="1"/>
        <pt x="340" y="918" on="1"/>
        <pt x="340" y="1036" on="0"/>
        <pt x="268" y="1036" on="1"/>
        <pt x="198" y="1036" on="0"/>
        <pt x="198" y="965" on="1"/>
        <pt x="198" y="894" on="0"/>
        <pt x="311" y="894" on="1"/>
        <pt x="326" y="894" on="0"/>
      </contour>
      <contour>
        <pt x="1040" y="830" on="1"/>
        <pt x="1040" y="919" on="0"/>
        <pt x="938" y="1006" on="0"/>
        <pt x="853" y="1006" on="1"/>
        <pt x="758" y="1006" on="0"/>
        <pt x="661" y="883" on="1"/>
        <pt x="628" y="835" on="1"/>
        <pt x="628" y="375" on="1"/>
        <pt x="658" y="382" on="0"/>
        <pt x="695" y="382" on="1"/>
        <pt x="796" y="382" on="0"/>
        <pt x="844" y="328" on="1"/>
        <pt x="886" y="281" on="0"/>
        <pt x="886" y="191" on="1"/>
        <pt x="886" y="102" on="0"/>
        <pt x="844" y="54" on="1"/>
        <pt x="797" y="0" on="0"/>
        <pt x="695" y="0" on="1"/>
        <pt x="474" y="0" on="0"/>
        <pt x="411" y="58" on="1"/>
        <pt x="340" y="123" on="0"/>
        <pt x="340" y="260" on="1"/>
        <pt x="340" y="780" on="1"/>
        <pt x="313" y="780" on="1"/>
        <pt x="189" y="780" on="0"/>
        <pt x="132" y="833" on="1"/>
        <pt x="82" y="879" on="0"/>
        <pt x="82" y="965" on="1"/>
        <pt x="82" y="1059" on="0"/>
        <pt x="131" y="1105" on="1"/>
        <pt x="179" y="1150" on="0"/>
        <pt x="273" y="1150" on="1"/>
        <pt x="575" y="1150" on="0"/>
        <pt x="617" y="1009" on="1"/>
        <pt x="728" y="1150" on="0"/>
        <pt x="949" y="1150" on="1"/>
        <pt x="1133" y="1150" on="0"/>
        <pt x="1328" y="1004" on="0"/>
        <pt x="1328" y="830" on="1"/>
        <pt x="1328" y="-170" on="1"/>
        <pt x="1328" y="-250" on="0"/>
        <pt x="1381" y="-310" on="1"/>
        <pt x="1147" y="-400" on="1"/>
        <pt x="1040" y="-300" on="0"/>
        <pt x="1040" y="-190" on="1"/>
      </contour>
    </TTGlyph>
    <TTGlyph name="uni0E96.am" xMin="82" yMin="-400" xMax="1381" yMax="1663">
      <contour>
        <pt x="695" y="267" on="1"/>
        <pt x="619" y="267" on="0"/>
        <pt x="619" y="191" on="1"/>
        <pt x="619" y="116" on="0"/>
        <pt x="695" y="116" on="1"/>
        <pt x="770" y="116" on="0"/>
        <pt x="770" y="191" on="1"/>
        <pt x="770" y="267" on="0"/>
      </contour>
      <contour>
        <pt x="340" y="895" on="1"/>
        <pt x="340" y="918" on="1"/>
        <pt x="340" y="1036" on="0"/>
        <pt x="268" y="1036" on="1"/>
        <pt x="198" y="1036" on="0"/>
        <pt x="198" y="965" on="1"/>
        <pt x="198" y="894" on="0"/>
        <pt x="311" y="894" on="1"/>
        <pt x="326" y="894" on="0"/>
      </contour>
      <contour>
        <pt x="1040" y="830" on="1"/>
        <pt x="1040" y="919" on="0"/>
        <pt x="938" y="1006" on="0"/>
        <pt x="853" y="1006" on="1"/>
        <pt x="758" y="1006" on="0"/>
        <pt x="661" y="883" on="1"/>
        <pt x="628" y="835" on="1"/>
        <pt x="628" y="375" on="1"/>
        <pt x="658" y="382" on="0"/>
        <pt x="695" y="382" on="1"/>
        <pt x="796" y="382" on="0"/>
        <pt x="844" y="328" on="1"/>
        <pt x="886" y="281" on="0"/>
        <pt x="886" y="191" on="1"/>
        <pt x="886" y="102" on="0"/>
        <pt x="844" y="54" on="1"/>
        <pt x="797" y="0" on="0"/>
        <pt x="695" y="0" on="1"/>
        <pt x="474" y="0" on="0"/>
        <pt x="411" y="58" on="1"/>
        <pt x="340" y="123" on="0"/>
        <pt x="340" y="260" on="1"/>
        <pt x="340" y="780" on="1"/>
        <pt x="313" y="780" on="1"/>
        <pt x="189" y="780" on="0"/>
        <pt x="132" y="833" on="1"/>
        <pt x="82" y="879" on="0"/>
        <pt x="82" y="965" on="1"/>
        <pt x="82" y="1059" on="0"/>
        <pt x="131" y="1105" on="1"/>
        <pt x="179" y="1150" on="0"/>
        <pt x="273" y="1150" on="1"/>
        <pt x="575" y="1150" on="0"/>
        <pt x="617" y="1009" on="1"/>
        <pt x="728" y="1150" on="0"/>
        <pt x="949" y="1150" on="1"/>
        <pt x="1133" y="1150" on="0"/>
        <pt x="1328" y="1004" on="0"/>
        <pt x="1328" y="830" on="1"/>
        <pt x="1328" y="-170" on="1"/>
        <pt x="1328" y="-250" on="0"/>
        <pt x="1381" y="-310" on="1"/>
        <pt x="1147" y="-400" on="1"/>
        <pt x="1040" y="-300" on="0"/>
        <pt x="1040" y="-190" on="1"/>
      </contour>
      <contour>
        <pt x="835" y="1554" on="0"/>
        <pt x="811" y="1535" on="0"/>
        <pt x="797" y="1501" on="0"/>
        <pt x="797" y="1482" on="1"/>
        <pt x="797" y="1462" on="0"/>
        <pt x="811" y="1428" on="0"/>
        <pt x="835" y="1409" on="0"/>
        <pt x="847" y="1409" on="1"/>
        <pt x="860" y="1409" on="0"/>
        <pt x="884" y="1428" on="0"/>
        <pt x="897" y="1462" on="0"/>
        <pt x="897" y="1482" on="1"/>
        <pt x="897" y="1501" on="0"/>
        <pt x="884" y="1535" on="0"/>
        <pt x="860" y="1554" on="0"/>
        <pt x="847" y="1554" on="1"/>
      </contour>
      <contour>
        <pt x="847" y="1663" on="1"/>
        <pt x="904" y="1663" on="0"/>
        <pt x="1011" y="1616" on="0"/>
        <pt x="1072" y="1529" on="0"/>
        <pt x="1072" y="1482" on="1"/>
        <pt x="1072" y="1434" on="0"/>
        <pt x="1014" y="1348" on="0"/>
        <pt x="906" y="1300" on="0"/>
        <pt x="847" y="1300" on="1"/>
        <pt x="790" y="1300" on="0"/>
        <pt x="682" y="1348" on="0"/>
        <pt x="622" y="1434" on="0"/>
        <pt x="622" y="1482" on="1"/>
        <pt x="622" y="1529" on="0"/>
        <pt x="683" y="1616" on="0"/>
        <pt x="791" y="1663" on="0"/>
      </contour>
    </TTGlyph>
    <TTGlyph name="uni0E97" xMin="147" yMin="0" xMax="1585" yMax="1150">
      <contour>
        <pt x="317" y="905" on="1"/>
        <pt x="381" y="905" on="0"/>
        <pt x="381" y="968" on="1"/>
        <pt x="381" y="1032" on="0"/>
        <pt x="317" y="1032" on="1"/>
        <pt x="253" y="1032" on="0"/>
        <pt x="253" y="968" on="1"/>
        <pt x="253" y="905" on="0"/>
      </contour>
      <contour>
        <pt x="1171" y="1150" on="1"/>
        <pt x="1585" y="1150" on="0"/>
        <pt x="1585" y="785" on="1"/>
        <pt x="1585" y="0" on="1"/>
        <pt x="1297" y="0" on="1"/>
        <pt x="1297" y="785" on="1"/>
        <pt x="1297" y="1006" on="0"/>
        <pt x="1171" y="1006" on="1"/>
        <pt x="1045" y="1006" on="0"/>
        <pt x="1045" y="785" on="1"/>
        <pt x="1045" y="344" on="1"/>
        <pt x="1045" y="0" on="0"/>
        <pt x="596" y="0" on="1"/>
        <pt x="147" y="0" on="0"/>
        <pt x="147" y="344" on="1"/>
        <pt x="147" y="542" on="0"/>
        <pt x="263" y="697" on="1"/>
        <pt x="303" y="749" on="0"/>
        <pt x="330" y="796" on="1"/>
        <pt x="239" y="797" on="0"/>
        <pt x="147" y="883" on="0"/>
        <pt x="147" y="968" on="1"/>
        <pt x="147" y="1059" on="0"/>
        <pt x="240" y="1150" on="0"/>
        <pt x="332" y="1150" on="1"/>
        <pt x="486" y="1150" on="0"/>
        <pt x="589" y="1059" on="0"/>
        <pt x="589" y="968" on="1"/>
        <pt x="589" y="842" on="0"/>
        <pt x="435" y="498" on="0"/>
        <pt x="435" y="344" on="1"/>
        <pt x="435" y="144" on="0"/>
        <pt x="596" y="144" on="1"/>
        <pt x="757" y="144" on="0"/>
        <pt x="757" y="344" on="1"/>
        <pt x="757" y="785" on="1"/>
        <pt x="757" y="1150" on="0"/>
      </contour>
    </TTGlyph>
    <TTGlyph name="uni0E97.am" xMin="147" yMin="0" xMax="1585" yMax="1653">
      <contour>
        <pt x="317" y="905" on="1"/>
        <pt x="381" y="905" on="0"/>
        <pt x="381" y="968" on="1"/>
        <pt x="381" y="1032" on="0"/>
        <pt x="317" y="1032" on="1"/>
        <pt x="253" y="1032" on="0"/>
        <pt x="253" y="968" on="1"/>
        <pt x="253" y="905" on="0"/>
      </contour>
      <contour>
        <pt x="1171" y="1150" on="1"/>
        <pt x="1585" y="1150" on="0"/>
        <pt x="1585" y="785" on="1"/>
        <pt x="1585" y="0" on="1"/>
        <pt x="1297" y="0" on="1"/>
        <pt x="1297" y="785" on="1"/>
        <pt x="1297" y="1006" on="0"/>
        <pt x="1171" y="1006" on="1"/>
        <pt x="1045" y="1006" on="0"/>
        <pt x="1045" y="785" on="1"/>
        <pt x="1045" y="344" on="1"/>
        <pt x="1045" y="0" on="0"/>
        <pt x="596" y="0" on="1"/>
        <pt x="147" y="0" on="0"/>
        <pt x="147" y="344" on="1"/>
        <pt x="147" y="542" on="0"/>
        <pt x="263" y="697" on="1"/>
        <pt x="303" y="749" on="0"/>
        <pt x="330" y="796" on="1"/>
        <pt x="239" y="797" on="0"/>
        <pt x="147" y="883" on="0"/>
        <pt x="147" y="968" on="1"/>
        <pt x="147" y="1059" on="0"/>
        <pt x="240" y="1150" on="0"/>
        <pt x="332" y="1150" on="1"/>
        <pt x="486" y="1150" on="0"/>
        <pt x="589" y="1059" on="0"/>
        <pt x="589" y="968" on="1"/>
        <pt x="589" y="842" on="0"/>
        <pt x="435" y="498" on="0"/>
        <pt x="435" y="344" on="1"/>
        <pt x="435" y="144" on="0"/>
        <pt x="596" y="144" on="1"/>
        <pt x="757" y="144" on="0"/>
        <pt x="757" y="344" on="1"/>
        <pt x="757" y="785" on="1"/>
        <pt x="757" y="1150" on="0"/>
      </contour>
      <contour>
        <pt x="1125" y="1544" on="0"/>
        <pt x="1101" y="1525" on="0"/>
        <pt x="1087" y="1491" on="0"/>
        <pt x="1087" y="1472" on="1"/>
        <pt x="1087" y="1452" on="0"/>
        <pt x="1101" y="1418" on="0"/>
        <pt x="1125" y="1399" on="0"/>
        <pt x="1137" y="1399" on="1"/>
        <pt x="1150" y="1399" on="0"/>
        <pt x="1174" y="1418" on="0"/>
        <pt x="1187" y="1452" on="0"/>
        <pt x="1187" y="1472" on="1"/>
        <pt x="1187" y="1491" on="0"/>
        <pt x="1174" y="1525" on="0"/>
        <pt x="1150" y="1544" on="0"/>
        <pt x="1137" y="1544" on="1"/>
      </contour>
      <contour>
        <pt x="1137" y="1653" on="1"/>
        <pt x="1194" y="1653" on="0"/>
        <pt x="1301" y="1606" on="0"/>
        <pt x="1362" y="1519" on="0"/>
        <pt x="1362" y="1472" on="1"/>
        <pt x="1362" y="1424" on="0"/>
        <pt x="1304" y="1338" on="0"/>
        <pt x="1196" y="1290" on="0"/>
        <pt x="1137" y="1290" on="1"/>
        <pt x="1080" y="1290" on="0"/>
        <pt x="972" y="1338" on="0"/>
        <pt x="912" y="1424" on="0"/>
        <pt x="912" y="1472" on="1"/>
        <pt x="912" y="1519" on="0"/>
        <pt x="973" y="1606" on="0"/>
        <pt x="1081" y="1653" on="0"/>
      </contour>
    </TTGlyph>
    <TTGlyph name="uni0E99" xMin="82" yMin="0" xMax="1278" yMax="1150">
      <contour>
        <pt x="273" y="883" on="1"/>
        <pt x="349" y="883" on="0"/>
        <pt x="349" y="959" on="1"/>
        <pt x="349" y="1034" on="0"/>
        <pt x="273" y="1034" on="1"/>
        <pt x="198" y="1034" on="0"/>
        <pt x="198" y="959" on="1"/>
        <pt x="198" y="883" on="0"/>
      </contour>
      <contour>
        <pt x="340" y="775" on="1"/>
        <pt x="310" y="768" on="0"/>
        <pt x="273" y="768" on="1"/>
        <pt x="172" y="768" on="0"/>
        <pt x="124" y="822" on="1"/>
        <pt x="82" y="869" on="0"/>
        <pt x="82" y="959" on="1"/>
        <pt x="82" y="1048" on="0"/>
        <pt x="124" y="1096" on="1"/>
        <pt x="171" y="1150" on="0"/>
        <pt x="273" y="1150" on="1"/>
        <pt x="494" y="1150" on="0"/>
        <pt x="557" y="1092" on="1"/>
        <pt x="628" y="1027" on="0"/>
        <pt x="628" y="890" on="1"/>
        <pt x="628" y="350" on="1"/>
        <pt x="628" y="297" on="0"/>
        <pt x="619" y="252" on="1"/>
        <pt x="677" y="247" on="0"/>
        <pt x="734" y="190" on="1"/>
        <pt x="791" y="144" on="0"/>
        <pt x="879" y="144" on="1"/>
        <pt x="990" y="144" on="0"/>
        <pt x="990" y="320" on="1"/>
        <pt x="990" y="1150" on="1"/>
        <pt x="1278" y="1150" on="1"/>
        <pt x="1278" y="320" on="1"/>
        <pt x="1278" y="0" on="0"/>
        <pt x="899" y="0" on="1"/>
        <pt x="748" y="0" on="0"/>
        <pt x="650" y="106" on="1"/>
        <pt x="617" y="141" on="0"/>
        <pt x="579" y="144" on="1"/>
        <pt x="491" y="0" on="0"/>
        <pt x="147" y="0" on="1"/>
        <pt x="147" y="144" on="1"/>
        <pt x="244" y="144" on="0"/>
        <pt x="340" y="247" on="0"/>
        <pt x="340" y="350" on="1"/>
      </contour>
    </TTGlyph>
    <TTGlyph name="uni0E99.am" xMin="82" yMin="0" xMax="1278" yMax="1653">
      <contour>
        <pt x="273" y="883" on="1"/>
        <pt x="349" y="883" on="0"/>
        <pt x="349" y="959" on="1"/>
        <pt x="349" y="1034" on="0"/>
        <pt x="273" y="1034" on="1"/>
        <pt x="198" y="1034" on="0"/>
        <pt x="198" y="959" on="1"/>
        <pt x="198" y="883" on="0"/>
      </contour>
      <contour>
        <pt x="340" y="775" on="1"/>
        <pt x="310" y="768" on="0"/>
        <pt x="273" y="768" on="1"/>
        <pt x="172" y="768" on="0"/>
        <pt x="124" y="822" on="1"/>
        <pt x="82" y="869" on="0"/>
        <pt x="82" y="959" on="1"/>
        <pt x="82" y="1048" on="0"/>
        <pt x="124" y="1096" on="1"/>
        <pt x="171" y="1150" on="0"/>
        <pt x="273" y="1150" on="1"/>
        <pt x="494" y="1150" on="0"/>
        <pt x="557" y="1092" on="1"/>
        <pt x="628" y="1027" on="0"/>
        <pt x="628" y="890" on="1"/>
        <pt x="628" y="350" on="1"/>
        <pt x="628" y="297" on="0"/>
        <pt x="619" y="252" on="1"/>
        <pt x="677" y="247" on="0"/>
        <pt x="734" y="190" on="1"/>
        <pt x="791" y="144" on="0"/>
        <pt x="879" y="144" on="1"/>
        <pt x="990" y="144" on="0"/>
        <pt x="990" y="320" on="1"/>
        <pt x="990" y="1150" on="1"/>
        <pt x="1278" y="1150" on="1"/>
        <pt x="1278" y="320" on="1"/>
        <pt x="1278" y="0" on="0"/>
        <pt x="899" y="0" on="1"/>
        <pt x="748" y="0" on="0"/>
        <pt x="650" y="106" on="1"/>
        <pt x="617" y="141" on="0"/>
        <pt x="579" y="144" on="1"/>
        <pt x="491" y="0" on="0"/>
        <pt x="147" y="0" on="1"/>
        <pt x="147" y="144" on="1"/>
        <pt x="244" y="144" on="0"/>
        <pt x="340" y="247" on="0"/>
        <pt x="340" y="350" on="1"/>
      </contour>
      <contour>
        <pt x="755" y="1544" on="0"/>
        <pt x="731" y="1525" on="0"/>
        <pt x="717" y="1491" on="0"/>
        <pt x="717" y="1472" on="1"/>
        <pt x="717" y="1452" on="0"/>
        <pt x="731" y="1418" on="0"/>
        <pt x="755" y="1399" on="0"/>
        <pt x="767" y="1399" on="1"/>
        <pt x="780" y="1399" on="0"/>
        <pt x="804" y="1418" on="0"/>
        <pt x="817" y="1452" on="0"/>
        <pt x="817" y="1472" on="1"/>
        <pt x="817" y="1491" on="0"/>
        <pt x="804" y="1525" on="0"/>
        <pt x="780" y="1544" on="0"/>
        <pt x="767" y="1544" on="1"/>
      </contour>
      <contour>
        <pt x="767" y="1653" on="1"/>
        <pt x="824" y="1653" on="0"/>
        <pt x="931" y="1606" on="0"/>
        <pt x="992" y="1519" on="0"/>
        <pt x="992" y="1472" on="1"/>
        <pt x="992" y="1424" on="0"/>
        <pt x="934" y="1338" on="0"/>
        <pt x="826" y="1290" on="0"/>
        <pt x="767" y="1290" on="1"/>
        <pt x="710" y="1290" on="0"/>
        <pt x="602" y="1338" on="0"/>
        <pt x="542" y="1424" on="0"/>
        <pt x="542" y="1472" on="1"/>
        <pt x="542" y="1519" on="0"/>
        <pt x="603" y="1606" on="0"/>
        <pt x="711" y="1653" on="0"/>
      </contour>
    </TTGlyph>
    <TTGlyph name="uni0E9A" xMin="147" yMin="0" xMax="1147" yMax="1150">
      <contour>
        <pt x="310" y="903" on="1"/>
        <pt x="371" y="903" on="0"/>
        <pt x="371" y="967" on="1"/>
        <pt x="371" y="1030" on="0"/>
        <pt x="310" y="1030" on="1"/>
        <pt x="249" y="1030" on="0"/>
        <pt x="249" y="967" on="1"/>
        <pt x="249" y="903" on="0"/>
      </contour>
      <contour>
        <pt x="147" y="887" on="0"/>
        <pt x="147" y="967" on="1"/>
        <pt x="147" y="1056" on="0"/>
        <pt x="189" y="1101" on="1"/>
        <pt x="233" y="1150" on="0"/>
        <pt x="325" y="1150" on="1"/>
        <pt x="476" y="1150" on="0"/>
        <pt x="526" y="1102" on="1"/>
        <pt x="573" y="1056" on="0"/>
        <pt x="573" y="967" on="1"/>
        <pt x="573" y="820" on="0"/>
        <pt x="435" y="497" on="0"/>
        <pt x="435" y="363" on="1"/>
        <pt x="435" y="144" on="0"/>
        <pt x="647" y="144" on="1"/>
        <pt x="859" y="144" on="0"/>
        <pt x="859" y="380" on="1"/>
        <pt x="859" y="1150" on="1"/>
        <pt x="1147" y="1150" on="1"/>
        <pt x="1147" y="380" on="1"/>
        <pt x="1147" y="0" on="0"/>
        <pt x="647" y="0" on="1"/>
        <pt x="147" y="0" on="0"/>
        <pt x="147" y="363" on="1"/>
        <pt x="147" y="541" on="0"/>
        <pt x="259" y="696" on="1"/>
        <pt x="297" y="748" on="0"/>
        <pt x="322" y="795" on="1"/>
        <pt x="230" y="796" on="0"/>
        <pt x="186" y="844" on="1"/>
      </contour>
    </TTGlyph>
    <TTGlyph name="uni0E9A.am" xMin="147" yMin="0" xMax="1147" yMax="1663">
      <contour>
        <pt x="310" y="903" on="1"/>
        <pt x="371" y="903" on="0"/>
        <pt x="371" y="967" on="1"/>
        <pt x="371" y="1030" on="0"/>
        <pt x="310" y="1030" on="1"/>
        <pt x="249" y="1030" on="0"/>
        <pt x="249" y="967" on="1"/>
        <pt x="249" y="903" on="0"/>
      </contour>
      <contour>
        <pt x="147" y="887" on="0"/>
        <pt x="147" y="967" on="1"/>
        <pt x="147" y="1056" on="0"/>
        <pt x="189" y="1101" on="1"/>
        <pt x="233" y="1150" on="0"/>
        <pt x="325" y="1150" on="1"/>
        <pt x="476" y="1150" on="0"/>
        <pt x="526" y="1102" on="1"/>
        <pt x="573" y="1056" on="0"/>
        <pt x="573" y="967" on="1"/>
        <pt x="573" y="820" on="0"/>
        <pt x="435" y="497" on="0"/>
        <pt x="435" y="363" on="1"/>
        <pt x="435" y="144" on="0"/>
        <pt x="647" y="144" on="1"/>
        <pt x="859" y="144" on="0"/>
        <pt x="859" y="380" on="1"/>
        <pt x="859" y="1150" on="1"/>
        <pt x="1147" y="1150" on="1"/>
        <pt x="1147" y="380" on="1"/>
        <pt x="1147" y="0" on="0"/>
        <pt x="647" y="0" on="1"/>
        <pt x="147" y="0" on="0"/>
        <pt x="147" y="363" on="1"/>
        <pt x="147" y="541" on="0"/>
        <pt x="259" y="696" on="1"/>
        <pt x="297" y="748" on="0"/>
        <pt x="322" y="795" on="1"/>
        <pt x="230" y="796" on="0"/>
        <pt x="186" y="844" on="1"/>
      </contour>
      <contour>
        <pt x="635" y="1554" on="0"/>
        <pt x="611" y="1535" on="0"/>
        <pt x="597" y="1501" on="0"/>
        <pt x="597" y="1482" on="1"/>
        <pt x="597" y="1462" on="0"/>
        <pt x="611" y="1428" on="0"/>
        <pt x="635" y="1409" on="0"/>
        <pt x="647" y="1409" on="1"/>
        <pt x="660" y="1409" on="0"/>
        <pt x="684" y="1428" on="0"/>
        <pt x="697" y="1462" on="0"/>
        <pt x="697" y="1482" on="1"/>
        <pt x="697" y="1501" on="0"/>
        <pt x="684" y="1535" on="0"/>
        <pt x="660" y="1554" on="0"/>
        <pt x="647" y="1554" on="1"/>
      </contour>
      <contour>
        <pt x="647" y="1663" on="1"/>
        <pt x="704" y="1663" on="0"/>
        <pt x="811" y="1616" on="0"/>
        <pt x="872" y="1529" on="0"/>
        <pt x="872" y="1482" on="1"/>
        <pt x="872" y="1434" on="0"/>
        <pt x="814" y="1348" on="0"/>
        <pt x="706" y="1300" on="0"/>
        <pt x="647" y="1300" on="1"/>
        <pt x="590" y="1300" on="0"/>
        <pt x="482" y="1348" on="0"/>
        <pt x="422" y="1434" on="0"/>
        <pt x="422" y="1482" on="1"/>
        <pt x="422" y="1529" on="0"/>
        <pt x="483" y="1616" on="0"/>
        <pt x="591" y="1663" on="0"/>
      </contour>
    </TTGlyph>
    <TTGlyph name="uni0E9B" xMin="147" yMin="0" xMax="1190" yMax="1465">
      <contour>
        <pt x="310" y="903" on="1"/>
        <pt x="371" y="903" on="0"/>
        <pt x="371" y="967" on="1"/>
        <pt x="371" y="1030" on="0"/>
        <pt x="310" y="1030" on="1"/>
        <pt x="249" y="1030" on="0"/>
        <pt x="249" y="967" on="1"/>
        <pt x="249" y="903" on="0"/>
      </contour>
      <contour>
        <pt x="859" y="1100" on="1"/>
        <pt x="859" y="1275" on="0"/>
        <pt x="986" y="1465" on="1"/>
        <pt x="1190" y="1395" on="1"/>
        <pt x="1147" y="1295" on="0"/>
        <pt x="1147" y="1100" on="1"/>
        <pt x="1147" y="380" on="1"/>
        <pt x="1147" y="0" on="0"/>
        <pt x="647" y="0" on="1"/>
        <pt x="147" y="0" on="0"/>
        <pt x="147" y="363" on="1"/>
        <pt x="147" y="541" on="0"/>
        <pt x="259" y="696" on="1"/>
        <pt x="297" y="748" on="0"/>
        <pt x="322" y="795" on="1"/>
        <pt x="230" y="796" on="0"/>
        <pt x="186" y="844" on="1"/>
        <pt x="147" y="887" on="0"/>
        <pt x="147" y="967" on="1"/>
        <pt x="147" y="1056" on="0"/>
        <pt x="189" y="1101" on="1"/>
        <pt x="233" y="1150" on="0"/>
        <pt x="325" y="1150" on="1"/>
        <pt x="476" y="1150" on="0"/>
        <pt x="526" y="1102" on="1"/>
        <pt x="573" y="1056" on="0"/>
        <pt x="573" y="967" on="1"/>
        <pt x="573" y="820" on="0"/>
        <pt x="435" y="497" on="0"/>
        <pt x="435" y="363" on="1"/>
        <pt x="435" y="144" on="0"/>
        <pt x="647" y="144" on="1"/>
        <pt x="859" y="144" on="0"/>
        <pt x="859" y="380" on="1"/>
      </contour>
    </TTGlyph>
    <TTGlyph name="uni0E9B.am" xMin="147" yMin="0" xMax="1190" yMax="1653">
      <contour>
        <pt x="310" y="903" on="1"/>
        <pt x="371" y="903" on="0"/>
        <pt x="371" y="967" on="1"/>
        <pt x="371" y="1030" on="0"/>
        <pt x="310" y="1030" on="1"/>
        <pt x="249" y="1030" on="0"/>
        <pt x="249" y="967" on="1"/>
        <pt x="249" y="903" on="0"/>
      </contour>
      <contour>
        <pt x="859" y="1100" on="1"/>
        <pt x="859" y="1275" on="0"/>
        <pt x="986" y="1465" on="1"/>
        <pt x="1190" y="1395" on="1"/>
        <pt x="1147" y="1295" on="0"/>
        <pt x="1147" y="1100" on="1"/>
        <pt x="1147" y="380" on="1"/>
        <pt x="1147" y="0" on="0"/>
        <pt x="647" y="0" on="1"/>
        <pt x="147" y="0" on="0"/>
        <pt x="147" y="363" on="1"/>
        <pt x="147" y="541" on="0"/>
        <pt x="259" y="696" on="1"/>
        <pt x="297" y="748" on="0"/>
        <pt x="322" y="795" on="1"/>
        <pt x="230" y="796" on="0"/>
        <pt x="186" y="844" on="1"/>
        <pt x="147" y="887" on="0"/>
        <pt x="147" y="967" on="1"/>
        <pt x="147" y="1056" on="0"/>
        <pt x="189" y="1101" on="1"/>
        <pt x="233" y="1150" on="0"/>
        <pt x="325" y="1150" on="1"/>
        <pt x="476" y="1150" on="0"/>
        <pt x="526" y="1102" on="1"/>
        <pt x="573" y="1056" on="0"/>
        <pt x="573" y="967" on="1"/>
        <pt x="573" y="820" on="0"/>
        <pt x="435" y="497" on="0"/>
        <pt x="435" y="363" on="1"/>
        <pt x="435" y="144" on="0"/>
        <pt x="647" y="144" on="1"/>
        <pt x="859" y="144" on="0"/>
        <pt x="859" y="380" on="1"/>
      </contour>
      <contour>
        <pt x="605" y="1544" on="0"/>
        <pt x="581" y="1525" on="0"/>
        <pt x="567" y="1491" on="0"/>
        <pt x="567" y="1472" on="1"/>
        <pt x="567" y="1452" on="0"/>
        <pt x="581" y="1418" on="0"/>
        <pt x="605" y="1399" on="0"/>
        <pt x="617" y="1399" on="1"/>
        <pt x="630" y="1399" on="0"/>
        <pt x="654" y="1418" on="0"/>
        <pt x="667" y="1452" on="0"/>
        <pt x="667" y="1472" on="1"/>
        <pt x="667" y="1491" on="0"/>
        <pt x="654" y="1525" on="0"/>
        <pt x="630" y="1544" on="0"/>
        <pt x="617" y="1544" on="1"/>
      </contour>
      <contour>
        <pt x="617" y="1653" on="1"/>
        <pt x="674" y="1653" on="0"/>
        <pt x="781" y="1606" on="0"/>
        <pt x="842" y="1519" on="0"/>
        <pt x="842" y="1472" on="1"/>
        <pt x="842" y="1424" on="0"/>
        <pt x="784" y="1338" on="0"/>
        <pt x="676" y="1290" on="0"/>
        <pt x="617" y="1290" on="1"/>
        <pt x="560" y="1290" on="0"/>
        <pt x="452" y="1338" on="0"/>
        <pt x="392" y="1424" on="0"/>
        <pt x="392" y="1472" on="1"/>
        <pt x="392" y="1519" on="0"/>
        <pt x="453" y="1606" on="0"/>
        <pt x="561" y="1653" on="0"/>
      </contour>
    </TTGlyph>
    <TTGlyph name="uni0E9C" xMin="168" yMin="0" xMax="1338" yMax="1200">
      <contour>
        <pt x="946" y="917" on="1"/>
        <pt x="979" y="917" on="0"/>
        <pt x="1010" y="957" on="1"/>
        <pt x="1001" y="1044" on="0"/>
        <pt x="946" y="1044" on="1"/>
        <pt x="892" y="1044" on="0"/>
        <pt x="892" y="980" on="1"/>
        <pt x="892" y="917" on="0"/>
      </contour>
      <contour>
        <pt x="544" y="980" on="1"/>
        <pt x="544" y="1044" on="0"/>
        <pt x="480" y="1044" on="1"/>
        <pt x="415" y="1044" on="0"/>
        <pt x="415" y="980" on="1"/>
        <pt x="415" y="917" on="0"/>
        <pt x="480" y="917" on="1"/>
        <pt x="544" y="917" on="0"/>
      </contour>
      <contour>
        <pt x="261" y="70" on="1"/>
        <pt x="168" y="163" on="0"/>
        <pt x="168" y="380" on="1"/>
        <pt x="168" y="887" on="1"/>
        <pt x="168" y="1040" on="0"/>
        <pt x="257" y="1104" on="1"/>
        <pt x="320" y="1150" on="0"/>
        <pt x="440" y="1150" on="1"/>
        <pt x="550" y="1150" on="0"/>
        <pt x="640" y="1055" on="0"/>
        <pt x="640" y="981" on="1"/>
        <pt x="640" y="895" on="0"/>
        <pt x="580" y="810" on="0"/>
        <pt x="530" y="810" on="1"/>
        <pt x="487" y="810" on="0"/>
        <pt x="456" y="821" on="1"/>
        <pt x="456" y="380" on="1"/>
        <pt x="456" y="227" on="0"/>
        <pt x="497" y="173" on="1"/>
        <pt x="520" y="144" on="0"/>
        <pt x="554" y="144" on="1"/>
        <pt x="646" y="144" on="0"/>
        <pt x="646" y="350" on="1"/>
        <pt x="646" y="420" on="1"/>
        <pt x="790" y="420" on="1"/>
        <pt x="790" y="350" on="1"/>
        <pt x="790" y="144" on="0"/>
        <pt x="882" y="144" on="1"/>
        <pt x="918" y="144" on="0"/>
        <pt x="941" y="176" on="1"/>
        <pt x="980" y="232" on="0"/>
        <pt x="980" y="380" on="1"/>
        <pt x="980" y="821" on="1"/>
        <pt x="949" y="810" on="0"/>
        <pt x="906" y="810" on="1"/>
        <pt x="856" y="810" on="0"/>
        <pt x="796" y="895" on="0"/>
        <pt x="796" y="981" on="1"/>
        <pt x="796" y="1055" on="0"/>
        <pt x="886" y="1150" on="0"/>
        <pt x="996" y="1150" on="1"/>
        <pt x="1116" y="1150" on="0"/>
        <pt x="1179" y="1104" on="1"/>
        <pt x="1194" y="1093" on="0"/>
        <pt x="1206" y="1080" on="1"/>
        <pt x="1229" y="1116" on="0"/>
        <pt x="1229" y="1155" on="1"/>
        <pt x="1229" y="1173" on="0"/>
        <pt x="1224" y="1192" on="1"/>
        <pt x="1333" y="1200" on="1"/>
        <pt x="1338" y="1174" on="0"/>
        <pt x="1338" y="1150" on="1"/>
        <pt x="1338" y="1053" on="0"/>
        <pt x="1260" y="969" on="1"/>
        <pt x="1268" y="932" on="0"/>
        <pt x="1268" y="887" on="1"/>
        <pt x="1268" y="380" on="1"/>
        <pt x="1268" y="165" on="0"/>
        <pt x="1176" y="71" on="1"/>
        <pt x="1106" y="0" on="0"/>
        <pt x="952" y="0" on="1"/>
        <pt x="789" y="0" on="0"/>
        <pt x="718" y="117" on="1"/>
        <pt x="647" y="0" on="0"/>
        <pt x="484" y="0" on="1"/>
        <pt x="331" y="0" on="0"/>
      </contour>
    </TTGlyph>
    <TTGlyph name="uni0E9C.am" xMin="168" yMin="0" xMax="1338" yMax="1653">
      <contour>
        <pt x="946" y="917" on="1"/>
        <pt x="979" y="917" on="0"/>
        <pt x="1010" y="957" on="1"/>
        <pt x="1001" y="1044" on="0"/>
        <pt x="946" y="1044" on="1"/>
        <pt x="892" y="1044" on="0"/>
        <pt x="892" y="980" on="1"/>
        <pt x="892" y="917" on="0"/>
      </contour>
      <contour>
        <pt x="544" y="980" on="1"/>
        <pt x="544" y="1044" on="0"/>
        <pt x="480" y="1044" on="1"/>
        <pt x="415" y="1044" on="0"/>
        <pt x="415" y="980" on="1"/>
        <pt x="415" y="917" on="0"/>
        <pt x="480" y="917" on="1"/>
        <pt x="544" y="917" on="0"/>
      </contour>
      <contour>
        <pt x="261" y="70" on="1"/>
        <pt x="168" y="163" on="0"/>
        <pt x="168" y="380" on="1"/>
        <pt x="168" y="887" on="1"/>
        <pt x="168" y="1040" on="0"/>
        <pt x="257" y="1104" on="1"/>
        <pt x="320" y="1150" on="0"/>
        <pt x="440" y="1150" on="1"/>
        <pt x="550" y="1150" on="0"/>
        <pt x="640" y="1055" on="0"/>
        <pt x="640" y="981" on="1"/>
        <pt x="640" y="895" on="0"/>
        <pt x="580" y="810" on="0"/>
        <pt x="530" y="810" on="1"/>
        <pt x="487" y="810" on="0"/>
        <pt x="456" y="821" on="1"/>
        <pt x="456" y="380" on="1"/>
        <pt x="456" y="227" on="0"/>
        <pt x="497" y="173" on="1"/>
        <pt x="520" y="144" on="0"/>
        <pt x="554" y="144" on="1"/>
        <pt x="646" y="144" on="0"/>
        <pt x="646" y="350" on="1"/>
        <pt x="646" y="420" on="1"/>
        <pt x="790" y="420" on="1"/>
        <pt x="790" y="350" on="1"/>
        <pt x="790" y="144" on="0"/>
        <pt x="882" y="144" on="1"/>
        <pt x="918" y="144" on="0"/>
        <pt x="941" y="176" on="1"/>
        <pt x="980" y="232" on="0"/>
        <pt x="980" y="380" on="1"/>
        <pt x="980" y="821" on="1"/>
        <pt x="949" y="810" on="0"/>
        <pt x="906" y="810" on="1"/>
        <pt x="856" y="810" on="0"/>
        <pt x="796" y="895" on="0"/>
        <pt x="796" y="981" on="1"/>
        <pt x="796" y="1055" on="0"/>
        <pt x="886" y="1150" on="0"/>
        <pt x="996" y="1150" on="1"/>
        <pt x="1116" y="1150" on="0"/>
        <pt x="1179" y="1104" on="1"/>
        <pt x="1194" y="1093" on="0"/>
        <pt x="1206" y="1080" on="1"/>
        <pt x="1229" y="1116" on="0"/>
        <pt x="1229" y="1155" on="1"/>
        <pt x="1229" y="1173" on="0"/>
        <pt x="1224" y="1192" on="1"/>
        <pt x="1333" y="1200" on="1"/>
        <pt x="1338" y="1174" on="0"/>
        <pt x="1338" y="1150" on="1"/>
        <pt x="1338" y="1053" on="0"/>
        <pt x="1260" y="969" on="1"/>
        <pt x="1268" y="932" on="0"/>
        <pt x="1268" y="887" on="1"/>
        <pt x="1268" y="380" on="1"/>
        <pt x="1268" y="165" on="0"/>
        <pt x="1176" y="71" on="1"/>
        <pt x="1106" y="0" on="0"/>
        <pt x="952" y="0" on="1"/>
        <pt x="789" y="0" on="0"/>
        <pt x="718" y="117" on="1"/>
        <pt x="647" y="0" on="0"/>
        <pt x="484" y="0" on="1"/>
        <pt x="331" y="0" on="0"/>
      </contour>
      <contour>
        <pt x="695" y="1544" on="0"/>
        <pt x="671" y="1525" on="0"/>
        <pt x="657" y="1491" on="0"/>
        <pt x="657" y="1472" on="1"/>
        <pt x="657" y="1452" on="0"/>
        <pt x="671" y="1418" on="0"/>
        <pt x="695" y="1399" on="0"/>
        <pt x="707" y="1399" on="1"/>
        <pt x="720" y="1399" on="0"/>
        <pt x="744" y="1418" on="0"/>
        <pt x="757" y="1452" on="0"/>
        <pt x="757" y="1472" on="1"/>
        <pt x="757" y="1491" on="0"/>
        <pt x="744" y="1525" on="0"/>
        <pt x="720" y="1544" on="0"/>
        <pt x="707" y="1544" on="1"/>
      </contour>
      <contour>
        <pt x="707" y="1653" on="1"/>
        <pt x="764" y="1653" on="0"/>
        <pt x="871" y="1606" on="0"/>
        <pt x="932" y="1519" on="0"/>
        <pt x="932" y="1472" on="1"/>
        <pt x="932" y="1424" on="0"/>
        <pt x="874" y="1338" on="0"/>
        <pt x="766" y="1290" on="0"/>
        <pt x="707" y="1290" on="1"/>
        <pt x="650" y="1290" on="0"/>
        <pt x="542" y="1338" on="0"/>
        <pt x="482" y="1424" on="0"/>
        <pt x="482" y="1472" on="1"/>
        <pt x="482" y="1519" on="0"/>
        <pt x="543" y="1606" on="0"/>
        <pt x="651" y="1653" on="0"/>
      </contour>
    </TTGlyph>
    <TTGlyph name="uni0E9D" xMin="168" yMin="0" xMax="1311" yMax="1465">
      <contour>
        <pt x="544" y="980" on="1"/>
        <pt x="544" y="1044" on="0"/>
        <pt x="480" y="1044" on="1"/>
        <pt x="415" y="1044" on="0"/>
        <pt x="415" y="980" on="1"/>
        <pt x="415" y="917" on="0"/>
        <pt x="480" y="917" on="1"/>
        <pt x="544" y="917" on="0"/>
      </contour>
      <contour>
        <pt x="1268" y="380" on="1"/>
        <pt x="1268" y="165" on="0"/>
        <pt x="1176" y="71" on="1"/>
        <pt x="1106" y="0" on="0"/>
        <pt x="952" y="0" on="1"/>
        <pt x="789" y="0" on="0"/>
        <pt x="718" y="117" on="1"/>
        <pt x="647" y="0" on="0"/>
        <pt x="484" y="0" on="1"/>
        <pt x="331" y="0" on="0"/>
        <pt x="261" y="70" on="1"/>
        <pt x="168" y="163" on="0"/>
        <pt x="168" y="380" on="1"/>
        <pt x="168" y="887" on="1"/>
        <pt x="168" y="1040" on="0"/>
        <pt x="257" y="1104" on="1"/>
        <pt x="320" y="1150" on="0"/>
        <pt x="440" y="1150" on="1"/>
        <pt x="550" y="1150" on="0"/>
        <pt x="640" y="1055" on="0"/>
        <pt x="640" y="981" on="1"/>
        <pt x="640" y="895" on="0"/>
        <pt x="580" y="810" on="0"/>
        <pt x="530" y="810" on="1"/>
        <pt x="487" y="810" on="0"/>
        <pt x="456" y="821" on="1"/>
        <pt x="456" y="380" on="1"/>
        <pt x="456" y="227" on="0"/>
        <pt x="497" y="173" on="1"/>
        <pt x="520" y="144" on="0"/>
        <pt x="554" y="144" on="1"/>
        <pt x="646" y="144" on="0"/>
        <pt x="646" y="350" on="1"/>
        <pt x="646" y="420" on="1"/>
        <pt x="790" y="420" on="1"/>
        <pt x="790" y="350" on="1"/>
        <pt x="790" y="144" on="0"/>
        <pt x="882" y="144" on="1"/>
        <pt x="918" y="144" on="0"/>
        <pt x="941" y="176" on="1"/>
        <pt x="980" y="232" on="0"/>
        <pt x="980" y="380" on="1"/>
        <pt x="980" y="1100" on="1"/>
        <pt x="980" y="1275" on="0"/>
        <pt x="1107" y="1465" on="1"/>
        <pt x="1311" y="1395" on="1"/>
        <pt x="1268" y="1295" on="0"/>
        <pt x="1268" y="1100" on="1"/>
      </contour>
    </TTGlyph>
    <TTGlyph name="uni0E9D.am" xMin="168" yMin="0" xMax="1311" yMax="1653">
      <contour>
        <pt x="544" y="980" on="1"/>
        <pt x="544" y="1044" on="0"/>
        <pt x="480" y="1044" on="1"/>
        <pt x="415" y="1044" on="0"/>
        <pt x="415" y="980" on="1"/>
        <pt x="415" y="917" on="0"/>
        <pt x="480" y="917" on="1"/>
        <pt x="544" y="917" on="0"/>
      </contour>
      <contour>
        <pt x="1268" y="380" on="1"/>
        <pt x="1268" y="165" on="0"/>
        <pt x="1176" y="71" on="1"/>
        <pt x="1106" y="0" on="0"/>
        <pt x="952" y="0" on="1"/>
        <pt x="789" y="0" on="0"/>
        <pt x="718" y="117" on="1"/>
        <pt x="647" y="0" on="0"/>
        <pt x="484" y="0" on="1"/>
        <pt x="331" y="0" on="0"/>
        <pt x="261" y="70" on="1"/>
        <pt x="168" y="163" on="0"/>
        <pt x="168" y="380" on="1"/>
        <pt x="168" y="887" on="1"/>
        <pt x="168" y="1040" on="0"/>
        <pt x="257" y="1104" on="1"/>
        <pt x="320" y="1150" on="0"/>
        <pt x="440" y="1150" on="1"/>
        <pt x="550" y="1150" on="0"/>
        <pt x="640" y="1055" on="0"/>
        <pt x="640" y="981" on="1"/>
        <pt x="640" y="895" on="0"/>
        <pt x="580" y="810" on="0"/>
        <pt x="530" y="810" on="1"/>
        <pt x="487" y="810" on="0"/>
        <pt x="456" y="821" on="1"/>
        <pt x="456" y="380" on="1"/>
        <pt x="456" y="227" on="0"/>
        <pt x="497" y="173" on="1"/>
        <pt x="520" y="144" on="0"/>
        <pt x="554" y="144" on="1"/>
        <pt x="646" y="144" on="0"/>
        <pt x="646" y="350" on="1"/>
        <pt x="646" y="420" on="1"/>
        <pt x="790" y="420" on="1"/>
        <pt x="790" y="350" on="1"/>
        <pt x="790" y="144" on="0"/>
        <pt x="882" y="144" on="1"/>
        <pt x="918" y="144" on="0"/>
        <pt x="941" y="176" on="1"/>
        <pt x="980" y="232" on="0"/>
        <pt x="980" y="380" on="1"/>
        <pt x="980" y="1100" on="1"/>
        <pt x="980" y="1275" on="0"/>
        <pt x="1107" y="1465" on="1"/>
        <pt x="1311" y="1395" on="1"/>
        <pt x="1268" y="1295" on="0"/>
        <pt x="1268" y="1100" on="1"/>
      </contour>
      <contour>
        <pt x="685" y="1544" on="0"/>
        <pt x="661" y="1525" on="0"/>
        <pt x="647" y="1491" on="0"/>
        <pt x="647" y="1472" on="1"/>
        <pt x="647" y="1452" on="0"/>
        <pt x="661" y="1418" on="0"/>
        <pt x="685" y="1399" on="0"/>
        <pt x="697" y="1399" on="1"/>
        <pt x="710" y="1399" on="0"/>
        <pt x="734" y="1418" on="0"/>
        <pt x="747" y="1452" on="0"/>
        <pt x="747" y="1472" on="1"/>
        <pt x="747" y="1491" on="0"/>
        <pt x="734" y="1525" on="0"/>
        <pt x="710" y="1544" on="0"/>
        <pt x="697" y="1544" on="1"/>
      </contour>
      <contour>
        <pt x="697" y="1653" on="1"/>
        <pt x="754" y="1653" on="0"/>
        <pt x="861" y="1606" on="0"/>
        <pt x="922" y="1519" on="0"/>
        <pt x="922" y="1472" on="1"/>
        <pt x="922" y="1424" on="0"/>
        <pt x="864" y="1338" on="0"/>
        <pt x="756" y="1290" on="0"/>
        <pt x="697" y="1290" on="1"/>
        <pt x="640" y="1290" on="0"/>
        <pt x="532" y="1338" on="0"/>
        <pt x="472" y="1424" on="0"/>
        <pt x="472" y="1472" on="1"/>
        <pt x="472" y="1519" on="0"/>
        <pt x="533" y="1606" on="0"/>
        <pt x="641" y="1653" on="0"/>
      </contour>
    </TTGlyph>
    <TTGlyph name="uni0E9E" xMin="147" yMin="0" xMax="1541" yMax="1150">
      <contour>
        <pt x="310" y="903" on="1"/>
        <pt x="371" y="903" on="0"/>
        <pt x="371" y="967" on="1"/>
        <pt x="371" y="1030" on="0"/>
        <pt x="310" y="1030" on="1"/>
        <pt x="249" y="1030" on="0"/>
        <pt x="249" y="967" on="1"/>
        <pt x="249" y="903" on="0"/>
      </contour>
      <contour>
        <pt x="247" y="78" on="1"/>
        <pt x="147" y="168" on="0"/>
        <pt x="147" y="363" on="1"/>
        <pt x="147" y="541" on="0"/>
        <pt x="259" y="696" on="1"/>
        <pt x="297" y="748" on="0"/>
        <pt x="322" y="795" on="1"/>
        <pt x="226" y="796" on="0"/>
        <pt x="183" y="848" on="1"/>
        <pt x="147" y="890" on="0"/>
        <pt x="147" y="967" on="1"/>
        <pt x="147" y="1066" on="0"/>
        <pt x="199" y="1111" on="1"/>
        <pt x="243" y="1150" on="0"/>
        <pt x="355" y="1150" on="1"/>
        <pt x="472" y="1150" on="0"/>
        <pt x="573" y="1041" on="0"/>
        <pt x="573" y="947" on="1"/>
        <pt x="573" y="820" on="0"/>
        <pt x="435" y="497" on="0"/>
        <pt x="435" y="363" on="1"/>
        <pt x="435" y="144" on="0"/>
        <pt x="543" y="144" on="1"/>
        <pt x="700" y="144" on="0"/>
        <pt x="700" y="350" on="1"/>
        <pt x="700" y="1150" on="1"/>
        <pt x="988" y="1150" on="1"/>
        <pt x="988" y="350" on="1"/>
        <pt x="988" y="144" on="0"/>
        <pt x="1126" y="144" on="1"/>
        <pt x="1253" y="144" on="0"/>
        <pt x="1253" y="363" on="1"/>
        <pt x="1253" y="1150" on="1"/>
        <pt x="1541" y="1150" on="1"/>
        <pt x="1541" y="363" on="1"/>
        <pt x="1541" y="169" on="0"/>
        <pt x="1442" y="79" on="1"/>
        <pt x="1356" y="0" on="0"/>
        <pt x="1125" y="0" on="1"/>
        <pt x="930" y="0" on="0"/>
        <pt x="844" y="110" on="1"/>
        <pt x="758" y="0" on="0"/>
        <pt x="543" y="0" on="1"/>
        <pt x="333" y="0" on="0"/>
      </contour>
    </TTGlyph>
    <TTGlyph name="uni0E9E.am" xMin="147" yMin="0" xMax="1541" yMax="1663">
      <contour>
        <pt x="310" y="903" on="1"/>
        <pt x="371" y="903" on="0"/>
        <pt x="371" y="967" on="1"/>
        <pt x="371" y="1030" on="0"/>
        <pt x="310" y="1030" on="1"/>
        <pt x="249" y="1030" on="0"/>
        <pt x="249" y="967" on="1"/>
        <pt x="249" y="903" on="0"/>
      </contour>
      <contour>
        <pt x="247" y="78" on="1"/>
        <pt x="147" y="168" on="0"/>
        <pt x="147" y="363" on="1"/>
        <pt x="147" y="541" on="0"/>
        <pt x="259" y="696" on="1"/>
        <pt x="297" y="748" on="0"/>
        <pt x="322" y="795" on="1"/>
        <pt x="226" y="796" on="0"/>
        <pt x="183" y="848" on="1"/>
        <pt x="147" y="890" on="0"/>
        <pt x="147" y="967" on="1"/>
        <pt x="147" y="1066" on="0"/>
        <pt x="199" y="1111" on="1"/>
        <pt x="243" y="1150" on="0"/>
        <pt x="355" y="1150" on="1"/>
        <pt x="472" y="1150" on="0"/>
        <pt x="573" y="1041" on="0"/>
        <pt x="573" y="947" on="1"/>
        <pt x="573" y="820" on="0"/>
        <pt x="435" y="497" on="0"/>
        <pt x="435" y="363" on="1"/>
        <pt x="435" y="144" on="0"/>
        <pt x="543" y="144" on="1"/>
        <pt x="700" y="144" on="0"/>
        <pt x="700" y="350" on="1"/>
        <pt x="700" y="1150" on="1"/>
        <pt x="988" y="1150" on="1"/>
        <pt x="988" y="350" on="1"/>
        <pt x="988" y="144" on="0"/>
        <pt x="1126" y="144" on="1"/>
        <pt x="1253" y="144" on="0"/>
        <pt x="1253" y="363" on="1"/>
        <pt x="1253" y="1150" on="1"/>
        <pt x="1541" y="1150" on="1"/>
        <pt x="1541" y="363" on="1"/>
        <pt x="1541" y="169" on="0"/>
        <pt x="1442" y="79" on="1"/>
        <pt x="1356" y="0" on="0"/>
        <pt x="1125" y="0" on="1"/>
        <pt x="930" y="0" on="0"/>
        <pt x="844" y="110" on="1"/>
        <pt x="758" y="0" on="0"/>
        <pt x="543" y="0" on="1"/>
        <pt x="333" y="0" on="0"/>
      </contour>
      <contour>
        <pt x="825" y="1554" on="0"/>
        <pt x="801" y="1535" on="0"/>
        <pt x="787" y="1501" on="0"/>
        <pt x="787" y="1482" on="1"/>
        <pt x="787" y="1462" on="0"/>
        <pt x="801" y="1428" on="0"/>
        <pt x="825" y="1409" on="0"/>
        <pt x="837" y="1409" on="1"/>
        <pt x="850" y="1409" on="0"/>
        <pt x="874" y="1428" on="0"/>
        <pt x="887" y="1462" on="0"/>
        <pt x="887" y="1482" on="1"/>
        <pt x="887" y="1501" on="0"/>
        <pt x="874" y="1535" on="0"/>
        <pt x="850" y="1554" on="0"/>
        <pt x="837" y="1554" on="1"/>
      </contour>
      <contour>
        <pt x="837" y="1663" on="1"/>
        <pt x="894" y="1663" on="0"/>
        <pt x="1001" y="1616" on="0"/>
        <pt x="1062" y="1529" on="0"/>
        <pt x="1062" y="1482" on="1"/>
        <pt x="1062" y="1434" on="0"/>
        <pt x="1004" y="1348" on="0"/>
        <pt x="896" y="1300" on="0"/>
        <pt x="837" y="1300" on="1"/>
        <pt x="780" y="1300" on="0"/>
        <pt x="672" y="1348" on="0"/>
        <pt x="612" y="1434" on="0"/>
        <pt x="612" y="1482" on="1"/>
        <pt x="612" y="1529" on="0"/>
        <pt x="673" y="1616" on="0"/>
        <pt x="781" y="1663" on="0"/>
      </contour>
    </TTGlyph>
    <TTGlyph name="uni0E9F" xMin="147" yMin="0" xMax="1584" yMax="1465">
      <contour>
        <pt x="310" y="903" on="1"/>
        <pt x="371" y="903" on="0"/>
        <pt x="371" y="967" on="1"/>
        <pt x="371" y="1030" on="0"/>
        <pt x="310" y="1030" on="1"/>
        <pt x="249" y="1030" on="0"/>
        <pt x="249" y="967" on="1"/>
        <pt x="249" y="903" on="0"/>
      </contour>
      <contour>
        <pt x="1541" y="363" on="1"/>
        <pt x="1541" y="169" on="0"/>
        <pt x="1442" y="79" on="1"/>
        <pt x="1356" y="0" on="0"/>
        <pt x="1125" y="0" on="1"/>
        <pt x="930" y="0" on="0"/>
        <pt x="844" y="110" on="1"/>
        <pt x="758" y="0" on="0"/>
        <pt x="543" y="0" on="1"/>
        <pt x="333" y="0" on="0"/>
        <pt x="247" y="78" on="1"/>
        <pt x="147" y="168" on="0"/>
        <pt x="147" y="363" on="1"/>
        <pt x="147" y="541" on="0"/>
        <pt x="259" y="696" on="1"/>
        <pt x="297" y="748" on="0"/>
        <pt x="322" y="795" on="1"/>
        <pt x="226" y="796" on="0"/>
        <pt x="183" y="848" on="1"/>
        <pt x="147" y="890" on="0"/>
        <pt x="147" y="967" on="1"/>
        <pt x="147" y="1066" on="0"/>
        <pt x="199" y="1111" on="1"/>
        <pt x="243" y="1150" on="0"/>
        <pt x="355" y="1150" on="1"/>
        <pt x="472" y="1150" on="0"/>
        <pt x="573" y="1041" on="0"/>
        <pt x="573" y="947" on="1"/>
        <pt x="573" y="820" on="0"/>
        <pt x="435" y="497" on="0"/>
        <pt x="435" y="363" on="1"/>
        <pt x="435" y="144" on="0"/>
        <pt x="543" y="144" on="1"/>
        <pt x="700" y="144" on="0"/>
        <pt x="700" y="350" on="1"/>
        <pt x="700" y="1150" on="1"/>
        <pt x="988" y="1150" on="1"/>
        <pt x="988" y="350" on="1"/>
        <pt x="988" y="144" on="0"/>
        <pt x="1126" y="144" on="1"/>
        <pt x="1253" y="144" on="0"/>
        <pt x="1253" y="363" on="1"/>
        <pt x="1253" y="1100" on="1"/>
        <pt x="1253" y="1275" on="0"/>
        <pt x="1380" y="1465" on="1"/>
        <pt x="1584" y="1395" on="1"/>
        <pt x="1541" y="1295" on="0"/>
        <pt x="1541" y="1100" on="1"/>
      </contour>
    </TTGlyph>
    <TTGlyph name="uni0E9F.am" xMin="147" yMin="0" xMax="1584" yMax="1653">
      <contour>
        <pt x="310" y="903" on="1"/>
        <pt x="371" y="903" on="0"/>
        <pt x="371" y="967" on="1"/>
        <pt x="371" y="1030" on="0"/>
        <pt x="310" y="1030" on="1"/>
        <pt x="249" y="1030" on="0"/>
        <pt x="249" y="967" on="1"/>
        <pt x="249" y="903" on="0"/>
      </contour>
      <contour>
        <pt x="1541" y="363" on="1"/>
        <pt x="1541" y="169" on="0"/>
        <pt x="1442" y="79" on="1"/>
        <pt x="1356" y="0" on="0"/>
        <pt x="1125" y="0" on="1"/>
        <pt x="930" y="0" on="0"/>
        <pt x="844" y="110" on="1"/>
        <pt x="758" y="0" on="0"/>
        <pt x="543" y="0" on="1"/>
        <pt x="333" y="0" on="0"/>
        <pt x="247" y="78" on="1"/>
        <pt x="147" y="168" on="0"/>
        <pt x="147" y="363" on="1"/>
        <pt x="147" y="541" on="0"/>
        <pt x="259" y="696" on="1"/>
        <pt x="297" y="748" on="0"/>
        <pt x="322" y="795" on="1"/>
        <pt x="226" y="796" on="0"/>
        <pt x="183" y="848" on="1"/>
        <pt x="147" y="890" on="0"/>
        <pt x="147" y="967" on="1"/>
        <pt x="147" y="1066" on="0"/>
        <pt x="199" y="1111" on="1"/>
        <pt x="243" y="1150" on="0"/>
        <pt x="355" y="1150" on="1"/>
        <pt x="472" y="1150" on="0"/>
        <pt x="573" y="1041" on="0"/>
        <pt x="573" y="947" on="1"/>
        <pt x="573" y="820" on="0"/>
        <pt x="435" y="497" on="0"/>
        <pt x="435" y="363" on="1"/>
        <pt x="435" y="144" on="0"/>
        <pt x="543" y="144" on="1"/>
        <pt x="700" y="144" on="0"/>
        <pt x="700" y="350" on="1"/>
        <pt x="700" y="1150" on="1"/>
        <pt x="988" y="1150" on="1"/>
        <pt x="988" y="350" on="1"/>
        <pt x="988" y="144" on="0"/>
        <pt x="1126" y="144" on="1"/>
        <pt x="1253" y="144" on="0"/>
        <pt x="1253" y="363" on="1"/>
        <pt x="1253" y="1100" on="1"/>
        <pt x="1253" y="1275" on="0"/>
        <pt x="1380" y="1465" on="1"/>
        <pt x="1584" y="1395" on="1"/>
        <pt x="1541" y="1295" on="0"/>
        <pt x="1541" y="1100" on="1"/>
      </contour>
      <contour>
        <pt x="835" y="1544" on="0"/>
        <pt x="811" y="1525" on="0"/>
        <pt x="797" y="1491" on="0"/>
        <pt x="797" y="1472" on="1"/>
        <pt x="797" y="1452" on="0"/>
        <pt x="811" y="1418" on="0"/>
        <pt x="835" y="1399" on="0"/>
        <pt x="847" y="1399" on="1"/>
        <pt x="860" y="1399" on="0"/>
        <pt x="884" y="1418" on="0"/>
        <pt x="897" y="1452" on="0"/>
        <pt x="897" y="1472" on="1"/>
        <pt x="897" y="1491" on="0"/>
        <pt x="884" y="1525" on="0"/>
        <pt x="860" y="1544" on="0"/>
        <pt x="847" y="1544" on="1"/>
      </contour>
      <contour>
        <pt x="847" y="1653" on="1"/>
        <pt x="904" y="1653" on="0"/>
        <pt x="1011" y="1606" on="0"/>
        <pt x="1072" y="1519" on="0"/>
        <pt x="1072" y="1472" on="1"/>
        <pt x="1072" y="1424" on="0"/>
        <pt x="1014" y="1338" on="0"/>
        <pt x="906" y="1290" on="0"/>
        <pt x="847" y="1290" on="1"/>
        <pt x="790" y="1290" on="0"/>
        <pt x="682" y="1338" on="0"/>
        <pt x="622" y="1424" on="0"/>
        <pt x="622" y="1472" on="1"/>
        <pt x="622" y="1519" on="0"/>
        <pt x="683" y="1606" on="0"/>
        <pt x="791" y="1653" on="0"/>
      </contour>
    </TTGlyph>
    <TTGlyph name="uni0EA1" xMin="82" yMin="0" xMax="1278" yMax="1150">
      <contour>
        <pt x="243" y="158" on="1"/>
        <pt x="305" y="158" on="0"/>
        <pt x="305" y="220" on="1"/>
        <pt x="305" y="281" on="0"/>
        <pt x="243" y="281" on="1"/>
        <pt x="182" y="281" on="0"/>
        <pt x="182" y="220" on="1"/>
        <pt x="182" y="158" on="0"/>
      </contour>
      <contour>
        <pt x="628" y="350" on="1"/>
        <pt x="628" y="297" on="0"/>
        <pt x="619" y="252" on="1"/>
        <pt x="677" y="247" on="0"/>
        <pt x="734" y="190" on="1"/>
        <pt x="791" y="144" on="0"/>
        <pt x="879" y="144" on="1"/>
        <pt x="990" y="144" on="0"/>
        <pt x="990" y="320" on="1"/>
        <pt x="990" y="1150" on="1"/>
        <pt x="1278" y="1150" on="1"/>
        <pt x="1278" y="320" on="1"/>
        <pt x="1278" y="0" on="0"/>
        <pt x="899" y="0" on="1"/>
        <pt x="748" y="0" on="0"/>
        <pt x="650" y="106" on="1"/>
        <pt x="617" y="141" on="0"/>
        <pt x="579" y="144" on="1"/>
        <pt x="491" y="0" on="0"/>
        <pt x="337" y="0" on="1"/>
        <pt x="82" y="0" on="0"/>
        <pt x="82" y="220" on="1"/>
        <pt x="82" y="382" on="0"/>
        <pt x="243" y="382" on="1"/>
        <pt x="302" y="382" on="0"/>
        <pt x="340" y="360" on="1"/>
        <pt x="340" y="1150" on="1"/>
        <pt x="628" y="1150" on="1"/>
      </contour>
    </TTGlyph>
</ttFont>
